<mxfile host="app.diagrams.net" modified="2022-12-05T13:33:11.735Z" agent="5.0 (Macintosh; Intel Mac OS X 10_15_7) AppleWebKit/537.36 (KHTML, like Gecko) Chrome/107.0.0.0 Safari/537.36" version="20.6.0" etag="oGrnryQq4xQhmyIhD1Ck" type="github">
  <diagram id="iNO8uimyw1lRgTzjmPUZ" name="第 1 页">
    <mxGraphModel dx="1018" dy="659" grid="0" gridSize="10" guides="1" tooltips="1" connect="1" arrows="1" fold="1" page="0" pageScale="1" pageWidth="827" pageHeight="1169" math="0" shadow="0">
      <root>
        <mxCell id="0" />
        <mxCell id="1" parent="0" />
        <mxCell id="jI2HZNCU--r-3EHntsAd-325" value="" style="shape=table;startSize=0;container=1;collapsible=0;childLayout=tableLayout;fontSize=15;fillColor=#A8DADC;strokeColor=#457B9D;fontColor=#1D3557;labelBackgroundColor=none;" parent="1" vertex="1">
          <mxGeometry x="209" y="2044" width="630" height="450" as="geometry" />
        </mxCell>
        <mxCell id="jI2HZNCU--r-3EHntsAd-328" value="" style="shape=tableRow;horizontal=0;startSize=0;swimlaneHead=0;swimlaneBody=0;top=0;left=0;bottom=0;right=0;collapsible=0;dropTarget=0;fillColor=none;points=[[0,0.5],[1,0.5]];portConstraint=eastwest;fontSize=15;strokeColor=#457B9D;fontColor=#1D3557;labelBackgroundColor=none;" parent="jI2HZNCU--r-3EHntsAd-325" vertex="1">
          <mxGeometry width="630" height="224" as="geometry" />
        </mxCell>
        <mxCell id="jI2HZNCU--r-3EHntsAd-329" value="" style="shape=partialRectangle;html=1;whiteSpace=wrap;connectable=0;overflow=hidden;fillColor=none;top=0;left=0;bottom=0;right=0;pointerEvents=1;fontSize=15;strokeColor=#457B9D;fontColor=#1D3557;labelBackgroundColor=none;" parent="jI2HZNCU--r-3EHntsAd-328" vertex="1">
          <mxGeometry width="630" height="224" as="geometry">
            <mxRectangle width="630" height="224" as="alternateBounds" />
          </mxGeometry>
        </mxCell>
        <mxCell id="jI2HZNCU--r-3EHntsAd-326" value="" style="shape=tableRow;horizontal=0;startSize=0;swimlaneHead=0;swimlaneBody=0;top=0;left=0;bottom=0;right=0;collapsible=0;dropTarget=0;fillColor=none;points=[[0,0.5],[1,0.5]];portConstraint=eastwest;fontSize=15;strokeColor=#457B9D;fontColor=#1D3557;labelBackgroundColor=none;" parent="jI2HZNCU--r-3EHntsAd-325" vertex="1">
          <mxGeometry y="224" width="630" height="226" as="geometry" />
        </mxCell>
        <mxCell id="jI2HZNCU--r-3EHntsAd-327" value="" style="shape=partialRectangle;html=1;whiteSpace=wrap;connectable=0;overflow=hidden;fillColor=none;top=0;left=0;bottom=0;right=0;pointerEvents=1;fontSize=15;strokeColor=#457B9D;fontColor=#1D3557;labelBackgroundColor=none;" parent="jI2HZNCU--r-3EHntsAd-326" vertex="1">
          <mxGeometry width="630" height="226" as="geometry">
            <mxRectangle width="630" height="226" as="alternateBounds" />
          </mxGeometry>
        </mxCell>
        <mxCell id="jI2HZNCU--r-3EHntsAd-1" value="" style="shape=table;startSize=0;container=1;collapsible=0;childLayout=tableLayout;fontSize=15;fillColor=#A8DADC;strokeColor=#457B9D;fontColor=#1D3557;labelBackgroundColor=none;" parent="1" vertex="1">
          <mxGeometry x="30" y="170" width="530" height="44" as="geometry" />
        </mxCell>
        <mxCell id="jI2HZNCU--r-3EHntsAd-2" value="" style="shape=tableRow;horizontal=0;startSize=0;swimlaneHead=0;swimlaneBody=0;top=0;left=0;bottom=0;right=0;collapsible=0;dropTarget=0;fillColor=none;points=[[0,0.5],[1,0.5]];portConstraint=eastwest;fontSize=15;strokeColor=#457B9D;fontColor=#1D3557;labelBackgroundColor=none;" parent="jI2HZNCU--r-3EHntsAd-1" vertex="1">
          <mxGeometry width="530" height="44" as="geometry" />
        </mxCell>
        <mxCell id="jI2HZNCU--r-3EHntsAd-3" value="控制&lt;br style=&quot;font-size: 15px;&quot;&gt;块" style="shape=partialRectangle;html=1;whiteSpace=wrap;connectable=0;overflow=hidden;fillColor=none;top=0;left=0;bottom=0;right=0;pointerEvents=1;fontSize=15;strokeColor=#457B9D;fontColor=#1D3557;labelBackgroundColor=none;" parent="jI2HZNCU--r-3EHntsAd-2" vertex="1">
          <mxGeometry width="45" height="44" as="geometry">
            <mxRectangle width="45" height="44" as="alternateBounds" />
          </mxGeometry>
        </mxCell>
        <mxCell id="jI2HZNCU--r-3EHntsAd-4" value="控制&lt;br style=&quot;font-size: 15px;&quot;&gt;块" style="shape=partialRectangle;html=1;whiteSpace=wrap;connectable=0;overflow=hidden;fillColor=none;top=0;left=0;bottom=0;right=0;pointerEvents=1;fontSize=15;strokeColor=#457B9D;fontColor=#1D3557;labelBackgroundColor=none;" parent="jI2HZNCU--r-3EHntsAd-2" vertex="1">
          <mxGeometry x="45" width="45" height="44" as="geometry">
            <mxRectangle width="45" height="44" as="alternateBounds" />
          </mxGeometry>
        </mxCell>
        <mxCell id="jI2HZNCU--r-3EHntsAd-5" value="……" style="shape=partialRectangle;html=1;whiteSpace=wrap;connectable=0;overflow=hidden;fillColor=none;top=0;left=0;bottom=0;right=0;pointerEvents=1;fontSize=15;strokeColor=#457B9D;fontColor=#1D3557;labelBackgroundColor=none;" parent="jI2HZNCU--r-3EHntsAd-2" vertex="1">
          <mxGeometry x="90" width="45" height="44" as="geometry">
            <mxRectangle width="45" height="44" as="alternateBounds" />
          </mxGeometry>
        </mxCell>
        <mxCell id="jI2HZNCU--r-3EHntsAd-6" value="&lt;meta charset=&quot;utf-8&quot; style=&quot;font-size: 15px;&quot;&gt;&lt;span style=&quot;color: rgb(0, 0, 0); font-family: Helvetica; font-size: 15px; font-style: normal; font-variant-ligatures: normal; font-variant-caps: normal; font-weight: 400; letter-spacing: normal; orphans: 2; text-align: center; text-indent: 0px; text-transform: none; widows: 2; word-spacing: 0px; -webkit-text-stroke-width: 0px; text-decoration-thickness: initial; text-decoration-style: initial; text-decoration-color: initial; float: none; display: inline !important;&quot;&gt;控制&lt;/span&gt;&lt;br style=&quot;color: rgb(0, 0, 0); font-family: Helvetica; font-size: 15px; font-style: normal; font-variant-ligatures: normal; font-variant-caps: normal; font-weight: 400; letter-spacing: normal; orphans: 2; text-align: center; text-indent: 0px; text-transform: none; widows: 2; word-spacing: 0px; -webkit-text-stroke-width: 0px; text-decoration-thickness: initial; text-decoration-style: initial; text-decoration-color: initial;&quot;&gt;&lt;span style=&quot;color: rgb(0, 0, 0); font-family: Helvetica; font-size: 15px; font-style: normal; font-variant-ligatures: normal; font-variant-caps: normal; font-weight: 400; letter-spacing: normal; orphans: 2; text-align: center; text-indent: 0px; text-transform: none; widows: 2; word-spacing: 0px; -webkit-text-stroke-width: 0px; text-decoration-thickness: initial; text-decoration-style: initial; text-decoration-color: initial; float: none; display: inline !important;&quot;&gt;块&lt;/span&gt;" style="shape=partialRectangle;html=1;whiteSpace=wrap;connectable=0;overflow=hidden;fillColor=none;top=0;left=0;bottom=0;right=0;pointerEvents=1;fontSize=15;strokeColor=#457B9D;fontColor=#1D3557;labelBackgroundColor=none;" parent="jI2HZNCU--r-3EHntsAd-2" vertex="1">
          <mxGeometry x="135" width="45" height="44" as="geometry">
            <mxRectangle width="45" height="44" as="alternateBounds" />
          </mxGeometry>
        </mxCell>
        <mxCell id="jI2HZNCU--r-3EHntsAd-7" value="碎片" style="shape=partialRectangle;html=1;whiteSpace=wrap;connectable=0;overflow=hidden;fillColor=none;top=0;left=0;bottom=0;right=0;pointerEvents=1;fontSize=15;strokeColor=#457B9D;fontColor=#1D3557;labelBackgroundColor=none;" parent="jI2HZNCU--r-3EHntsAd-2" vertex="1">
          <mxGeometry x="180" width="50" height="44" as="geometry">
            <mxRectangle width="50" height="44" as="alternateBounds" />
          </mxGeometry>
        </mxCell>
        <mxCell id="jI2HZNCU--r-3EHntsAd-8" value="缓冲页" style="shape=partialRectangle;html=1;whiteSpace=wrap;connectable=0;overflow=hidden;fillColor=none;top=0;left=0;bottom=0;right=0;pointerEvents=1;fontSize=15;strokeColor=#457B9D;fontColor=#1D3557;labelBackgroundColor=none;" parent="jI2HZNCU--r-3EHntsAd-2" vertex="1">
          <mxGeometry x="230" width="75" height="44" as="geometry">
            <mxRectangle width="75" height="44" as="alternateBounds" />
          </mxGeometry>
        </mxCell>
        <mxCell id="jI2HZNCU--r-3EHntsAd-9" value="&lt;meta charset=&quot;utf-8&quot;&gt;&lt;span style=&quot;color: rgb(0, 0, 0); font-family: Helvetica; font-size: 15px; font-style: normal; font-variant-ligatures: normal; font-variant-caps: normal; font-weight: 400; letter-spacing: normal; orphans: 2; text-align: center; text-indent: 0px; text-transform: none; widows: 2; word-spacing: 0px; -webkit-text-stroke-width: 0px; text-decoration-thickness: initial; text-decoration-style: initial; text-decoration-color: initial; float: none; display: inline !important;&quot;&gt;缓冲页&lt;/span&gt;" style="shape=partialRectangle;html=1;whiteSpace=wrap;connectable=0;overflow=hidden;fillColor=none;top=0;left=0;bottom=0;right=0;pointerEvents=1;fontSize=15;strokeColor=#457B9D;fontColor=#1D3557;labelBackgroundColor=none;" parent="jI2HZNCU--r-3EHntsAd-2" vertex="1">
          <mxGeometry x="305" width="75" height="44" as="geometry">
            <mxRectangle width="75" height="44" as="alternateBounds" />
          </mxGeometry>
        </mxCell>
        <mxCell id="jI2HZNCU--r-3EHntsAd-10" value="……" style="shape=partialRectangle;html=1;whiteSpace=wrap;connectable=0;overflow=hidden;fillColor=none;top=0;left=0;bottom=0;right=0;pointerEvents=1;fontSize=15;strokeColor=#457B9D;fontColor=#1D3557;labelBackgroundColor=none;" parent="jI2HZNCU--r-3EHntsAd-2" vertex="1">
          <mxGeometry x="380" width="75" height="44" as="geometry">
            <mxRectangle width="75" height="44" as="alternateBounds" />
          </mxGeometry>
        </mxCell>
        <mxCell id="jI2HZNCU--r-3EHntsAd-11" value="&lt;meta charset=&quot;utf-8&quot;&gt;&lt;span style=&quot;color: rgb(0, 0, 0); font-family: Helvetica; font-size: 15px; font-style: normal; font-variant-ligatures: normal; font-variant-caps: normal; font-weight: 400; letter-spacing: normal; orphans: 2; text-align: center; text-indent: 0px; text-transform: none; widows: 2; word-spacing: 0px; -webkit-text-stroke-width: 0px; text-decoration-thickness: initial; text-decoration-style: initial; text-decoration-color: initial; float: none; display: inline !important;&quot;&gt;缓冲页&lt;/span&gt;" style="shape=partialRectangle;html=1;whiteSpace=wrap;connectable=0;overflow=hidden;fillColor=none;top=0;left=0;bottom=0;right=0;pointerEvents=1;fontSize=15;strokeColor=#457B9D;fontColor=#1D3557;labelBackgroundColor=none;" parent="jI2HZNCU--r-3EHntsAd-2" vertex="1">
          <mxGeometry x="455" width="75" height="44" as="geometry">
            <mxRectangle width="75" height="44" as="alternateBounds" />
          </mxGeometry>
        </mxCell>
        <mxCell id="jI2HZNCU--r-3EHntsAd-43" value="" style="endArrow=classic;html=1;rounded=0;fontSize=15;exitX=0.128;exitY=1.023;exitDx=0;exitDy=0;exitPerimeter=0;entryX=0.649;entryY=1.005;entryDx=0;entryDy=0;entryPerimeter=0;labelBackgroundColor=none;strokeColor=#457B9D;fontColor=#1D3557;" parent="jI2HZNCU--r-3EHntsAd-1" source="jI2HZNCU--r-3EHntsAd-2" target="jI2HZNCU--r-3EHntsAd-2" edge="1">
          <mxGeometry width="50" height="50" relative="1" as="geometry">
            <mxPoint x="360" y="150" as="sourcePoint" />
            <mxPoint x="410" y="100" as="targetPoint" />
            <Array as="points">
              <mxPoint x="200" y="70" />
              <mxPoint x="340" y="50" />
            </Array>
          </mxGeometry>
        </mxCell>
        <mxCell id="jI2HZNCU--r-3EHntsAd-44" value="" style="endArrow=classic;html=1;rounded=0;fontSize=15;exitX=0.211;exitY=-0.006;exitDx=0;exitDy=0;exitPerimeter=0;entryX=0.788;entryY=-0.014;entryDx=0;entryDy=0;entryPerimeter=0;labelBackgroundColor=none;strokeColor=#457B9D;fontColor=#1D3557;" parent="jI2HZNCU--r-3EHntsAd-1" source="jI2HZNCU--r-3EHntsAd-2" target="jI2HZNCU--r-3EHntsAd-2" edge="1">
          <mxGeometry width="50" height="50" relative="1" as="geometry">
            <mxPoint x="360" y="150" as="sourcePoint" />
            <mxPoint x="410" y="100" as="targetPoint" />
            <Array as="points">
              <mxPoint x="260" y="-30" />
              <mxPoint x="410" y="-10" />
            </Array>
          </mxGeometry>
        </mxCell>
        <mxCell id="jI2HZNCU--r-3EHntsAd-56" value="" style="endArrow=classic;html=1;rounded=0;fontSize=15;exitX=0.297;exitY=0.999;exitDx=0;exitDy=0;exitPerimeter=0;entryX=0.931;entryY=1.005;entryDx=0;entryDy=0;entryPerimeter=0;labelBackgroundColor=none;strokeColor=#457B9D;fontColor=#1D3557;" parent="jI2HZNCU--r-3EHntsAd-1" source="jI2HZNCU--r-3EHntsAd-2" target="jI2HZNCU--r-3EHntsAd-2" edge="1">
          <mxGeometry width="50" height="50" relative="1" as="geometry">
            <mxPoint x="360" y="150" as="sourcePoint" />
            <mxPoint x="410" y="100" as="targetPoint" />
            <Array as="points">
              <mxPoint x="330" y="70" />
              <mxPoint x="490" y="50" />
            </Array>
          </mxGeometry>
        </mxCell>
        <mxCell id="jI2HZNCU--r-3EHntsAd-30" value="" style="shape=table;startSize=0;container=1;collapsible=0;childLayout=tableLayout;fontSize=15;fillColor=#A8DADC;strokeColor=#457B9D;fontColor=#1D3557;labelBackgroundColor=none;" parent="1" vertex="1">
          <mxGeometry x="236.25" y="2053" width="530" height="44" as="geometry" />
        </mxCell>
        <mxCell id="jI2HZNCU--r-3EHntsAd-31" value="" style="shape=tableRow;horizontal=0;startSize=0;swimlaneHead=0;swimlaneBody=0;top=0;left=0;bottom=0;right=0;collapsible=0;dropTarget=0;fillColor=none;points=[[0,0.5],[1,0.5]];portConstraint=eastwest;fontSize=15;strokeColor=#457B9D;fontColor=#1D3557;labelBackgroundColor=none;" parent="jI2HZNCU--r-3EHntsAd-30" vertex="1">
          <mxGeometry width="530" height="44" as="geometry" />
        </mxCell>
        <mxCell id="jI2HZNCU--r-3EHntsAd-32" value="控制&lt;br style=&quot;font-size: 15px;&quot;&gt;块" style="shape=partialRectangle;html=1;whiteSpace=wrap;connectable=0;overflow=hidden;fillColor=none;top=0;left=0;bottom=0;right=0;pointerEvents=1;fontSize=15;strokeColor=#457B9D;fontColor=#1D3557;labelBackgroundColor=none;" parent="jI2HZNCU--r-3EHntsAd-31" vertex="1">
          <mxGeometry width="45" height="44" as="geometry">
            <mxRectangle width="45" height="44" as="alternateBounds" />
          </mxGeometry>
        </mxCell>
        <mxCell id="jI2HZNCU--r-3EHntsAd-33" value="控制&lt;br style=&quot;font-size: 15px;&quot;&gt;块" style="shape=partialRectangle;html=1;whiteSpace=wrap;connectable=0;overflow=hidden;fillColor=none;top=0;left=0;bottom=0;right=0;pointerEvents=1;fontSize=15;strokeColor=#457B9D;fontColor=#1D3557;labelBackgroundColor=none;" parent="jI2HZNCU--r-3EHntsAd-31" vertex="1">
          <mxGeometry x="45" width="45" height="44" as="geometry">
            <mxRectangle width="45" height="44" as="alternateBounds" />
          </mxGeometry>
        </mxCell>
        <mxCell id="jI2HZNCU--r-3EHntsAd-34" value="……" style="shape=partialRectangle;html=1;whiteSpace=wrap;connectable=0;overflow=hidden;fillColor=none;top=0;left=0;bottom=0;right=0;pointerEvents=1;fontSize=15;strokeColor=#457B9D;fontColor=#1D3557;labelBackgroundColor=none;" parent="jI2HZNCU--r-3EHntsAd-31" vertex="1">
          <mxGeometry x="90" width="45" height="44" as="geometry">
            <mxRectangle width="45" height="44" as="alternateBounds" />
          </mxGeometry>
        </mxCell>
        <mxCell id="jI2HZNCU--r-3EHntsAd-35" value="&lt;span style=&quot;color: rgb(0, 0, 0); font-family: Helvetica; font-size: 15px; font-style: normal; font-variant-ligatures: normal; font-variant-caps: normal; font-weight: 400; letter-spacing: normal; orphans: 2; text-align: center; text-indent: 0px; text-transform: none; widows: 2; word-spacing: 0px; -webkit-text-stroke-width: 0px; text-decoration-thickness: initial; text-decoration-style: initial; text-decoration-color: initial; float: none; display: inline !important;&quot;&gt;控制&lt;/span&gt;&lt;br style=&quot;color: rgb(0, 0, 0); font-family: Helvetica; font-size: 15px; font-style: normal; font-variant-ligatures: normal; font-variant-caps: normal; font-weight: 400; letter-spacing: normal; orphans: 2; text-align: center; text-indent: 0px; text-transform: none; widows: 2; word-spacing: 0px; -webkit-text-stroke-width: 0px; text-decoration-thickness: initial; text-decoration-style: initial; text-decoration-color: initial;&quot;&gt;&lt;span style=&quot;color: rgb(0, 0, 0); font-family: Helvetica; font-size: 15px; font-style: normal; font-variant-ligatures: normal; font-variant-caps: normal; font-weight: 400; letter-spacing: normal; orphans: 2; text-align: center; text-indent: 0px; text-transform: none; widows: 2; word-spacing: 0px; -webkit-text-stroke-width: 0px; text-decoration-thickness: initial; text-decoration-style: initial; text-decoration-color: initial; float: none; display: inline !important;&quot;&gt;块&lt;/span&gt;" style="shape=partialRectangle;html=1;whiteSpace=wrap;connectable=0;overflow=hidden;fillColor=none;top=0;left=0;bottom=0;right=0;pointerEvents=1;fontSize=15;strokeColor=#457B9D;fontColor=#1D3557;labelBackgroundColor=none;" parent="jI2HZNCU--r-3EHntsAd-31" vertex="1">
          <mxGeometry x="135" width="45" height="44" as="geometry">
            <mxRectangle width="45" height="44" as="alternateBounds" />
          </mxGeometry>
        </mxCell>
        <mxCell id="jI2HZNCU--r-3EHntsAd-36" value="碎片" style="shape=partialRectangle;html=1;whiteSpace=wrap;connectable=0;overflow=hidden;fillColor=none;top=0;left=0;bottom=0;right=0;pointerEvents=1;fontSize=15;strokeColor=#457B9D;fontColor=#1D3557;labelBackgroundColor=none;" parent="jI2HZNCU--r-3EHntsAd-31" vertex="1">
          <mxGeometry x="180" width="50" height="44" as="geometry">
            <mxRectangle width="50" height="44" as="alternateBounds" />
          </mxGeometry>
        </mxCell>
        <mxCell id="jI2HZNCU--r-3EHntsAd-37" value="缓冲页" style="shape=partialRectangle;html=1;whiteSpace=wrap;connectable=0;overflow=hidden;fillColor=none;top=0;left=0;bottom=0;right=0;pointerEvents=1;fontSize=15;strokeColor=#457B9D;fontColor=#1D3557;labelBackgroundColor=none;" parent="jI2HZNCU--r-3EHntsAd-31" vertex="1">
          <mxGeometry x="230" width="75" height="44" as="geometry">
            <mxRectangle width="75" height="44" as="alternateBounds" />
          </mxGeometry>
        </mxCell>
        <mxCell id="jI2HZNCU--r-3EHntsAd-38" value="&lt;span style=&quot;color: rgb(0, 0, 0); font-family: Helvetica; font-size: 15px; font-style: normal; font-variant-ligatures: normal; font-variant-caps: normal; font-weight: 400; letter-spacing: normal; orphans: 2; text-align: center; text-indent: 0px; text-transform: none; widows: 2; word-spacing: 0px; -webkit-text-stroke-width: 0px; text-decoration-thickness: initial; text-decoration-style: initial; text-decoration-color: initial; float: none; display: inline !important;&quot;&gt;缓冲页&lt;/span&gt;" style="shape=partialRectangle;html=1;whiteSpace=wrap;connectable=0;overflow=hidden;fillColor=none;top=0;left=0;bottom=0;right=0;pointerEvents=1;fontSize=15;strokeColor=#457B9D;fontColor=#1D3557;labelBackgroundColor=none;" parent="jI2HZNCU--r-3EHntsAd-31" vertex="1">
          <mxGeometry x="305" width="75" height="44" as="geometry">
            <mxRectangle width="75" height="44" as="alternateBounds" />
          </mxGeometry>
        </mxCell>
        <mxCell id="jI2HZNCU--r-3EHntsAd-39" value="……" style="shape=partialRectangle;html=1;whiteSpace=wrap;connectable=0;overflow=hidden;fillColor=none;top=0;left=0;bottom=0;right=0;pointerEvents=1;fontSize=15;strokeColor=#457B9D;fontColor=#1D3557;labelBackgroundColor=none;" parent="jI2HZNCU--r-3EHntsAd-31" vertex="1">
          <mxGeometry x="380" width="75" height="44" as="geometry">
            <mxRectangle width="75" height="44" as="alternateBounds" />
          </mxGeometry>
        </mxCell>
        <mxCell id="jI2HZNCU--r-3EHntsAd-40" value="&lt;meta charset=&quot;utf-8&quot;&gt;&lt;span style=&quot;color: rgb(0, 0, 0); font-family: Helvetica; font-size: 15px; font-style: normal; font-variant-ligatures: normal; font-variant-caps: normal; font-weight: 400; letter-spacing: normal; orphans: 2; text-align: center; text-indent: 0px; text-transform: none; widows: 2; word-spacing: 0px; -webkit-text-stroke-width: 0px; text-decoration-thickness: initial; text-decoration-style: initial; text-decoration-color: initial; float: none; display: inline !important;&quot;&gt;缓冲页&lt;/span&gt;" style="shape=partialRectangle;html=1;whiteSpace=wrap;connectable=0;overflow=hidden;fillColor=none;top=0;left=0;bottom=0;right=0;pointerEvents=1;fontSize=15;strokeColor=#457B9D;fontColor=#1D3557;labelBackgroundColor=none;" parent="jI2HZNCU--r-3EHntsAd-31" vertex="1">
          <mxGeometry x="455" width="75" height="44" as="geometry">
            <mxRectangle width="75" height="44" as="alternateBounds" />
          </mxGeometry>
        </mxCell>
        <mxCell id="jI2HZNCU--r-3EHntsAd-42" value="" style="endArrow=classic;html=1;rounded=0;fontSize=15;entryX=0.503;entryY=-0.009;entryDx=0;entryDy=0;entryPerimeter=0;labelBackgroundColor=none;strokeColor=#457B9D;fontColor=#1D3557;" parent="1" target="jI2HZNCU--r-3EHntsAd-2" edge="1">
          <mxGeometry width="50" height="50" relative="1" as="geometry">
            <mxPoint x="50" y="170" as="sourcePoint" />
            <mxPoint x="100" y="120" as="targetPoint" />
            <Array as="points">
              <mxPoint x="170" y="140" />
              <mxPoint x="290" y="160" />
            </Array>
          </mxGeometry>
        </mxCell>
        <mxCell id="jI2HZNCU--r-3EHntsAd-57" value="" style="endArrow=none;html=1;rounded=0;fontSize=15;labelBackgroundColor=none;strokeColor=#457B9D;fontColor=#1D3557;" parent="1" edge="1">
          <mxGeometry width="50" height="50" relative="1" as="geometry">
            <mxPoint x="40" y="140" as="sourcePoint" />
            <mxPoint x="40" y="80" as="targetPoint" />
          </mxGeometry>
        </mxCell>
        <mxCell id="jI2HZNCU--r-3EHntsAd-58" value="" style="endArrow=none;html=1;rounded=0;fontSize=15;labelBackgroundColor=none;strokeColor=#457B9D;fontColor=#1D3557;" parent="1" edge="1">
          <mxGeometry width="50" height="50" relative="1" as="geometry">
            <mxPoint x="560" y="140" as="sourcePoint" />
            <mxPoint x="560" y="80" as="targetPoint" />
          </mxGeometry>
        </mxCell>
        <mxCell id="jI2HZNCU--r-3EHntsAd-59" value="向操作系统申请的一片连续的内存空间" style="text;html=1;align=center;verticalAlign=middle;resizable=0;points=[];autosize=1;strokeColor=none;fillColor=none;fontSize=15;fontColor=#1D3557;labelBackgroundColor=none;" parent="1" vertex="1">
          <mxGeometry x="155" y="90" width="280" height="30" as="geometry" />
        </mxCell>
        <mxCell id="jI2HZNCU--r-3EHntsAd-60" value="" style="endArrow=classic;html=1;rounded=0;fontSize=15;labelBackgroundColor=none;strokeColor=#457B9D;fontColor=#1D3557;" parent="1" target="jI2HZNCU--r-3EHntsAd-59" edge="1">
          <mxGeometry width="50" height="50" relative="1" as="geometry">
            <mxPoint x="40" y="104.5" as="sourcePoint" />
            <mxPoint x="110" y="104.5" as="targetPoint" />
          </mxGeometry>
        </mxCell>
        <mxCell id="jI2HZNCU--r-3EHntsAd-61" value="" style="endArrow=classic;html=1;rounded=0;fontSize=15;labelBackgroundColor=none;strokeColor=#457B9D;fontColor=#1D3557;" parent="1" target="jI2HZNCU--r-3EHntsAd-59" edge="1">
          <mxGeometry width="50" height="50" relative="1" as="geometry">
            <mxPoint x="560" y="105" as="sourcePoint" />
            <mxPoint x="445" y="104.72549019607845" as="targetPoint" />
          </mxGeometry>
        </mxCell>
        <mxCell id="jI2HZNCU--r-3EHntsAd-62" value="&lt;font color=&quot;#666666&quot;&gt;Buffer Pool 对应的内存空间&lt;/font&gt;" style="text;html=1;align=center;verticalAlign=middle;resizable=0;points=[];autosize=1;strokeColor=none;fillColor=none;fontSize=15;fontColor=#1D3557;labelBackgroundColor=none;" parent="1" vertex="1">
          <mxGeometry x="190" y="260" width="210" height="30" as="geometry" />
        </mxCell>
        <mxCell id="jI2HZNCU--r-3EHntsAd-63" value="" style="shape=table;startSize=0;container=1;collapsible=0;childLayout=tableLayout;fontSize=15;fillColor=#A8DADC;strokeColor=#457B9D;fontColor=#1D3557;labelBackgroundColor=none;" parent="1" vertex="1">
          <mxGeometry x="200" y="390" width="530" height="44" as="geometry" />
        </mxCell>
        <mxCell id="jI2HZNCU--r-3EHntsAd-64" value="" style="shape=tableRow;horizontal=0;startSize=0;swimlaneHead=0;swimlaneBody=0;top=0;left=0;bottom=0;right=0;collapsible=0;dropTarget=0;fillColor=none;points=[[0,0.5],[1,0.5]];portConstraint=eastwest;fontSize=15;strokeColor=#457B9D;fontColor=#1D3557;labelBackgroundColor=none;" parent="jI2HZNCU--r-3EHntsAd-63" vertex="1">
          <mxGeometry width="530" height="44" as="geometry" />
        </mxCell>
        <mxCell id="jI2HZNCU--r-3EHntsAd-65" value="控制&lt;br style=&quot;font-size: 15px;&quot;&gt;块" style="shape=partialRectangle;html=1;whiteSpace=wrap;connectable=0;overflow=hidden;fillColor=none;top=0;left=0;bottom=0;right=0;pointerEvents=1;fontSize=15;strokeColor=#457B9D;fontColor=#1D3557;labelBackgroundColor=none;" parent="jI2HZNCU--r-3EHntsAd-64" vertex="1">
          <mxGeometry width="45" height="44" as="geometry">
            <mxRectangle width="45" height="44" as="alternateBounds" />
          </mxGeometry>
        </mxCell>
        <mxCell id="jI2HZNCU--r-3EHntsAd-66" value="控制&lt;br style=&quot;font-size: 15px;&quot;&gt;块" style="shape=partialRectangle;html=1;whiteSpace=wrap;connectable=0;overflow=hidden;fillColor=none;top=0;left=0;bottom=0;right=0;pointerEvents=1;fontSize=15;strokeColor=#457B9D;fontColor=#1D3557;labelBackgroundColor=none;" parent="jI2HZNCU--r-3EHntsAd-64" vertex="1">
          <mxGeometry x="45" width="45" height="44" as="geometry">
            <mxRectangle width="45" height="44" as="alternateBounds" />
          </mxGeometry>
        </mxCell>
        <mxCell id="jI2HZNCU--r-3EHntsAd-67" value="……" style="shape=partialRectangle;html=1;whiteSpace=wrap;connectable=0;overflow=hidden;fillColor=none;top=0;left=0;bottom=0;right=0;pointerEvents=1;fontSize=15;strokeColor=#457B9D;fontColor=#1D3557;labelBackgroundColor=none;" parent="jI2HZNCU--r-3EHntsAd-64" vertex="1">
          <mxGeometry x="90" width="45" height="44" as="geometry">
            <mxRectangle width="45" height="44" as="alternateBounds" />
          </mxGeometry>
        </mxCell>
        <mxCell id="jI2HZNCU--r-3EHntsAd-68" value="&lt;meta charset=&quot;utf-8&quot; style=&quot;font-size: 15px;&quot;&gt;&lt;span style=&quot;color: rgb(0, 0, 0); font-family: Helvetica; font-size: 15px; font-style: normal; font-variant-ligatures: normal; font-variant-caps: normal; font-weight: 400; letter-spacing: normal; orphans: 2; text-align: center; text-indent: 0px; text-transform: none; widows: 2; word-spacing: 0px; -webkit-text-stroke-width: 0px; text-decoration-thickness: initial; text-decoration-style: initial; text-decoration-color: initial; float: none; display: inline !important;&quot;&gt;控制&lt;/span&gt;&lt;br style=&quot;color: rgb(0, 0, 0); font-family: Helvetica; font-size: 15px; font-style: normal; font-variant-ligatures: normal; font-variant-caps: normal; font-weight: 400; letter-spacing: normal; orphans: 2; text-align: center; text-indent: 0px; text-transform: none; widows: 2; word-spacing: 0px; -webkit-text-stroke-width: 0px; text-decoration-thickness: initial; text-decoration-style: initial; text-decoration-color: initial;&quot;&gt;&lt;span style=&quot;color: rgb(0, 0, 0); font-family: Helvetica; font-size: 15px; font-style: normal; font-variant-ligatures: normal; font-variant-caps: normal; font-weight: 400; letter-spacing: normal; orphans: 2; text-align: center; text-indent: 0px; text-transform: none; widows: 2; word-spacing: 0px; -webkit-text-stroke-width: 0px; text-decoration-thickness: initial; text-decoration-style: initial; text-decoration-color: initial; float: none; display: inline !important;&quot;&gt;块&lt;/span&gt;" style="shape=partialRectangle;html=1;whiteSpace=wrap;connectable=0;overflow=hidden;fillColor=none;top=0;left=0;bottom=0;right=0;pointerEvents=1;fontSize=15;strokeColor=#457B9D;fontColor=#1D3557;labelBackgroundColor=none;" parent="jI2HZNCU--r-3EHntsAd-64" vertex="1">
          <mxGeometry x="135" width="45" height="44" as="geometry">
            <mxRectangle width="45" height="44" as="alternateBounds" />
          </mxGeometry>
        </mxCell>
        <mxCell id="jI2HZNCU--r-3EHntsAd-69" value="碎片" style="shape=partialRectangle;html=1;whiteSpace=wrap;connectable=0;overflow=hidden;fillColor=none;top=0;left=0;bottom=0;right=0;pointerEvents=1;fontSize=15;strokeColor=#457B9D;fontColor=#1D3557;labelBackgroundColor=none;" parent="jI2HZNCU--r-3EHntsAd-64" vertex="1">
          <mxGeometry x="180" width="50" height="44" as="geometry">
            <mxRectangle width="50" height="44" as="alternateBounds" />
          </mxGeometry>
        </mxCell>
        <mxCell id="jI2HZNCU--r-3EHntsAd-70" value="缓冲页" style="shape=partialRectangle;html=1;whiteSpace=wrap;connectable=0;overflow=hidden;fillColor=none;top=0;left=0;bottom=0;right=0;pointerEvents=1;fontSize=15;strokeColor=#457B9D;fontColor=#1D3557;labelBackgroundColor=none;" parent="jI2HZNCU--r-3EHntsAd-64" vertex="1">
          <mxGeometry x="230" width="75" height="44" as="geometry">
            <mxRectangle width="75" height="44" as="alternateBounds" />
          </mxGeometry>
        </mxCell>
        <mxCell id="jI2HZNCU--r-3EHntsAd-71" value="&lt;meta charset=&quot;utf-8&quot;&gt;&lt;span style=&quot;color: rgb(0, 0, 0); font-family: Helvetica; font-size: 15px; font-style: normal; font-variant-ligatures: normal; font-variant-caps: normal; font-weight: 400; letter-spacing: normal; orphans: 2; text-align: center; text-indent: 0px; text-transform: none; widows: 2; word-spacing: 0px; -webkit-text-stroke-width: 0px; text-decoration-thickness: initial; text-decoration-style: initial; text-decoration-color: initial; float: none; display: inline !important;&quot;&gt;缓冲页&lt;/span&gt;" style="shape=partialRectangle;html=1;whiteSpace=wrap;connectable=0;overflow=hidden;fillColor=none;top=0;left=0;bottom=0;right=0;pointerEvents=1;fontSize=15;strokeColor=#457B9D;fontColor=#1D3557;labelBackgroundColor=none;" parent="jI2HZNCU--r-3EHntsAd-64" vertex="1">
          <mxGeometry x="305" width="75" height="44" as="geometry">
            <mxRectangle width="75" height="44" as="alternateBounds" />
          </mxGeometry>
        </mxCell>
        <mxCell id="jI2HZNCU--r-3EHntsAd-72" value="……" style="shape=partialRectangle;html=1;whiteSpace=wrap;connectable=0;overflow=hidden;fillColor=none;top=0;left=0;bottom=0;right=0;pointerEvents=1;fontSize=15;strokeColor=#457B9D;fontColor=#1D3557;labelBackgroundColor=none;" parent="jI2HZNCU--r-3EHntsAd-64" vertex="1">
          <mxGeometry x="380" width="75" height="44" as="geometry">
            <mxRectangle width="75" height="44" as="alternateBounds" />
          </mxGeometry>
        </mxCell>
        <mxCell id="jI2HZNCU--r-3EHntsAd-73" value="&lt;meta charset=&quot;utf-8&quot;&gt;&lt;span style=&quot;color: rgb(0, 0, 0); font-family: Helvetica; font-size: 15px; font-style: normal; font-variant-ligatures: normal; font-variant-caps: normal; font-weight: 400; letter-spacing: normal; orphans: 2; text-align: center; text-indent: 0px; text-transform: none; widows: 2; word-spacing: 0px; -webkit-text-stroke-width: 0px; text-decoration-thickness: initial; text-decoration-style: initial; text-decoration-color: initial; float: none; display: inline !important;&quot;&gt;缓冲页&lt;/span&gt;" style="shape=partialRectangle;html=1;whiteSpace=wrap;connectable=0;overflow=hidden;fillColor=none;top=0;left=0;bottom=0;right=0;pointerEvents=1;fontSize=15;strokeColor=#457B9D;fontColor=#1D3557;labelBackgroundColor=none;" parent="jI2HZNCU--r-3EHntsAd-64" vertex="1">
          <mxGeometry x="455" width="75" height="44" as="geometry">
            <mxRectangle width="75" height="44" as="alternateBounds" />
          </mxGeometry>
        </mxCell>
        <mxCell id="jI2HZNCU--r-3EHntsAd-74" value="" style="endArrow=classic;html=1;rounded=0;fontSize=15;exitX=0.128;exitY=1.023;exitDx=0;exitDy=0;exitPerimeter=0;entryX=0.651;entryY=1.003;entryDx=0;entryDy=0;entryPerimeter=0;labelBackgroundColor=none;strokeColor=#457B9D;fontColor=#1D3557;" parent="jI2HZNCU--r-3EHntsAd-63" source="jI2HZNCU--r-3EHntsAd-64" target="jI2HZNCU--r-3EHntsAd-64" edge="1">
          <mxGeometry width="50" height="50" relative="1" as="geometry">
            <mxPoint x="360" y="150" as="sourcePoint" />
            <mxPoint x="410" y="100" as="targetPoint" />
            <Array as="points">
              <mxPoint x="200" y="70" />
              <mxPoint x="340" y="50" />
            </Array>
          </mxGeometry>
        </mxCell>
        <mxCell id="jI2HZNCU--r-3EHntsAd-75" value="" style="endArrow=classic;html=1;rounded=0;fontSize=15;exitX=0.212;exitY=-0.009;exitDx=0;exitDy=0;exitPerimeter=0;entryX=0.784;entryY=0.001;entryDx=0;entryDy=0;entryPerimeter=0;labelBackgroundColor=none;strokeColor=#457B9D;fontColor=#1D3557;" parent="jI2HZNCU--r-3EHntsAd-63" source="jI2HZNCU--r-3EHntsAd-64" target="jI2HZNCU--r-3EHntsAd-64" edge="1">
          <mxGeometry width="50" height="50" relative="1" as="geometry">
            <mxPoint x="360" y="150" as="sourcePoint" />
            <mxPoint x="410" y="100" as="targetPoint" />
            <Array as="points">
              <mxPoint x="260" y="-30" />
              <mxPoint x="410" y="-10" />
            </Array>
          </mxGeometry>
        </mxCell>
        <mxCell id="jI2HZNCU--r-3EHntsAd-76" value="" style="endArrow=classic;html=1;rounded=0;fontSize=15;exitX=0.298;exitY=1.001;exitDx=0;exitDy=0;exitPerimeter=0;entryX=0.93;entryY=1.023;entryDx=0;entryDy=0;entryPerimeter=0;labelBackgroundColor=none;strokeColor=#457B9D;fontColor=#1D3557;" parent="jI2HZNCU--r-3EHntsAd-63" source="jI2HZNCU--r-3EHntsAd-64" target="jI2HZNCU--r-3EHntsAd-64" edge="1">
          <mxGeometry width="50" height="50" relative="1" as="geometry">
            <mxPoint x="360" y="150" as="sourcePoint" />
            <mxPoint x="410" y="100" as="targetPoint" />
            <Array as="points">
              <mxPoint x="330" y="70" />
              <mxPoint x="490" y="50" />
            </Array>
          </mxGeometry>
        </mxCell>
        <mxCell id="jI2HZNCU--r-3EHntsAd-77" value="" style="endArrow=classic;html=1;rounded=0;fontSize=15;entryX=0.504;entryY=-0.008;entryDx=0;entryDy=0;entryPerimeter=0;labelBackgroundColor=none;strokeColor=#457B9D;fontColor=#1D3557;" parent="1" target="jI2HZNCU--r-3EHntsAd-64" edge="1">
          <mxGeometry width="50" height="50" relative="1" as="geometry">
            <mxPoint x="220" y="390" as="sourcePoint" />
            <mxPoint x="270" y="340" as="targetPoint" />
            <Array as="points">
              <mxPoint x="340" y="360" />
              <mxPoint x="460" y="380" />
            </Array>
          </mxGeometry>
        </mxCell>
        <mxCell id="jI2HZNCU--r-3EHntsAd-78" value="Buffer Pool" style="text;html=1;align=center;verticalAlign=middle;resizable=0;points=[];autosize=1;strokeColor=none;fillColor=none;fontSize=15;fontColor=#1D3557;labelBackgroundColor=none;" parent="1" vertex="1">
          <mxGeometry x="730" y="397" width="100" height="30" as="geometry" />
        </mxCell>
        <mxCell id="jI2HZNCU--r-3EHntsAd-79" value="" style="rounded=0;whiteSpace=wrap;html=1;fontSize=15;fillColor=#A8DADC;strokeColor=#457B9D;fontColor=#1D3557;labelBackgroundColor=none;" parent="1" vertex="1">
          <mxGeometry x="315.5" y="520" width="80" height="90" as="geometry" />
        </mxCell>
        <mxCell id="jI2HZNCU--r-3EHntsAd-80" value="&lt;font color=&quot;#333333&quot;&gt;free_pre&lt;/font&gt;" style="rounded=0;whiteSpace=wrap;html=1;fontSize=15;fillColor=#A8DADC;strokeColor=#457B9D;fontColor=#1D3557;labelBackgroundColor=none;" parent="1" vertex="1">
          <mxGeometry x="320.5" y="550" width="70" height="25" as="geometry" />
        </mxCell>
        <mxCell id="jI2HZNCU--r-3EHntsAd-81" value="&lt;font color=&quot;#333333&quot;&gt;free_next&lt;/font&gt;" style="rounded=0;whiteSpace=wrap;html=1;fontSize=15;fillColor=#A8DADC;strokeColor=#457B9D;fontColor=#1D3557;labelBackgroundColor=none;" parent="1" vertex="1">
          <mxGeometry x="320.5" y="580" width="70" height="25" as="geometry" />
        </mxCell>
        <mxCell id="jI2HZNCU--r-3EHntsAd-82" value="控制块" style="text;html=1;align=center;verticalAlign=middle;resizable=0;points=[];autosize=1;strokeColor=none;fillColor=none;fontSize=15;fontColor=#1D3557;labelBackgroundColor=none;" parent="1" vertex="1">
          <mxGeometry x="320.5" y="520" width="70" height="30" as="geometry" />
        </mxCell>
        <mxCell id="jI2HZNCU--r-3EHntsAd-83" value="" style="rounded=0;whiteSpace=wrap;html=1;fontSize=15;fillColor=#A8DADC;strokeColor=#457B9D;fontColor=#1D3557;labelBackgroundColor=none;" parent="1" vertex="1">
          <mxGeometry x="445.5" y="520" width="80" height="90" as="geometry" />
        </mxCell>
        <mxCell id="jI2HZNCU--r-3EHntsAd-84" value="&lt;font color=&quot;#333333&quot;&gt;free_pre&lt;/font&gt;" style="rounded=0;whiteSpace=wrap;html=1;fontSize=15;fillColor=#A8DADC;strokeColor=#457B9D;fontColor=#1D3557;labelBackgroundColor=none;" parent="1" vertex="1">
          <mxGeometry x="450.5" y="550" width="70" height="25" as="geometry" />
        </mxCell>
        <mxCell id="jI2HZNCU--r-3EHntsAd-85" value="&lt;font color=&quot;#333333&quot;&gt;free_next&lt;/font&gt;" style="rounded=0;whiteSpace=wrap;html=1;fontSize=15;fillColor=#A8DADC;strokeColor=#457B9D;fontColor=#1D3557;labelBackgroundColor=none;" parent="1" vertex="1">
          <mxGeometry x="450.5" y="580" width="70" height="25" as="geometry" />
        </mxCell>
        <mxCell id="jI2HZNCU--r-3EHntsAd-86" value="控制块" style="text;html=1;align=center;verticalAlign=middle;resizable=0;points=[];autosize=1;strokeColor=none;fillColor=none;fontSize=15;fontColor=#1D3557;labelBackgroundColor=none;" parent="1" vertex="1">
          <mxGeometry x="450.5" y="520" width="70" height="30" as="geometry" />
        </mxCell>
        <mxCell id="jI2HZNCU--r-3EHntsAd-87" value="" style="rounded=0;whiteSpace=wrap;html=1;fontSize=15;fillColor=#A8DADC;strokeColor=#457B9D;fontColor=#1D3557;labelBackgroundColor=none;" parent="1" vertex="1">
          <mxGeometry x="573.5" y="520" width="80" height="90" as="geometry" />
        </mxCell>
        <mxCell id="jI2HZNCU--r-3EHntsAd-88" value="&lt;font color=&quot;#333333&quot;&gt;free_pre&lt;/font&gt;" style="rounded=0;whiteSpace=wrap;html=1;fontSize=15;fillColor=#A8DADC;strokeColor=#457B9D;fontColor=#1D3557;labelBackgroundColor=none;" parent="1" vertex="1">
          <mxGeometry x="578.5" y="550" width="70" height="25" as="geometry" />
        </mxCell>
        <mxCell id="jI2HZNCU--r-3EHntsAd-89" value="&lt;font color=&quot;#333333&quot;&gt;free_next&lt;/font&gt;" style="rounded=0;whiteSpace=wrap;html=1;fontSize=15;fillColor=#A8DADC;strokeColor=#457B9D;fontColor=#1D3557;labelBackgroundColor=none;" parent="1" vertex="1">
          <mxGeometry x="578.5" y="580" width="70" height="25" as="geometry" />
        </mxCell>
        <mxCell id="jI2HZNCU--r-3EHntsAd-90" value="……" style="text;html=1;align=center;verticalAlign=middle;resizable=0;points=[];autosize=1;strokeColor=none;fillColor=none;fontSize=15;fontColor=#1D3557;labelBackgroundColor=none;" parent="1" vertex="1">
          <mxGeometry x="588.5" y="520" width="50" height="30" as="geometry" />
        </mxCell>
        <mxCell id="jI2HZNCU--r-3EHntsAd-91" value="" style="rounded=0;whiteSpace=wrap;html=1;fontSize=15;fillColor=#A8DADC;strokeColor=#457B9D;fontColor=#1D3557;labelBackgroundColor=none;" parent="1" vertex="1">
          <mxGeometry x="703.5" y="520" width="80" height="90" as="geometry" />
        </mxCell>
        <mxCell id="jI2HZNCU--r-3EHntsAd-92" value="&lt;font color=&quot;#333333&quot;&gt;free_pre&lt;/font&gt;" style="rounded=0;whiteSpace=wrap;html=1;fontSize=15;fillColor=#A8DADC;strokeColor=#457B9D;fontColor=#1D3557;labelBackgroundColor=none;" parent="1" vertex="1">
          <mxGeometry x="708.5" y="550" width="70" height="25" as="geometry" />
        </mxCell>
        <mxCell id="jI2HZNCU--r-3EHntsAd-93" value="&lt;font color=&quot;#333333&quot;&gt;free_next&lt;/font&gt;" style="rounded=0;whiteSpace=wrap;html=1;fontSize=15;fillColor=#A8DADC;strokeColor=#457B9D;fontColor=#1D3557;labelBackgroundColor=none;" parent="1" vertex="1">
          <mxGeometry x="708.5" y="580" width="70" height="25" as="geometry" />
        </mxCell>
        <mxCell id="jI2HZNCU--r-3EHntsAd-94" value="控制块" style="text;html=1;align=center;verticalAlign=middle;resizable=0;points=[];autosize=1;strokeColor=none;fillColor=none;fontSize=15;fontColor=#1D3557;labelBackgroundColor=none;" parent="1" vertex="1">
          <mxGeometry x="708.5" y="520" width="70" height="30" as="geometry" />
        </mxCell>
        <mxCell id="jI2HZNCU--r-3EHntsAd-98" value="" style="endArrow=classic;html=1;rounded=0;fontSize=15;exitX=0;exitY=0.5;exitDx=0;exitDy=0;entryX=1.004;entryY=0.473;entryDx=0;entryDy=0;entryPerimeter=0;labelBackgroundColor=none;strokeColor=#457B9D;fontColor=#1D3557;" parent="1" source="jI2HZNCU--r-3EHntsAd-84" target="jI2HZNCU--r-3EHntsAd-79" edge="1">
          <mxGeometry width="50" height="50" relative="1" as="geometry">
            <mxPoint x="443.5" y="562.5" as="sourcePoint" />
            <mxPoint x="394.5" y="563" as="targetPoint" />
          </mxGeometry>
        </mxCell>
        <mxCell id="jI2HZNCU--r-3EHntsAd-100" value="" style="endArrow=classic;html=1;rounded=0;fontSize=15;exitX=1;exitY=0.5;exitDx=0;exitDy=0;labelBackgroundColor=none;strokeColor=#457B9D;fontColor=#1D3557;" parent="1" source="jI2HZNCU--r-3EHntsAd-81" edge="1">
          <mxGeometry width="50" height="50" relative="1" as="geometry">
            <mxPoint x="395.5" y="592" as="sourcePoint" />
            <mxPoint x="445.5" y="592" as="targetPoint" />
          </mxGeometry>
        </mxCell>
        <mxCell id="jI2HZNCU--r-3EHntsAd-101" value="" style="endArrow=classic;html=1;rounded=0;fontSize=15;exitX=1;exitY=0.5;exitDx=0;exitDy=0;labelBackgroundColor=none;strokeColor=#457B9D;fontColor=#1D3557;" parent="1" source="jI2HZNCU--r-3EHntsAd-85" edge="1">
          <mxGeometry width="50" height="50" relative="1" as="geometry">
            <mxPoint x="522.5" y="592.86" as="sourcePoint" />
            <mxPoint x="573.5" y="592.14" as="targetPoint" />
          </mxGeometry>
        </mxCell>
        <mxCell id="jI2HZNCU--r-3EHntsAd-102" value="" style="endArrow=classic;html=1;rounded=0;fontSize=15;exitX=1;exitY=0.5;exitDx=0;exitDy=0;labelBackgroundColor=none;strokeColor=#457B9D;fontColor=#1D3557;" parent="1" edge="1">
          <mxGeometry width="50" height="50" relative="1" as="geometry">
            <mxPoint x="648.5" y="592.69" as="sourcePoint" />
            <mxPoint x="703.5" y="592.19" as="targetPoint" />
          </mxGeometry>
        </mxCell>
        <mxCell id="jI2HZNCU--r-3EHntsAd-103" value="" style="endArrow=classic;html=1;rounded=0;fontSize=15;exitX=0;exitY=0.5;exitDx=0;exitDy=0;entryX=0.997;entryY=0.467;entryDx=0;entryDy=0;entryPerimeter=0;labelBackgroundColor=none;strokeColor=#457B9D;fontColor=#1D3557;" parent="1" target="jI2HZNCU--r-3EHntsAd-83" edge="1">
          <mxGeometry width="50" height="50" relative="1" as="geometry">
            <mxPoint x="578.5" y="562.36" as="sourcePoint" />
            <mxPoint x="523.8199999999999" y="562.43" as="targetPoint" />
          </mxGeometry>
        </mxCell>
        <mxCell id="jI2HZNCU--r-3EHntsAd-104" value="" style="endArrow=classic;html=1;rounded=0;fontSize=15;exitX=0;exitY=0.5;exitDx=0;exitDy=0;entryX=1.004;entryY=0.473;entryDx=0;entryDy=0;entryPerimeter=0;labelBackgroundColor=none;strokeColor=#457B9D;fontColor=#1D3557;" parent="1" edge="1">
          <mxGeometry width="50" height="50" relative="1" as="geometry">
            <mxPoint x="708.1800000000001" y="562.34" as="sourcePoint" />
            <mxPoint x="653.5" y="562.41" as="targetPoint" />
          </mxGeometry>
        </mxCell>
        <mxCell id="jI2HZNCU--r-3EHntsAd-105" value="" style="rounded=0;whiteSpace=wrap;html=1;fontSize=15;fillColor=#A8DADC;strokeColor=#457B9D;fontColor=#1D3557;labelBackgroundColor=none;" parent="1" vertex="1">
          <mxGeometry x="165.75" y="520" width="70.5" height="90" as="geometry" />
        </mxCell>
        <mxCell id="jI2HZNCU--r-3EHntsAd-108" value="&lt;font color=&quot;#333333&quot;&gt;start&lt;/font&gt;" style="rounded=0;whiteSpace=wrap;html=1;fontSize=15;fillColor=#A8DADC;strokeColor=#457B9D;fontColor=#1D3557;labelBackgroundColor=none;" parent="1" vertex="1">
          <mxGeometry x="180.5" y="550" width="41" height="25" as="geometry" />
        </mxCell>
        <mxCell id="jI2HZNCU--r-3EHntsAd-133" style="edgeStyle=orthogonalEdgeStyle;rounded=0;orthogonalLoop=1;jettySize=auto;html=1;exitX=1;exitY=0.5;exitDx=0;exitDy=0;entryX=0.5;entryY=1;entryDx=0;entryDy=0;fontSize=15;labelBackgroundColor=none;strokeColor=#457B9D;fontColor=#1D3557;" parent="1" source="jI2HZNCU--r-3EHntsAd-109" target="jI2HZNCU--r-3EHntsAd-91" edge="1">
          <mxGeometry relative="1" as="geometry">
            <Array as="points">
              <mxPoint x="265.5" y="593" />
              <mxPoint x="265.5" y="630" />
              <mxPoint x="743.5" y="630" />
            </Array>
          </mxGeometry>
        </mxCell>
        <mxCell id="jI2HZNCU--r-3EHntsAd-109" value="&lt;font color=&quot;#333333&quot;&gt;end&lt;/font&gt;" style="rounded=0;whiteSpace=wrap;html=1;fontSize=15;fillColor=#A8DADC;strokeColor=#457B9D;fontColor=#1D3557;labelBackgroundColor=none;" parent="1" vertex="1">
          <mxGeometry x="180.5" y="580" width="41" height="25" as="geometry" />
        </mxCell>
        <mxCell id="jI2HZNCU--r-3EHntsAd-110" value="count：n" style="text;html=1;align=center;verticalAlign=middle;resizable=0;points=[];autosize=1;strokeColor=none;fillColor=none;fontSize=15;fontColor=#1D3557;labelBackgroundColor=none;" parent="1" vertex="1">
          <mxGeometry x="160" y="520" width="80" height="30" as="geometry" />
        </mxCell>
        <mxCell id="jI2HZNCU--r-3EHntsAd-132" value="" style="endArrow=classic;html=1;rounded=0;fontSize=15;exitX=1;exitY=0.5;exitDx=0;exitDy=0;entryX=0;entryY=0.472;entryDx=0;entryDy=0;entryPerimeter=0;labelBackgroundColor=none;strokeColor=#457B9D;fontColor=#1D3557;" parent="1" source="jI2HZNCU--r-3EHntsAd-108" target="jI2HZNCU--r-3EHntsAd-79" edge="1">
          <mxGeometry width="50" height="50" relative="1" as="geometry">
            <mxPoint x="475.5" y="580" as="sourcePoint" />
            <mxPoint x="525.5" y="530" as="targetPoint" />
          </mxGeometry>
        </mxCell>
        <mxCell id="jI2HZNCU--r-3EHntsAd-134" value="" style="endArrow=classic;html=1;rounded=0;fontSize=15;exitX=0.038;exitY=1.01;exitDx=0;exitDy=0;exitPerimeter=0;entryX=0.504;entryY=-0.021;entryDx=0;entryDy=0;entryPerimeter=0;edgeStyle=orthogonalEdgeStyle;curved=1;labelBackgroundColor=none;strokeColor=#457B9D;fontColor=#1D3557;" parent="1" source="jI2HZNCU--r-3EHntsAd-63" target="jI2HZNCU--r-3EHntsAd-82" edge="1">
          <mxGeometry width="50" height="50" relative="1" as="geometry">
            <mxPoint x="450" y="590" as="sourcePoint" />
            <mxPoint x="500" y="540" as="targetPoint" />
          </mxGeometry>
        </mxCell>
        <mxCell id="jI2HZNCU--r-3EHntsAd-135" value="" style="endArrow=classic;html=1;rounded=0;fontSize=15;curved=1;entryX=0.532;entryY=0.002;entryDx=0;entryDy=0;entryPerimeter=0;exitX=0.298;exitY=1.003;exitDx=0;exitDy=0;exitPerimeter=0;edgeStyle=orthogonalEdgeStyle;labelBackgroundColor=none;strokeColor=#457B9D;fontColor=#1D3557;" parent="1" source="jI2HZNCU--r-3EHntsAd-63" target="jI2HZNCU--r-3EHntsAd-94" edge="1">
          <mxGeometry width="50" height="50" relative="1" as="geometry">
            <mxPoint x="430" y="450" as="sourcePoint" />
            <mxPoint x="480" y="400" as="targetPoint" />
          </mxGeometry>
        </mxCell>
        <mxCell id="jI2HZNCU--r-3EHntsAd-138" style="edgeStyle=orthogonalEdgeStyle;curved=1;rounded=0;orthogonalLoop=1;jettySize=auto;html=1;exitX=0.4;exitY=0.1;exitDx=0;exitDy=0;exitPerimeter=0;entryX=0.5;entryY=1;entryDx=0;entryDy=0;fontSize=15;labelBackgroundColor=none;strokeColor=#457B9D;fontColor=#1D3557;" parent="1" source="jI2HZNCU--r-3EHntsAd-136" target="jI2HZNCU--r-3EHntsAd-105" edge="1">
          <mxGeometry relative="1" as="geometry" />
        </mxCell>
        <mxCell id="jI2HZNCU--r-3EHntsAd-136" value="" style="ellipse;shape=cloud;whiteSpace=wrap;html=1;fontSize=15;fillColor=#A8DADC;strokeColor=#457B9D;fontColor=#1D3557;labelBackgroundColor=none;" parent="1" vertex="1">
          <mxGeometry x="140" y="660" width="317" height="120" as="geometry" />
        </mxCell>
        <mxCell id="jI2HZNCU--r-3EHntsAd-137" value="free链表的基节点，&lt;br&gt;包含链表的头节点、尾节点指针&lt;br&gt;以及链表中节点数量等信息" style="text;html=1;align=center;verticalAlign=middle;resizable=0;points=[];autosize=1;strokeColor=none;fillColor=none;fontSize=15;fontColor=#1D3557;labelBackgroundColor=none;" parent="1" vertex="1">
          <mxGeometry x="187.75" y="685" width="230" height="70" as="geometry" />
        </mxCell>
        <mxCell id="jI2HZNCU--r-3EHntsAd-139" value="&lt;font color=&quot;#666666&quot;&gt;free 链表的示意图&lt;/font&gt;" style="text;html=1;align=center;verticalAlign=middle;resizable=0;points=[];autosize=1;strokeColor=none;fillColor=none;fontSize=15;fontColor=#1D3557;labelBackgroundColor=none;" parent="1" vertex="1">
          <mxGeometry x="415.5" y="790" width="140" height="30" as="geometry" />
        </mxCell>
        <mxCell id="jI2HZNCU--r-3EHntsAd-140" value="" style="shape=table;startSize=0;container=1;collapsible=0;childLayout=tableLayout;fontSize=15;fillColor=#A8DADC;strokeColor=#457B9D;fontColor=#1D3557;labelBackgroundColor=none;" parent="1" vertex="1">
          <mxGeometry x="129" y="920" width="530" height="44" as="geometry" />
        </mxCell>
        <mxCell id="jI2HZNCU--r-3EHntsAd-141" value="" style="shape=tableRow;horizontal=0;startSize=0;swimlaneHead=0;swimlaneBody=0;top=0;left=0;bottom=0;right=0;collapsible=0;dropTarget=0;fillColor=none;points=[[0,0.5],[1,0.5]];portConstraint=eastwest;fontSize=15;strokeColor=#457B9D;fontColor=#1D3557;labelBackgroundColor=none;" parent="jI2HZNCU--r-3EHntsAd-140" vertex="1">
          <mxGeometry width="530" height="44" as="geometry" />
        </mxCell>
        <mxCell id="jI2HZNCU--r-3EHntsAd-142" value="控制&lt;br style=&quot;font-size: 15px;&quot;&gt;块" style="shape=partialRectangle;html=1;whiteSpace=wrap;connectable=0;overflow=hidden;fillColor=none;top=0;left=0;bottom=0;right=0;pointerEvents=1;fontSize=15;strokeColor=#457B9D;fontColor=#1D3557;labelBackgroundColor=none;" parent="jI2HZNCU--r-3EHntsAd-141" vertex="1">
          <mxGeometry width="45" height="44" as="geometry">
            <mxRectangle width="45" height="44" as="alternateBounds" />
          </mxGeometry>
        </mxCell>
        <mxCell id="jI2HZNCU--r-3EHntsAd-143" value="控制&lt;br style=&quot;font-size: 15px;&quot;&gt;块" style="shape=partialRectangle;html=1;whiteSpace=wrap;connectable=0;overflow=hidden;fillColor=none;top=0;left=0;bottom=0;right=0;pointerEvents=1;fontSize=15;strokeColor=#457B9D;fontColor=#1D3557;labelBackgroundColor=none;" parent="jI2HZNCU--r-3EHntsAd-141" vertex="1">
          <mxGeometry x="45" width="45" height="44" as="geometry">
            <mxRectangle width="45" height="44" as="alternateBounds" />
          </mxGeometry>
        </mxCell>
        <mxCell id="jI2HZNCU--r-3EHntsAd-144" value="……" style="shape=partialRectangle;html=1;whiteSpace=wrap;connectable=0;overflow=hidden;fillColor=none;top=0;left=0;bottom=0;right=0;pointerEvents=1;fontSize=15;strokeColor=#457B9D;fontColor=#1D3557;labelBackgroundColor=none;" parent="jI2HZNCU--r-3EHntsAd-141" vertex="1">
          <mxGeometry x="90" width="45" height="44" as="geometry">
            <mxRectangle width="45" height="44" as="alternateBounds" />
          </mxGeometry>
        </mxCell>
        <mxCell id="jI2HZNCU--r-3EHntsAd-145" value="&lt;meta charset=&quot;utf-8&quot; style=&quot;font-size: 15px;&quot;&gt;&lt;span style=&quot;color: rgb(0, 0, 0); font-family: Helvetica; font-size: 15px; font-style: normal; font-variant-ligatures: normal; font-variant-caps: normal; font-weight: 400; letter-spacing: normal; orphans: 2; text-align: center; text-indent: 0px; text-transform: none; widows: 2; word-spacing: 0px; -webkit-text-stroke-width: 0px; text-decoration-thickness: initial; text-decoration-style: initial; text-decoration-color: initial; float: none; display: inline !important;&quot;&gt;控制&lt;/span&gt;&lt;br style=&quot;color: rgb(0, 0, 0); font-family: Helvetica; font-size: 15px; font-style: normal; font-variant-ligatures: normal; font-variant-caps: normal; font-weight: 400; letter-spacing: normal; orphans: 2; text-align: center; text-indent: 0px; text-transform: none; widows: 2; word-spacing: 0px; -webkit-text-stroke-width: 0px; text-decoration-thickness: initial; text-decoration-style: initial; text-decoration-color: initial;&quot;&gt;&lt;span style=&quot;color: rgb(0, 0, 0); font-family: Helvetica; font-size: 15px; font-style: normal; font-variant-ligatures: normal; font-variant-caps: normal; font-weight: 400; letter-spacing: normal; orphans: 2; text-align: center; text-indent: 0px; text-transform: none; widows: 2; word-spacing: 0px; -webkit-text-stroke-width: 0px; text-decoration-thickness: initial; text-decoration-style: initial; text-decoration-color: initial; float: none; display: inline !important;&quot;&gt;块&lt;/span&gt;" style="shape=partialRectangle;html=1;whiteSpace=wrap;connectable=0;overflow=hidden;fillColor=none;top=0;left=0;bottom=0;right=0;pointerEvents=1;fontSize=15;strokeColor=#457B9D;fontColor=#1D3557;labelBackgroundColor=none;" parent="jI2HZNCU--r-3EHntsAd-141" vertex="1">
          <mxGeometry x="135" width="45" height="44" as="geometry">
            <mxRectangle width="45" height="44" as="alternateBounds" />
          </mxGeometry>
        </mxCell>
        <mxCell id="jI2HZNCU--r-3EHntsAd-146" value="碎片" style="shape=partialRectangle;html=1;whiteSpace=wrap;connectable=0;overflow=hidden;fillColor=none;top=0;left=0;bottom=0;right=0;pointerEvents=1;fontSize=15;strokeColor=#457B9D;fontColor=#1D3557;labelBackgroundColor=none;" parent="jI2HZNCU--r-3EHntsAd-141" vertex="1">
          <mxGeometry x="180" width="50" height="44" as="geometry">
            <mxRectangle width="50" height="44" as="alternateBounds" />
          </mxGeometry>
        </mxCell>
        <mxCell id="jI2HZNCU--r-3EHntsAd-147" value="缓冲页" style="shape=partialRectangle;html=1;whiteSpace=wrap;connectable=0;overflow=hidden;fillColor=none;top=0;left=0;bottom=0;right=0;pointerEvents=1;fontSize=15;strokeColor=#457B9D;fontColor=#1D3557;labelBackgroundColor=none;" parent="jI2HZNCU--r-3EHntsAd-141" vertex="1">
          <mxGeometry x="230" width="75" height="44" as="geometry">
            <mxRectangle width="75" height="44" as="alternateBounds" />
          </mxGeometry>
        </mxCell>
        <mxCell id="jI2HZNCU--r-3EHntsAd-148" value="&lt;meta charset=&quot;utf-8&quot;&gt;&lt;span style=&quot;color: rgb(0, 0, 0); font-family: Helvetica; font-size: 15px; font-style: normal; font-variant-ligatures: normal; font-variant-caps: normal; font-weight: 400; letter-spacing: normal; orphans: 2; text-align: center; text-indent: 0px; text-transform: none; widows: 2; word-spacing: 0px; -webkit-text-stroke-width: 0px; text-decoration-thickness: initial; text-decoration-style: initial; text-decoration-color: initial; float: none; display: inline !important;&quot;&gt;缓冲页&lt;/span&gt;" style="shape=partialRectangle;html=1;whiteSpace=wrap;connectable=0;overflow=hidden;fillColor=none;top=0;left=0;bottom=0;right=0;pointerEvents=1;fontSize=15;strokeColor=#457B9D;fontColor=#1D3557;labelBackgroundColor=none;" parent="jI2HZNCU--r-3EHntsAd-141" vertex="1">
          <mxGeometry x="305" width="75" height="44" as="geometry">
            <mxRectangle width="75" height="44" as="alternateBounds" />
          </mxGeometry>
        </mxCell>
        <mxCell id="jI2HZNCU--r-3EHntsAd-149" value="……" style="shape=partialRectangle;html=1;whiteSpace=wrap;connectable=0;overflow=hidden;fillColor=none;top=0;left=0;bottom=0;right=0;pointerEvents=1;fontSize=15;strokeColor=#457B9D;fontColor=#1D3557;labelBackgroundColor=none;" parent="jI2HZNCU--r-3EHntsAd-141" vertex="1">
          <mxGeometry x="380" width="75" height="44" as="geometry">
            <mxRectangle width="75" height="44" as="alternateBounds" />
          </mxGeometry>
        </mxCell>
        <mxCell id="jI2HZNCU--r-3EHntsAd-150" value="&lt;meta charset=&quot;utf-8&quot;&gt;&lt;span style=&quot;color: rgb(0, 0, 0); font-family: Helvetica; font-size: 15px; font-style: normal; font-variant-ligatures: normal; font-variant-caps: normal; font-weight: 400; letter-spacing: normal; orphans: 2; text-align: center; text-indent: 0px; text-transform: none; widows: 2; word-spacing: 0px; -webkit-text-stroke-width: 0px; text-decoration-thickness: initial; text-decoration-style: initial; text-decoration-color: initial; float: none; display: inline !important;&quot;&gt;缓冲页&lt;/span&gt;" style="shape=partialRectangle;html=1;whiteSpace=wrap;connectable=0;overflow=hidden;fillColor=none;top=0;left=0;bottom=0;right=0;pointerEvents=1;fontSize=15;strokeColor=#457B9D;fontColor=#1D3557;labelBackgroundColor=none;" parent="jI2HZNCU--r-3EHntsAd-141" vertex="1">
          <mxGeometry x="455" width="75" height="44" as="geometry">
            <mxRectangle width="75" height="44" as="alternateBounds" />
          </mxGeometry>
        </mxCell>
        <mxCell id="jI2HZNCU--r-3EHntsAd-151" value="" style="endArrow=classic;html=1;rounded=0;fontSize=15;exitX=0.128;exitY=1.023;exitDx=0;exitDy=0;exitPerimeter=0;entryX=0.651;entryY=1.003;entryDx=0;entryDy=0;entryPerimeter=0;labelBackgroundColor=none;strokeColor=#457B9D;fontColor=#1D3557;" parent="jI2HZNCU--r-3EHntsAd-140" source="jI2HZNCU--r-3EHntsAd-141" target="jI2HZNCU--r-3EHntsAd-141" edge="1">
          <mxGeometry width="50" height="50" relative="1" as="geometry">
            <mxPoint x="360" y="150" as="sourcePoint" />
            <mxPoint x="410" y="100" as="targetPoint" />
            <Array as="points">
              <mxPoint x="200" y="70" />
              <mxPoint x="340" y="50" />
            </Array>
          </mxGeometry>
        </mxCell>
        <mxCell id="jI2HZNCU--r-3EHntsAd-152" value="" style="endArrow=classic;html=1;rounded=0;fontSize=15;exitX=0.212;exitY=-0.009;exitDx=0;exitDy=0;exitPerimeter=0;entryX=0.784;entryY=0.001;entryDx=0;entryDy=0;entryPerimeter=0;labelBackgroundColor=none;strokeColor=#457B9D;fontColor=#1D3557;" parent="jI2HZNCU--r-3EHntsAd-140" source="jI2HZNCU--r-3EHntsAd-141" target="jI2HZNCU--r-3EHntsAd-141" edge="1">
          <mxGeometry width="50" height="50" relative="1" as="geometry">
            <mxPoint x="360" y="150" as="sourcePoint" />
            <mxPoint x="410" y="100" as="targetPoint" />
            <Array as="points">
              <mxPoint x="260" y="-30" />
              <mxPoint x="410" y="-10" />
            </Array>
          </mxGeometry>
        </mxCell>
        <mxCell id="jI2HZNCU--r-3EHntsAd-153" value="" style="endArrow=classic;html=1;rounded=0;fontSize=15;exitX=0.298;exitY=1.001;exitDx=0;exitDy=0;exitPerimeter=0;entryX=0.93;entryY=1.023;entryDx=0;entryDy=0;entryPerimeter=0;labelBackgroundColor=none;strokeColor=#457B9D;fontColor=#1D3557;" parent="jI2HZNCU--r-3EHntsAd-140" source="jI2HZNCU--r-3EHntsAd-141" target="jI2HZNCU--r-3EHntsAd-141" edge="1">
          <mxGeometry width="50" height="50" relative="1" as="geometry">
            <mxPoint x="360" y="150" as="sourcePoint" />
            <mxPoint x="410" y="100" as="targetPoint" />
            <Array as="points">
              <mxPoint x="330" y="70" />
              <mxPoint x="490" y="50" />
            </Array>
          </mxGeometry>
        </mxCell>
        <mxCell id="jI2HZNCU--r-3EHntsAd-154" value="" style="endArrow=classic;html=1;rounded=0;fontSize=15;entryX=0.504;entryY=-0.008;entryDx=0;entryDy=0;entryPerimeter=0;labelBackgroundColor=none;strokeColor=#457B9D;fontColor=#1D3557;" parent="1" target="jI2HZNCU--r-3EHntsAd-141" edge="1">
          <mxGeometry width="50" height="50" relative="1" as="geometry">
            <mxPoint x="149" y="920" as="sourcePoint" />
            <mxPoint x="199" y="870" as="targetPoint" />
            <Array as="points">
              <mxPoint x="269" y="890" />
              <mxPoint x="389" y="910" />
            </Array>
          </mxGeometry>
        </mxCell>
        <mxCell id="jI2HZNCU--r-3EHntsAd-155" value="Buffer Pool" style="text;html=1;align=center;verticalAlign=middle;resizable=0;points=[];autosize=1;strokeColor=none;fillColor=none;fontSize=15;fontColor=#1D3557;labelBackgroundColor=none;" parent="1" vertex="1">
          <mxGeometry x="659" y="927" width="100" height="30" as="geometry" />
        </mxCell>
        <mxCell id="jI2HZNCU--r-3EHntsAd-156" value="" style="rounded=0;whiteSpace=wrap;html=1;fontSize=15;fillColor=#A8DADC;strokeColor=#457B9D;fontColor=#1D3557;labelBackgroundColor=none;" parent="1" vertex="1">
          <mxGeometry x="244.5" y="1050" width="80" height="90" as="geometry" />
        </mxCell>
        <mxCell id="jI2HZNCU--r-3EHntsAd-157" value="&lt;font color=&quot;#333333&quot;&gt;flush_pre&lt;/font&gt;" style="rounded=0;whiteSpace=wrap;html=1;fontSize=15;fillColor=#A8DADC;strokeColor=#457B9D;fontColor=#1D3557;labelBackgroundColor=none;" parent="1" vertex="1">
          <mxGeometry x="249.5" y="1080" width="70" height="25" as="geometry" />
        </mxCell>
        <mxCell id="jI2HZNCU--r-3EHntsAd-158" value="&lt;font color=&quot;#333333&quot;&gt;flush_next&lt;/font&gt;" style="rounded=0;whiteSpace=wrap;html=1;fontSize=15;fillColor=#A8DADC;strokeColor=#457B9D;fontColor=#1D3557;labelBackgroundColor=none;" parent="1" vertex="1">
          <mxGeometry x="249.5" y="1110" width="70" height="25" as="geometry" />
        </mxCell>
        <mxCell id="jI2HZNCU--r-3EHntsAd-159" value="控制块" style="text;html=1;align=center;verticalAlign=middle;resizable=0;points=[];autosize=1;strokeColor=none;fillColor=none;fontSize=15;fontColor=#1D3557;labelBackgroundColor=none;" parent="1" vertex="1">
          <mxGeometry x="249.5" y="1050" width="70" height="30" as="geometry" />
        </mxCell>
        <mxCell id="jI2HZNCU--r-3EHntsAd-160" value="" style="rounded=0;whiteSpace=wrap;html=1;fontSize=15;fillColor=#A8DADC;strokeColor=#457B9D;fontColor=#1D3557;labelBackgroundColor=none;" parent="1" vertex="1">
          <mxGeometry x="374.5" y="1050" width="80" height="90" as="geometry" />
        </mxCell>
        <mxCell id="jI2HZNCU--r-3EHntsAd-161" value="&lt;meta charset=&quot;utf-8&quot;&gt;&lt;span style=&quot;color: rgb(51, 51, 51); font-family: Helvetica; font-size: 15px; font-style: normal; font-variant-ligatures: normal; font-variant-caps: normal; font-weight: 400; letter-spacing: normal; orphans: 2; text-align: center; text-indent: 0px; text-transform: none; widows: 2; word-spacing: 0px; -webkit-text-stroke-width: 0px; text-decoration-thickness: initial; text-decoration-style: initial; text-decoration-color: initial; float: none; display: inline !important;&quot;&gt;flush_pre&lt;/span&gt;" style="rounded=0;whiteSpace=wrap;html=1;fontSize=15;fillColor=#A8DADC;strokeColor=#457B9D;fontColor=#1D3557;labelBackgroundColor=none;" parent="1" vertex="1">
          <mxGeometry x="379.5" y="1080" width="70" height="25" as="geometry" />
        </mxCell>
        <mxCell id="jI2HZNCU--r-3EHntsAd-162" value="&lt;meta charset=&quot;utf-8&quot;&gt;&lt;span style=&quot;color: rgb(51, 51, 51); font-family: Helvetica; font-size: 15px; font-style: normal; font-variant-ligatures: normal; font-variant-caps: normal; font-weight: 400; letter-spacing: normal; orphans: 2; text-align: center; text-indent: 0px; text-transform: none; widows: 2; word-spacing: 0px; -webkit-text-stroke-width: 0px; text-decoration-thickness: initial; text-decoration-style: initial; text-decoration-color: initial; float: none; display: inline !important;&quot;&gt;flush_next&lt;/span&gt;" style="rounded=0;whiteSpace=wrap;html=1;fontSize=15;fillColor=#A8DADC;strokeColor=#457B9D;fontColor=#1D3557;labelBackgroundColor=none;" parent="1" vertex="1">
          <mxGeometry x="379.5" y="1110" width="70" height="25" as="geometry" />
        </mxCell>
        <mxCell id="jI2HZNCU--r-3EHntsAd-163" value="控制块" style="text;html=1;align=center;verticalAlign=middle;resizable=0;points=[];autosize=1;strokeColor=none;fillColor=none;fontSize=15;fontColor=#1D3557;labelBackgroundColor=none;" parent="1" vertex="1">
          <mxGeometry x="379.5" y="1050" width="70" height="30" as="geometry" />
        </mxCell>
        <mxCell id="jI2HZNCU--r-3EHntsAd-164" value="" style="rounded=0;whiteSpace=wrap;html=1;fontSize=15;fillColor=#A8DADC;strokeColor=#457B9D;fontColor=#1D3557;labelBackgroundColor=none;" parent="1" vertex="1">
          <mxGeometry x="502.5" y="1050" width="80" height="90" as="geometry" />
        </mxCell>
        <mxCell id="jI2HZNCU--r-3EHntsAd-165" value="&lt;meta charset=&quot;utf-8&quot;&gt;&lt;span style=&quot;color: rgb(51, 51, 51); font-family: Helvetica; font-size: 15px; font-style: normal; font-variant-ligatures: normal; font-variant-caps: normal; font-weight: 400; letter-spacing: normal; orphans: 2; text-align: center; text-indent: 0px; text-transform: none; widows: 2; word-spacing: 0px; -webkit-text-stroke-width: 0px; text-decoration-thickness: initial; text-decoration-style: initial; text-decoration-color: initial; float: none; display: inline !important;&quot;&gt;flush_pre&lt;/span&gt;" style="rounded=0;whiteSpace=wrap;html=1;fontSize=15;fillColor=#A8DADC;strokeColor=#457B9D;fontColor=#1D3557;labelBackgroundColor=none;" parent="1" vertex="1">
          <mxGeometry x="507.5" y="1080" width="70" height="25" as="geometry" />
        </mxCell>
        <mxCell id="jI2HZNCU--r-3EHntsAd-166" value="&lt;meta charset=&quot;utf-8&quot;&gt;&lt;span style=&quot;color: rgb(51, 51, 51); font-family: Helvetica; font-size: 15px; font-style: normal; font-variant-ligatures: normal; font-variant-caps: normal; font-weight: 400; letter-spacing: normal; orphans: 2; text-align: center; text-indent: 0px; text-transform: none; widows: 2; word-spacing: 0px; -webkit-text-stroke-width: 0px; text-decoration-thickness: initial; text-decoration-style: initial; text-decoration-color: initial; float: none; display: inline !important;&quot;&gt;flush_next&lt;/span&gt;" style="rounded=0;whiteSpace=wrap;html=1;fontSize=15;fillColor=#A8DADC;strokeColor=#457B9D;fontColor=#1D3557;labelBackgroundColor=none;" parent="1" vertex="1">
          <mxGeometry x="507.5" y="1110" width="70" height="25" as="geometry" />
        </mxCell>
        <mxCell id="jI2HZNCU--r-3EHntsAd-167" value="……" style="text;html=1;align=center;verticalAlign=middle;resizable=0;points=[];autosize=1;strokeColor=none;fillColor=none;fontSize=15;fontColor=#1D3557;labelBackgroundColor=none;" parent="1" vertex="1">
          <mxGeometry x="517.5" y="1050" width="50" height="30" as="geometry" />
        </mxCell>
        <mxCell id="jI2HZNCU--r-3EHntsAd-168" value="" style="rounded=0;whiteSpace=wrap;html=1;fontSize=15;fillColor=#A8DADC;strokeColor=#457B9D;fontColor=#1D3557;labelBackgroundColor=none;" parent="1" vertex="1">
          <mxGeometry x="632.5" y="1050" width="80" height="90" as="geometry" />
        </mxCell>
        <mxCell id="jI2HZNCU--r-3EHntsAd-169" value="&lt;meta charset=&quot;utf-8&quot;&gt;&lt;span style=&quot;color: rgb(51, 51, 51); font-family: Helvetica; font-size: 15px; font-style: normal; font-variant-ligatures: normal; font-variant-caps: normal; font-weight: 400; letter-spacing: normal; orphans: 2; text-align: center; text-indent: 0px; text-transform: none; widows: 2; word-spacing: 0px; -webkit-text-stroke-width: 0px; text-decoration-thickness: initial; text-decoration-style: initial; text-decoration-color: initial; float: none; display: inline !important;&quot;&gt;flush_pre&lt;/span&gt;" style="rounded=0;whiteSpace=wrap;html=1;fontSize=15;fillColor=#A8DADC;strokeColor=#457B9D;fontColor=#1D3557;labelBackgroundColor=none;" parent="1" vertex="1">
          <mxGeometry x="637.5" y="1080" width="70" height="25" as="geometry" />
        </mxCell>
        <mxCell id="jI2HZNCU--r-3EHntsAd-170" value="&lt;meta charset=&quot;utf-8&quot;&gt;&lt;span style=&quot;color: rgb(51, 51, 51); font-family: Helvetica; font-size: 15px; font-style: normal; font-variant-ligatures: normal; font-variant-caps: normal; font-weight: 400; letter-spacing: normal; orphans: 2; text-align: center; text-indent: 0px; text-transform: none; widows: 2; word-spacing: 0px; -webkit-text-stroke-width: 0px; text-decoration-thickness: initial; text-decoration-style: initial; text-decoration-color: initial; float: none; display: inline !important;&quot;&gt;flush_next&lt;/span&gt;" style="rounded=0;whiteSpace=wrap;html=1;fontSize=15;fillColor=#A8DADC;strokeColor=#457B9D;fontColor=#1D3557;labelBackgroundColor=none;" parent="1" vertex="1">
          <mxGeometry x="637.5" y="1110" width="70" height="25" as="geometry" />
        </mxCell>
        <mxCell id="jI2HZNCU--r-3EHntsAd-171" value="控制块" style="text;html=1;align=center;verticalAlign=middle;resizable=0;points=[];autosize=1;strokeColor=none;fillColor=none;fontSize=15;fontColor=#1D3557;labelBackgroundColor=none;" parent="1" vertex="1">
          <mxGeometry x="637.5" y="1050" width="70" height="30" as="geometry" />
        </mxCell>
        <mxCell id="jI2HZNCU--r-3EHntsAd-172" value="" style="endArrow=classic;html=1;rounded=0;fontSize=15;exitX=0;exitY=0.5;exitDx=0;exitDy=0;entryX=1.004;entryY=0.473;entryDx=0;entryDy=0;entryPerimeter=0;labelBackgroundColor=none;strokeColor=#457B9D;fontColor=#1D3557;" parent="1" source="jI2HZNCU--r-3EHntsAd-161" target="jI2HZNCU--r-3EHntsAd-156" edge="1">
          <mxGeometry width="50" height="50" relative="1" as="geometry">
            <mxPoint x="372.5" y="1092.5" as="sourcePoint" />
            <mxPoint x="323.5" y="1093" as="targetPoint" />
          </mxGeometry>
        </mxCell>
        <mxCell id="jI2HZNCU--r-3EHntsAd-173" value="" style="endArrow=classic;html=1;rounded=0;fontSize=15;exitX=1;exitY=0.5;exitDx=0;exitDy=0;labelBackgroundColor=none;strokeColor=#457B9D;fontColor=#1D3557;" parent="1" source="jI2HZNCU--r-3EHntsAd-158" edge="1">
          <mxGeometry width="50" height="50" relative="1" as="geometry">
            <mxPoint x="324.5" y="1122" as="sourcePoint" />
            <mxPoint x="374.5" y="1122" as="targetPoint" />
          </mxGeometry>
        </mxCell>
        <mxCell id="jI2HZNCU--r-3EHntsAd-174" value="" style="endArrow=classic;html=1;rounded=0;fontSize=15;exitX=1;exitY=0.5;exitDx=0;exitDy=0;labelBackgroundColor=none;strokeColor=#457B9D;fontColor=#1D3557;" parent="1" source="jI2HZNCU--r-3EHntsAd-162" edge="1">
          <mxGeometry width="50" height="50" relative="1" as="geometry">
            <mxPoint x="451.5" y="1122.8600000000001" as="sourcePoint" />
            <mxPoint x="502.5" y="1122.1399999999999" as="targetPoint" />
          </mxGeometry>
        </mxCell>
        <mxCell id="jI2HZNCU--r-3EHntsAd-175" value="" style="endArrow=classic;html=1;rounded=0;fontSize=15;exitX=1;exitY=0.5;exitDx=0;exitDy=0;labelBackgroundColor=none;strokeColor=#457B9D;fontColor=#1D3557;" parent="1" edge="1">
          <mxGeometry width="50" height="50" relative="1" as="geometry">
            <mxPoint x="577.5" y="1122.69" as="sourcePoint" />
            <mxPoint x="632.5" y="1122.19" as="targetPoint" />
          </mxGeometry>
        </mxCell>
        <mxCell id="jI2HZNCU--r-3EHntsAd-176" value="" style="endArrow=classic;html=1;rounded=0;fontSize=15;exitX=0;exitY=0.5;exitDx=0;exitDy=0;entryX=0.997;entryY=0.467;entryDx=0;entryDy=0;entryPerimeter=0;labelBackgroundColor=none;strokeColor=#457B9D;fontColor=#1D3557;" parent="1" target="jI2HZNCU--r-3EHntsAd-160" edge="1">
          <mxGeometry width="50" height="50" relative="1" as="geometry">
            <mxPoint x="507.5" y="1092.3600000000001" as="sourcePoint" />
            <mxPoint x="452.81999999999994" y="1092.4299999999998" as="targetPoint" />
          </mxGeometry>
        </mxCell>
        <mxCell id="jI2HZNCU--r-3EHntsAd-177" value="" style="endArrow=classic;html=1;rounded=0;fontSize=15;exitX=0;exitY=0.5;exitDx=0;exitDy=0;entryX=1.004;entryY=0.473;entryDx=0;entryDy=0;entryPerimeter=0;labelBackgroundColor=none;strokeColor=#457B9D;fontColor=#1D3557;" parent="1" edge="1">
          <mxGeometry width="50" height="50" relative="1" as="geometry">
            <mxPoint x="637.1800000000001" y="1092.3400000000001" as="sourcePoint" />
            <mxPoint x="582.5" y="1092.4099999999999" as="targetPoint" />
          </mxGeometry>
        </mxCell>
        <mxCell id="jI2HZNCU--r-3EHntsAd-178" value="" style="rounded=0;whiteSpace=wrap;html=1;fontSize=15;fillColor=#A8DADC;strokeColor=#457B9D;fontColor=#1D3557;labelBackgroundColor=none;" parent="1" vertex="1">
          <mxGeometry x="94.75" y="1050" width="70.5" height="90" as="geometry" />
        </mxCell>
        <mxCell id="jI2HZNCU--r-3EHntsAd-179" value="&lt;font color=&quot;#333333&quot;&gt;start&lt;/font&gt;" style="rounded=0;whiteSpace=wrap;html=1;fontSize=15;fillColor=#A8DADC;strokeColor=#457B9D;fontColor=#1D3557;labelBackgroundColor=none;" parent="1" vertex="1">
          <mxGeometry x="109.5" y="1080" width="41" height="25" as="geometry" />
        </mxCell>
        <mxCell id="jI2HZNCU--r-3EHntsAd-180" style="edgeStyle=orthogonalEdgeStyle;rounded=0;orthogonalLoop=1;jettySize=auto;html=1;exitX=1;exitY=0.5;exitDx=0;exitDy=0;entryX=0.5;entryY=1;entryDx=0;entryDy=0;fontSize=15;labelBackgroundColor=none;strokeColor=#457B9D;fontColor=#1D3557;" parent="1" source="jI2HZNCU--r-3EHntsAd-181" target="jI2HZNCU--r-3EHntsAd-168" edge="1">
          <mxGeometry relative="1" as="geometry">
            <Array as="points">
              <mxPoint x="194.5" y="1123" />
              <mxPoint x="194.5" y="1160" />
              <mxPoint x="672.5" y="1160" />
            </Array>
          </mxGeometry>
        </mxCell>
        <mxCell id="jI2HZNCU--r-3EHntsAd-181" value="&lt;font color=&quot;#333333&quot;&gt;end&lt;/font&gt;" style="rounded=0;whiteSpace=wrap;html=1;fontSize=15;fillColor=#A8DADC;strokeColor=#457B9D;fontColor=#1D3557;labelBackgroundColor=none;" parent="1" vertex="1">
          <mxGeometry x="109.5" y="1110" width="41" height="25" as="geometry" />
        </mxCell>
        <mxCell id="jI2HZNCU--r-3EHntsAd-182" value="count：n" style="text;html=1;align=center;verticalAlign=middle;resizable=0;points=[];autosize=1;strokeColor=none;fillColor=none;fontSize=15;fontColor=#1D3557;labelBackgroundColor=none;" parent="1" vertex="1">
          <mxGeometry x="89" y="1050" width="80" height="30" as="geometry" />
        </mxCell>
        <mxCell id="jI2HZNCU--r-3EHntsAd-183" value="" style="endArrow=classic;html=1;rounded=0;fontSize=15;exitX=1;exitY=0.5;exitDx=0;exitDy=0;entryX=0;entryY=0.472;entryDx=0;entryDy=0;entryPerimeter=0;labelBackgroundColor=none;strokeColor=#457B9D;fontColor=#1D3557;" parent="1" source="jI2HZNCU--r-3EHntsAd-179" target="jI2HZNCU--r-3EHntsAd-156" edge="1">
          <mxGeometry width="50" height="50" relative="1" as="geometry">
            <mxPoint x="404.5" y="1110" as="sourcePoint" />
            <mxPoint x="454.5" y="1060" as="targetPoint" />
          </mxGeometry>
        </mxCell>
        <mxCell id="jI2HZNCU--r-3EHntsAd-184" value="" style="endArrow=classic;html=1;rounded=0;fontSize=15;exitX=0.038;exitY=1.01;exitDx=0;exitDy=0;exitPerimeter=0;entryX=0.504;entryY=-0.021;entryDx=0;entryDy=0;entryPerimeter=0;edgeStyle=orthogonalEdgeStyle;curved=1;labelBackgroundColor=none;strokeColor=#457B9D;fontColor=#1D3557;" parent="1" source="jI2HZNCU--r-3EHntsAd-140" target="jI2HZNCU--r-3EHntsAd-159" edge="1">
          <mxGeometry width="50" height="50" relative="1" as="geometry">
            <mxPoint x="379" y="1120" as="sourcePoint" />
            <mxPoint x="429" y="1070" as="targetPoint" />
          </mxGeometry>
        </mxCell>
        <mxCell id="jI2HZNCU--r-3EHntsAd-185" value="" style="endArrow=classic;html=1;rounded=0;fontSize=15;curved=1;entryX=0.532;entryY=0.002;entryDx=0;entryDy=0;entryPerimeter=0;exitX=0.298;exitY=1.003;exitDx=0;exitDy=0;exitPerimeter=0;edgeStyle=orthogonalEdgeStyle;labelBackgroundColor=none;strokeColor=#457B9D;fontColor=#1D3557;" parent="1" source="jI2HZNCU--r-3EHntsAd-140" target="jI2HZNCU--r-3EHntsAd-171" edge="1">
          <mxGeometry width="50" height="50" relative="1" as="geometry">
            <mxPoint x="359" y="980" as="sourcePoint" />
            <mxPoint x="409" y="930" as="targetPoint" />
          </mxGeometry>
        </mxCell>
        <mxCell id="jI2HZNCU--r-3EHntsAd-186" style="edgeStyle=orthogonalEdgeStyle;curved=1;rounded=0;orthogonalLoop=1;jettySize=auto;html=1;exitX=0.4;exitY=0.1;exitDx=0;exitDy=0;exitPerimeter=0;entryX=0.5;entryY=1;entryDx=0;entryDy=0;fontSize=15;labelBackgroundColor=none;strokeColor=#457B9D;fontColor=#1D3557;" parent="1" source="jI2HZNCU--r-3EHntsAd-187" target="jI2HZNCU--r-3EHntsAd-178" edge="1">
          <mxGeometry relative="1" as="geometry" />
        </mxCell>
        <mxCell id="jI2HZNCU--r-3EHntsAd-187" value="" style="ellipse;shape=cloud;whiteSpace=wrap;html=1;fontSize=15;fillColor=#A8DADC;strokeColor=#457B9D;fontColor=#1D3557;labelBackgroundColor=none;" parent="1" vertex="1">
          <mxGeometry x="69" y="1190" width="317" height="120" as="geometry" />
        </mxCell>
        <mxCell id="jI2HZNCU--r-3EHntsAd-188" value="flush链表的基节点，&lt;br&gt;包含链表的头节点、尾节点指针&lt;br&gt;以及链表中节点数量等信息" style="text;html=1;align=center;verticalAlign=middle;resizable=0;points=[];autosize=1;strokeColor=none;fillColor=none;fontSize=15;fontColor=#1D3557;labelBackgroundColor=none;" parent="1" vertex="1">
          <mxGeometry x="116.75" y="1215" width="230" height="70" as="geometry" />
        </mxCell>
        <mxCell id="jI2HZNCU--r-3EHntsAd-189" value="&lt;font color=&quot;#666666&quot;&gt;flush 链表的&lt;/font&gt;&lt;span style=&quot;color: rgb(102, 102, 102);&quot;&gt;示意图&lt;/span&gt;" style="text;html=1;align=center;verticalAlign=middle;resizable=0;points=[];autosize=1;strokeColor=none;fillColor=none;fontSize=15;fontColor=#1D3557;labelBackgroundColor=none;" parent="1" vertex="1">
          <mxGeometry x="339.5" y="1320" width="150" height="30" as="geometry" />
        </mxCell>
        <mxCell id="jI2HZNCU--r-3EHntsAd-190" value="" style="rounded=0;whiteSpace=wrap;html=1;fontSize=15;fillColor=#A8DADC;strokeColor=#457B9D;fontColor=#1D3557;labelBackgroundColor=none;" parent="1" vertex="1">
          <mxGeometry x="360.5" y="1420" width="80" height="90" as="geometry" />
        </mxCell>
        <mxCell id="jI2HZNCU--r-3EHntsAd-191" value="&lt;font color=&quot;#333333&quot;&gt;pre&lt;/font&gt;" style="rounded=0;whiteSpace=wrap;html=1;fontSize=15;fillColor=#A8DADC;strokeColor=#457B9D;fontColor=#1D3557;labelBackgroundColor=none;" parent="1" vertex="1">
          <mxGeometry x="365.5" y="1450" width="70" height="25" as="geometry" />
        </mxCell>
        <mxCell id="jI2HZNCU--r-3EHntsAd-192" value="&lt;font color=&quot;#333333&quot;&gt;next&lt;/font&gt;" style="rounded=0;whiteSpace=wrap;html=1;fontSize=15;fillColor=#A8DADC;strokeColor=#457B9D;fontColor=#1D3557;labelBackgroundColor=none;" parent="1" vertex="1">
          <mxGeometry x="365.5" y="1480" width="70" height="25" as="geometry" />
        </mxCell>
        <mxCell id="jI2HZNCU--r-3EHntsAd-193" value="控制块" style="text;html=1;align=center;verticalAlign=middle;resizable=0;points=[];autosize=1;strokeColor=none;fillColor=none;fontSize=15;fontColor=#1D3557;labelBackgroundColor=none;" parent="1" vertex="1">
          <mxGeometry x="365.5" y="1420" width="70" height="30" as="geometry" />
        </mxCell>
        <mxCell id="jI2HZNCU--r-3EHntsAd-194" value="" style="rounded=0;whiteSpace=wrap;html=1;fontSize=15;fillColor=#A8DADC;strokeColor=#457B9D;fontColor=#1D3557;labelBackgroundColor=none;" parent="1" vertex="1">
          <mxGeometry x="490.5" y="1420" width="80" height="90" as="geometry" />
        </mxCell>
        <mxCell id="jI2HZNCU--r-3EHntsAd-195" value="&lt;meta charset=&quot;utf-8&quot;&gt;&lt;span style=&quot;color: rgb(51, 51, 51); font-family: Helvetica; font-size: 15px; font-style: normal; font-variant-ligatures: normal; font-variant-caps: normal; font-weight: 400; letter-spacing: normal; orphans: 2; text-align: center; text-indent: 0px; text-transform: none; widows: 2; word-spacing: 0px; -webkit-text-stroke-width: 0px; text-decoration-thickness: initial; text-decoration-style: initial; text-decoration-color: initial; float: none; display: inline !important;&quot;&gt;pre&lt;/span&gt;" style="rounded=0;whiteSpace=wrap;html=1;fontSize=15;fillColor=#A8DADC;strokeColor=#457B9D;fontColor=#1D3557;labelBackgroundColor=none;" parent="1" vertex="1">
          <mxGeometry x="495.5" y="1450" width="70" height="25" as="geometry" />
        </mxCell>
        <mxCell id="jI2HZNCU--r-3EHntsAd-196" value="&lt;meta charset=&quot;utf-8&quot;&gt;&lt;span style=&quot;color: rgb(51, 51, 51); font-family: Helvetica; font-size: 15px; font-style: normal; font-variant-ligatures: normal; font-variant-caps: normal; font-weight: 400; letter-spacing: normal; orphans: 2; text-align: center; text-indent: 0px; text-transform: none; widows: 2; word-spacing: 0px; -webkit-text-stroke-width: 0px; text-decoration-thickness: initial; text-decoration-style: initial; text-decoration-color: initial; float: none; display: inline !important;&quot;&gt;next&lt;/span&gt;" style="rounded=0;whiteSpace=wrap;html=1;fontSize=15;fillColor=#A8DADC;strokeColor=#457B9D;fontColor=#1D3557;labelBackgroundColor=none;" parent="1" vertex="1">
          <mxGeometry x="495.5" y="1480" width="70" height="25" as="geometry" />
        </mxCell>
        <mxCell id="jI2HZNCU--r-3EHntsAd-197" value="控制块" style="text;html=1;align=center;verticalAlign=middle;resizable=0;points=[];autosize=1;strokeColor=none;fillColor=none;fontSize=15;fontColor=#1D3557;labelBackgroundColor=none;" parent="1" vertex="1">
          <mxGeometry x="495.5" y="1420" width="70" height="30" as="geometry" />
        </mxCell>
        <mxCell id="jI2HZNCU--r-3EHntsAd-198" value="" style="rounded=0;whiteSpace=wrap;html=1;fontSize=15;fillColor=#A8DADC;strokeColor=#457B9D;fontColor=#1D3557;labelBackgroundColor=none;" parent="1" vertex="1">
          <mxGeometry x="618.5" y="1420" width="80" height="90" as="geometry" />
        </mxCell>
        <mxCell id="jI2HZNCU--r-3EHntsAd-199" value="&lt;meta charset=&quot;utf-8&quot;&gt;&lt;span style=&quot;color: rgb(51, 51, 51); font-family: Helvetica; font-size: 15px; font-style: normal; font-variant-ligatures: normal; font-variant-caps: normal; font-weight: 400; letter-spacing: normal; orphans: 2; text-align: center; text-indent: 0px; text-transform: none; widows: 2; word-spacing: 0px; -webkit-text-stroke-width: 0px; text-decoration-thickness: initial; text-decoration-style: initial; text-decoration-color: initial; float: none; display: inline !important;&quot;&gt;pre&lt;/span&gt;" style="rounded=0;whiteSpace=wrap;html=1;fontSize=15;fillColor=#A8DADC;strokeColor=#457B9D;fontColor=#1D3557;labelBackgroundColor=none;" parent="1" vertex="1">
          <mxGeometry x="623.5" y="1450" width="70" height="25" as="geometry" />
        </mxCell>
        <mxCell id="jI2HZNCU--r-3EHntsAd-200" value="&lt;meta charset=&quot;utf-8&quot;&gt;&lt;span style=&quot;color: rgb(51, 51, 51); font-family: Helvetica; font-size: 15px; font-style: normal; font-variant-ligatures: normal; font-variant-caps: normal; font-weight: 400; letter-spacing: normal; orphans: 2; text-align: center; text-indent: 0px; text-transform: none; widows: 2; word-spacing: 0px; -webkit-text-stroke-width: 0px; text-decoration-thickness: initial; text-decoration-style: initial; text-decoration-color: initial; float: none; display: inline !important;&quot;&gt;next&lt;/span&gt;" style="rounded=0;whiteSpace=wrap;html=1;fontSize=15;fillColor=#A8DADC;strokeColor=#457B9D;fontColor=#1D3557;labelBackgroundColor=none;" parent="1" vertex="1">
          <mxGeometry x="623.5" y="1480" width="70" height="25" as="geometry" />
        </mxCell>
        <mxCell id="jI2HZNCU--r-3EHntsAd-201" value="……" style="text;html=1;align=center;verticalAlign=middle;resizable=0;points=[];autosize=1;strokeColor=none;fillColor=none;fontSize=15;fontColor=#1D3557;labelBackgroundColor=none;" parent="1" vertex="1">
          <mxGeometry x="633.5" y="1420" width="50" height="30" as="geometry" />
        </mxCell>
        <mxCell id="jI2HZNCU--r-3EHntsAd-202" value="" style="rounded=0;whiteSpace=wrap;html=1;fontSize=15;fillColor=#A8DADC;strokeColor=#457B9D;fontColor=#1D3557;labelBackgroundColor=none;" parent="1" vertex="1">
          <mxGeometry x="748.5" y="1420" width="80" height="90" as="geometry" />
        </mxCell>
        <mxCell id="jI2HZNCU--r-3EHntsAd-203" value="&lt;meta charset=&quot;utf-8&quot;&gt;&lt;span style=&quot;color: rgb(51, 51, 51); font-family: Helvetica; font-size: 15px; font-style: normal; font-variant-ligatures: normal; font-variant-caps: normal; font-weight: 400; letter-spacing: normal; orphans: 2; text-align: center; text-indent: 0px; text-transform: none; widows: 2; word-spacing: 0px; -webkit-text-stroke-width: 0px; text-decoration-thickness: initial; text-decoration-style: initial; text-decoration-color: initial; float: none; display: inline !important;&quot;&gt;pre&lt;/span&gt;" style="rounded=0;whiteSpace=wrap;html=1;fontSize=15;fillColor=#A8DADC;strokeColor=#457B9D;fontColor=#1D3557;labelBackgroundColor=none;" parent="1" vertex="1">
          <mxGeometry x="753.5" y="1450" width="70" height="25" as="geometry" />
        </mxCell>
        <mxCell id="jI2HZNCU--r-3EHntsAd-204" value="&lt;meta charset=&quot;utf-8&quot;&gt;&lt;span style=&quot;color: rgb(51, 51, 51); font-family: Helvetica; font-size: 15px; font-style: normal; font-variant-ligatures: normal; font-variant-caps: normal; font-weight: 400; letter-spacing: normal; orphans: 2; text-align: center; text-indent: 0px; text-transform: none; widows: 2; word-spacing: 0px; -webkit-text-stroke-width: 0px; text-decoration-thickness: initial; text-decoration-style: initial; text-decoration-color: initial; float: none; display: inline !important;&quot;&gt;next&lt;/span&gt;" style="rounded=0;whiteSpace=wrap;html=1;fontSize=15;fillColor=#A8DADC;strokeColor=#457B9D;fontColor=#1D3557;labelBackgroundColor=none;" parent="1" vertex="1">
          <mxGeometry x="753.5" y="1480" width="70" height="25" as="geometry" />
        </mxCell>
        <mxCell id="jI2HZNCU--r-3EHntsAd-205" value="控制块" style="text;html=1;align=center;verticalAlign=middle;resizable=0;points=[];autosize=1;strokeColor=none;fillColor=none;fontSize=15;fontColor=#1D3557;labelBackgroundColor=none;" parent="1" vertex="1">
          <mxGeometry x="753.5" y="1420" width="70" height="30" as="geometry" />
        </mxCell>
        <mxCell id="jI2HZNCU--r-3EHntsAd-206" value="" style="endArrow=classic;html=1;rounded=0;fontSize=15;exitX=0;exitY=0.5;exitDx=0;exitDy=0;entryX=1.004;entryY=0.473;entryDx=0;entryDy=0;entryPerimeter=0;labelBackgroundColor=none;strokeColor=#457B9D;fontColor=#1D3557;" parent="1" source="jI2HZNCU--r-3EHntsAd-195" target="jI2HZNCU--r-3EHntsAd-190" edge="1">
          <mxGeometry width="50" height="50" relative="1" as="geometry">
            <mxPoint x="488.5" y="1462.5" as="sourcePoint" />
            <mxPoint x="439.5" y="1463" as="targetPoint" />
          </mxGeometry>
        </mxCell>
        <mxCell id="jI2HZNCU--r-3EHntsAd-207" value="" style="endArrow=classic;html=1;rounded=0;fontSize=15;exitX=1;exitY=0.5;exitDx=0;exitDy=0;labelBackgroundColor=none;strokeColor=#457B9D;fontColor=#1D3557;" parent="1" source="jI2HZNCU--r-3EHntsAd-192" edge="1">
          <mxGeometry width="50" height="50" relative="1" as="geometry">
            <mxPoint x="440.5" y="1492" as="sourcePoint" />
            <mxPoint x="490.5" y="1492" as="targetPoint" />
          </mxGeometry>
        </mxCell>
        <mxCell id="jI2HZNCU--r-3EHntsAd-208" value="" style="endArrow=classic;html=1;rounded=0;fontSize=15;exitX=1;exitY=0.5;exitDx=0;exitDy=0;labelBackgroundColor=none;strokeColor=#457B9D;fontColor=#1D3557;" parent="1" source="jI2HZNCU--r-3EHntsAd-196" edge="1">
          <mxGeometry width="50" height="50" relative="1" as="geometry">
            <mxPoint x="567.5" y="1492.8600000000001" as="sourcePoint" />
            <mxPoint x="618.5" y="1492.1399999999999" as="targetPoint" />
          </mxGeometry>
        </mxCell>
        <mxCell id="jI2HZNCU--r-3EHntsAd-209" value="" style="endArrow=classic;html=1;rounded=0;fontSize=15;exitX=1;exitY=0.5;exitDx=0;exitDy=0;labelBackgroundColor=none;strokeColor=#457B9D;fontColor=#1D3557;" parent="1" edge="1">
          <mxGeometry width="50" height="50" relative="1" as="geometry">
            <mxPoint x="693.5" y="1492.69" as="sourcePoint" />
            <mxPoint x="748.5" y="1492.19" as="targetPoint" />
          </mxGeometry>
        </mxCell>
        <mxCell id="jI2HZNCU--r-3EHntsAd-210" value="" style="endArrow=classic;html=1;rounded=0;fontSize=15;exitX=0;exitY=0.5;exitDx=0;exitDy=0;entryX=0.997;entryY=0.467;entryDx=0;entryDy=0;entryPerimeter=0;labelBackgroundColor=none;strokeColor=#457B9D;fontColor=#1D3557;" parent="1" target="jI2HZNCU--r-3EHntsAd-194" edge="1">
          <mxGeometry width="50" height="50" relative="1" as="geometry">
            <mxPoint x="623.5" y="1462.3600000000001" as="sourcePoint" />
            <mxPoint x="568.8199999999999" y="1462.4299999999998" as="targetPoint" />
          </mxGeometry>
        </mxCell>
        <mxCell id="jI2HZNCU--r-3EHntsAd-211" value="" style="endArrow=classic;html=1;rounded=0;fontSize=15;exitX=0;exitY=0.5;exitDx=0;exitDy=0;entryX=1.004;entryY=0.473;entryDx=0;entryDy=0;entryPerimeter=0;labelBackgroundColor=none;strokeColor=#457B9D;fontColor=#1D3557;" parent="1" edge="1">
          <mxGeometry width="50" height="50" relative="1" as="geometry">
            <mxPoint x="753.1800000000001" y="1462.3400000000001" as="sourcePoint" />
            <mxPoint x="698.5" y="1462.4099999999999" as="targetPoint" />
          </mxGeometry>
        </mxCell>
        <mxCell id="jI2HZNCU--r-3EHntsAd-212" value="" style="rounded=0;whiteSpace=wrap;html=1;fontSize=15;fillColor=#A8DADC;strokeColor=#457B9D;fontColor=#1D3557;labelBackgroundColor=none;" parent="1" vertex="1">
          <mxGeometry x="883" y="1420" width="80" height="90" as="geometry" />
        </mxCell>
        <mxCell id="jI2HZNCU--r-3EHntsAd-213" value="&lt;meta charset=&quot;utf-8&quot;&gt;&lt;span style=&quot;color: rgb(51, 51, 51); font-family: Helvetica; font-size: 15px; font-style: normal; font-variant-ligatures: normal; font-variant-caps: normal; font-weight: 400; letter-spacing: normal; orphans: 2; text-align: center; text-indent: 0px; text-transform: none; widows: 2; word-spacing: 0px; -webkit-text-stroke-width: 0px; text-decoration-thickness: initial; text-decoration-style: initial; text-decoration-color: initial; float: none; display: inline !important;&quot;&gt;pre&lt;/span&gt;" style="rounded=0;whiteSpace=wrap;html=1;fontSize=15;fillColor=#A8DADC;strokeColor=#457B9D;fontColor=#1D3557;labelBackgroundColor=none;" parent="1" vertex="1">
          <mxGeometry x="888" y="1450" width="70" height="25" as="geometry" />
        </mxCell>
        <mxCell id="jI2HZNCU--r-3EHntsAd-214" value="&lt;meta charset=&quot;utf-8&quot;&gt;&lt;span style=&quot;color: rgb(51, 51, 51); font-family: Helvetica; font-size: 15px; font-style: normal; font-variant-ligatures: normal; font-variant-caps: normal; font-weight: 400; letter-spacing: normal; orphans: 2; text-align: center; text-indent: 0px; text-transform: none; widows: 2; word-spacing: 0px; -webkit-text-stroke-width: 0px; text-decoration-thickness: initial; text-decoration-style: initial; text-decoration-color: initial; float: none; display: inline !important;&quot;&gt;next&lt;/span&gt;" style="rounded=0;whiteSpace=wrap;html=1;fontSize=15;fillColor=#A8DADC;strokeColor=#457B9D;fontColor=#1D3557;labelBackgroundColor=none;" parent="1" vertex="1">
          <mxGeometry x="888" y="1480" width="70" height="25" as="geometry" />
        </mxCell>
        <mxCell id="jI2HZNCU--r-3EHntsAd-215" value="控制块" style="text;html=1;align=center;verticalAlign=middle;resizable=0;points=[];autosize=1;strokeColor=none;fillColor=none;fontSize=15;fontColor=#1D3557;labelBackgroundColor=none;" parent="1" vertex="1">
          <mxGeometry x="888" y="1420" width="70" height="30" as="geometry" />
        </mxCell>
        <mxCell id="jI2HZNCU--r-3EHntsAd-216" value="" style="rounded=0;whiteSpace=wrap;html=1;fontSize=15;fillColor=#A8DADC;strokeColor=#457B9D;fontColor=#1D3557;labelBackgroundColor=none;" parent="1" vertex="1">
          <mxGeometry x="1011" y="1420" width="80" height="90" as="geometry" />
        </mxCell>
        <mxCell id="jI2HZNCU--r-3EHntsAd-217" value="&lt;meta charset=&quot;utf-8&quot;&gt;&lt;span style=&quot;color: rgb(51, 51, 51); font-family: Helvetica; font-size: 15px; font-style: normal; font-variant-ligatures: normal; font-variant-caps: normal; font-weight: 400; letter-spacing: normal; orphans: 2; text-align: center; text-indent: 0px; text-transform: none; widows: 2; word-spacing: 0px; -webkit-text-stroke-width: 0px; text-decoration-thickness: initial; text-decoration-style: initial; text-decoration-color: initial; float: none; display: inline !important;&quot;&gt;pre&lt;/span&gt;" style="rounded=0;whiteSpace=wrap;html=1;fontSize=15;fillColor=#A8DADC;strokeColor=#457B9D;fontColor=#1D3557;labelBackgroundColor=none;" parent="1" vertex="1">
          <mxGeometry x="1016" y="1450" width="70" height="25" as="geometry" />
        </mxCell>
        <mxCell id="jI2HZNCU--r-3EHntsAd-218" value="&lt;meta charset=&quot;utf-8&quot;&gt;&lt;span style=&quot;color: rgb(51, 51, 51); font-family: Helvetica; font-size: 15px; font-style: normal; font-variant-ligatures: normal; font-variant-caps: normal; font-weight: 400; letter-spacing: normal; orphans: 2; text-align: center; text-indent: 0px; text-transform: none; widows: 2; word-spacing: 0px; -webkit-text-stroke-width: 0px; text-decoration-thickness: initial; text-decoration-style: initial; text-decoration-color: initial; float: none; display: inline !important;&quot;&gt;next&lt;/span&gt;" style="rounded=0;whiteSpace=wrap;html=1;fontSize=15;fillColor=#A8DADC;strokeColor=#457B9D;fontColor=#1D3557;labelBackgroundColor=none;" parent="1" vertex="1">
          <mxGeometry x="1016" y="1480" width="70" height="25" as="geometry" />
        </mxCell>
        <mxCell id="jI2HZNCU--r-3EHntsAd-219" value="……" style="text;html=1;align=center;verticalAlign=middle;resizable=0;points=[];autosize=1;strokeColor=none;fillColor=none;fontSize=15;fontColor=#1D3557;labelBackgroundColor=none;" parent="1" vertex="1">
          <mxGeometry x="1026" y="1420" width="50" height="30" as="geometry" />
        </mxCell>
        <mxCell id="jI2HZNCU--r-3EHntsAd-220" value="" style="rounded=0;whiteSpace=wrap;html=1;fontSize=15;fillColor=#A8DADC;strokeColor=#457B9D;fontColor=#1D3557;labelBackgroundColor=none;" parent="1" vertex="1">
          <mxGeometry x="1141" y="1420" width="80" height="90" as="geometry" />
        </mxCell>
        <mxCell id="jI2HZNCU--r-3EHntsAd-221" value="&lt;meta charset=&quot;utf-8&quot;&gt;&lt;span style=&quot;color: rgb(51, 51, 51); font-family: Helvetica; font-size: 15px; font-style: normal; font-variant-ligatures: normal; font-variant-caps: normal; font-weight: 400; letter-spacing: normal; orphans: 2; text-align: center; text-indent: 0px; text-transform: none; widows: 2; word-spacing: 0px; -webkit-text-stroke-width: 0px; text-decoration-thickness: initial; text-decoration-style: initial; text-decoration-color: initial; float: none; display: inline !important;&quot;&gt;pre&lt;/span&gt;" style="rounded=0;whiteSpace=wrap;html=1;fontSize=15;fillColor=#A8DADC;strokeColor=#457B9D;fontColor=#1D3557;labelBackgroundColor=none;" parent="1" vertex="1">
          <mxGeometry x="1146" y="1450" width="70" height="25" as="geometry" />
        </mxCell>
        <mxCell id="jI2HZNCU--r-3EHntsAd-222" value="&lt;meta charset=&quot;utf-8&quot;&gt;&lt;span style=&quot;color: rgb(51, 51, 51); font-family: Helvetica; font-size: 15px; font-style: normal; font-variant-ligatures: normal; font-variant-caps: normal; font-weight: 400; letter-spacing: normal; orphans: 2; text-align: center; text-indent: 0px; text-transform: none; widows: 2; word-spacing: 0px; -webkit-text-stroke-width: 0px; text-decoration-thickness: initial; text-decoration-style: initial; text-decoration-color: initial; float: none; display: inline !important;&quot;&gt;next&lt;/span&gt;" style="rounded=0;whiteSpace=wrap;html=1;fontSize=15;fillColor=#A8DADC;strokeColor=#457B9D;fontColor=#1D3557;labelBackgroundColor=none;" parent="1" vertex="1">
          <mxGeometry x="1146" y="1480" width="70" height="25" as="geometry" />
        </mxCell>
        <mxCell id="jI2HZNCU--r-3EHntsAd-223" value="控制块" style="text;html=1;align=center;verticalAlign=middle;resizable=0;points=[];autosize=1;strokeColor=none;fillColor=none;fontSize=15;fontColor=#1D3557;labelBackgroundColor=none;" parent="1" vertex="1">
          <mxGeometry x="1146" y="1420" width="70" height="30" as="geometry" />
        </mxCell>
        <mxCell id="jI2HZNCU--r-3EHntsAd-224" value="" style="endArrow=classic;html=1;rounded=0;fontSize=15;exitX=0;exitY=0.5;exitDx=0;exitDy=0;labelBackgroundColor=none;strokeColor=#457B9D;fontColor=#1D3557;" parent="1" source="jI2HZNCU--r-3EHntsAd-213" edge="1">
          <mxGeometry width="50" height="50" relative="1" as="geometry">
            <mxPoint x="881" y="1462.5" as="sourcePoint" />
            <mxPoint x="829" y="1463" as="targetPoint" />
          </mxGeometry>
        </mxCell>
        <mxCell id="jI2HZNCU--r-3EHntsAd-225" value="" style="endArrow=classic;html=1;rounded=0;fontSize=15;exitX=1;exitY=0.5;exitDx=0;exitDy=0;labelBackgroundColor=none;strokeColor=#457B9D;fontColor=#1D3557;" parent="1" edge="1">
          <mxGeometry width="50" height="50" relative="1" as="geometry">
            <mxPoint x="828" y="1492.5" as="sourcePoint" />
            <mxPoint x="883.0000000000002" y="1492" as="targetPoint" />
          </mxGeometry>
        </mxCell>
        <mxCell id="jI2HZNCU--r-3EHntsAd-226" value="" style="endArrow=classic;html=1;rounded=0;fontSize=15;exitX=1;exitY=0.5;exitDx=0;exitDy=0;labelBackgroundColor=none;strokeColor=#457B9D;fontColor=#1D3557;" parent="1" source="jI2HZNCU--r-3EHntsAd-214" edge="1">
          <mxGeometry width="50" height="50" relative="1" as="geometry">
            <mxPoint x="960" y="1492.8600000000001" as="sourcePoint" />
            <mxPoint x="1011" y="1492.1399999999999" as="targetPoint" />
          </mxGeometry>
        </mxCell>
        <mxCell id="jI2HZNCU--r-3EHntsAd-227" value="" style="endArrow=classic;html=1;rounded=0;fontSize=15;exitX=1;exitY=0.5;exitDx=0;exitDy=0;labelBackgroundColor=none;strokeColor=#457B9D;fontColor=#1D3557;" parent="1" edge="1">
          <mxGeometry width="50" height="50" relative="1" as="geometry">
            <mxPoint x="1086" y="1492.69" as="sourcePoint" />
            <mxPoint x="1141" y="1492.19" as="targetPoint" />
          </mxGeometry>
        </mxCell>
        <mxCell id="jI2HZNCU--r-3EHntsAd-228" value="" style="endArrow=classic;html=1;rounded=0;fontSize=15;exitX=0;exitY=0.5;exitDx=0;exitDy=0;entryX=0.997;entryY=0.467;entryDx=0;entryDy=0;entryPerimeter=0;labelBackgroundColor=none;strokeColor=#457B9D;fontColor=#1D3557;" parent="1" target="jI2HZNCU--r-3EHntsAd-212" edge="1">
          <mxGeometry width="50" height="50" relative="1" as="geometry">
            <mxPoint x="1016" y="1462.3600000000001" as="sourcePoint" />
            <mxPoint x="961.3199999999999" y="1462.4299999999998" as="targetPoint" />
          </mxGeometry>
        </mxCell>
        <mxCell id="jI2HZNCU--r-3EHntsAd-229" value="" style="endArrow=classic;html=1;rounded=0;fontSize=15;exitX=0;exitY=0.5;exitDx=0;exitDy=0;entryX=1.004;entryY=0.473;entryDx=0;entryDy=0;entryPerimeter=0;labelBackgroundColor=none;strokeColor=#457B9D;fontColor=#1D3557;" parent="1" edge="1">
          <mxGeometry width="50" height="50" relative="1" as="geometry">
            <mxPoint x="1145.6800000000003" y="1462.3400000000001" as="sourcePoint" />
            <mxPoint x="1091" y="1462.4099999999999" as="targetPoint" />
          </mxGeometry>
        </mxCell>
        <mxCell id="jI2HZNCU--r-3EHntsAd-231" value="" style="rounded=0;whiteSpace=wrap;html=1;fontSize=15;fillColor=#A8DADC;strokeColor=#457B9D;fontColor=#1D3557;labelBackgroundColor=none;" parent="1" vertex="1">
          <mxGeometry x="205.75" y="1420" width="70.5" height="90" as="geometry" />
        </mxCell>
        <mxCell id="jI2HZNCU--r-3EHntsAd-232" value="&lt;font color=&quot;#333333&quot;&gt;start&lt;/font&gt;" style="rounded=0;whiteSpace=wrap;html=1;fontSize=15;fillColor=#A8DADC;strokeColor=#457B9D;fontColor=#1D3557;labelBackgroundColor=none;" parent="1" vertex="1">
          <mxGeometry x="220.5" y="1450" width="41" height="25" as="geometry" />
        </mxCell>
        <mxCell id="jI2HZNCU--r-3EHntsAd-242" style="edgeStyle=orthogonalEdgeStyle;rounded=0;orthogonalLoop=1;jettySize=auto;html=1;exitX=1;exitY=0.5;exitDx=0;exitDy=0;fontSize=15;entryX=1;entryY=0.5;entryDx=0;entryDy=0;labelBackgroundColor=none;strokeColor=#457B9D;fontColor=#1D3557;" parent="1" source="jI2HZNCU--r-3EHntsAd-233" target="jI2HZNCU--r-3EHntsAd-220" edge="1">
          <mxGeometry relative="1" as="geometry">
            <mxPoint x="709" y="1662.7029914529912" as="targetPoint" />
            <Array as="points">
              <mxPoint x="299" y="1492" />
              <mxPoint x="299" y="1590" />
              <mxPoint x="1249" y="1590" />
              <mxPoint x="1249" y="1465" />
            </Array>
          </mxGeometry>
        </mxCell>
        <mxCell id="jI2HZNCU--r-3EHntsAd-233" value="&lt;font color=&quot;#333333&quot;&gt;end&lt;/font&gt;" style="rounded=0;whiteSpace=wrap;html=1;fontSize=15;fillColor=#A8DADC;strokeColor=#457B9D;fontColor=#1D3557;labelBackgroundColor=none;" parent="1" vertex="1">
          <mxGeometry x="220.5" y="1480" width="41" height="25" as="geometry" />
        </mxCell>
        <mxCell id="jI2HZNCU--r-3EHntsAd-234" value="count：n" style="text;html=1;align=center;verticalAlign=middle;resizable=0;points=[];autosize=1;strokeColor=none;fillColor=none;fontSize=15;fontColor=#1D3557;labelBackgroundColor=none;" parent="1" vertex="1">
          <mxGeometry x="200" y="1420" width="80" height="30" as="geometry" />
        </mxCell>
        <mxCell id="jI2HZNCU--r-3EHntsAd-236" value="" style="endArrow=classic;html=1;rounded=0;fontSize=15;labelBackgroundColor=none;strokeColor=#457B9D;fontColor=#1D3557;" parent="1" edge="1">
          <mxGeometry width="50" height="50" relative="1" as="geometry">
            <mxPoint x="261.5" y="1462.39" as="sourcePoint" />
            <mxPoint x="359" y="1462" as="targetPoint" />
          </mxGeometry>
        </mxCell>
        <mxCell id="jI2HZNCU--r-3EHntsAd-237" value="" style="shape=curlyBracket;whiteSpace=wrap;html=1;rounded=1;flipH=1;labelPosition=right;verticalLabelPosition=middle;align=left;verticalAlign=middle;fontSize=15;rotation=90;fillColor=#A8DADC;strokeColor=#457B9D;fontColor=#1D3557;labelBackgroundColor=none;" parent="1" vertex="1">
          <mxGeometry x="581.29" y="1302.22" width="25.12" height="470.69" as="geometry" />
        </mxCell>
        <mxCell id="jI2HZNCU--r-3EHntsAd-238" value="" style="shape=curlyBracket;whiteSpace=wrap;html=1;rounded=1;flipH=1;labelPosition=right;verticalLabelPosition=middle;align=left;verticalAlign=middle;fontSize=15;rotation=90;fillColor=#A8DADC;strokeColor=#457B9D;fontColor=#1D3557;labelBackgroundColor=none;" parent="1" vertex="1">
          <mxGeometry x="1040.46" y="1364.77" width="25.13" height="345.61" as="geometry" />
        </mxCell>
        <mxCell id="jI2HZNCU--r-3EHntsAd-239" value="热数据（young区域）" style="text;html=1;align=center;verticalAlign=middle;resizable=0;points=[];autosize=1;strokeColor=none;fillColor=none;fontSize=15;fontColor=#1D3557;labelBackgroundColor=none;" parent="1" vertex="1">
          <mxGeometry x="508.85" y="1550" width="170" height="30" as="geometry" />
        </mxCell>
        <mxCell id="jI2HZNCU--r-3EHntsAd-240" value="冷数据（old区域）" style="text;html=1;align=center;verticalAlign=middle;resizable=0;points=[];autosize=1;strokeColor=none;fillColor=none;fontSize=15;fontColor=#1D3557;labelBackgroundColor=none;" parent="1" vertex="1">
          <mxGeometry x="978.03" y="1550" width="150" height="30" as="geometry" />
        </mxCell>
        <mxCell id="jI2HZNCU--r-3EHntsAd-243" style="edgeStyle=orthogonalEdgeStyle;curved=1;rounded=0;orthogonalLoop=1;jettySize=auto;html=1;exitX=0.4;exitY=0.1;exitDx=0;exitDy=0;exitPerimeter=0;entryX=0.5;entryY=1;entryDx=0;entryDy=0;fontSize=15;labelBackgroundColor=none;strokeColor=#457B9D;fontColor=#1D3557;" parent="1" source="jI2HZNCU--r-3EHntsAd-244" target="jI2HZNCU--r-3EHntsAd-231" edge="1">
          <mxGeometry relative="1" as="geometry">
            <mxPoint x="102.50000000000023" y="1530" as="targetPoint" />
          </mxGeometry>
        </mxCell>
        <mxCell id="jI2HZNCU--r-3EHntsAd-244" value="" style="ellipse;shape=cloud;whiteSpace=wrap;html=1;fontSize=15;fillColor=#A8DADC;strokeColor=#457B9D;fontColor=#1D3557;labelBackgroundColor=none;" parent="1" vertex="1">
          <mxGeometry x="41.5" y="1580" width="317" height="120" as="geometry" />
        </mxCell>
        <mxCell id="jI2HZNCU--r-3EHntsAd-245" value="LRU链表的基节点，&lt;br&gt;包含链表的头节点、尾节点指针&lt;br&gt;以及链表中节点数量等信息" style="text;html=1;align=center;verticalAlign=middle;resizable=0;points=[];autosize=1;strokeColor=none;fillColor=none;fontSize=15;fontColor=#1D3557;labelBackgroundColor=none;" parent="1" vertex="1">
          <mxGeometry x="89.25" y="1605" width="230" height="70" as="geometry" />
        </mxCell>
        <mxCell id="jI2HZNCU--r-3EHntsAd-246" value="&lt;font color=&quot;#666666&quot;&gt;LRU 链表的&lt;/font&gt;&lt;span style=&quot;color: rgb(102, 102, 102);&quot;&gt;示意图&lt;/span&gt;" style="text;html=1;align=center;verticalAlign=middle;resizable=0;points=[];autosize=1;strokeColor=none;fillColor=none;fontSize=15;fontColor=#1D3557;labelBackgroundColor=none;" parent="1" vertex="1">
          <mxGeometry x="668.5" y="1700" width="150" height="30" as="geometry" />
        </mxCell>
        <mxCell id="jI2HZNCU--r-3EHntsAd-259" value="" style="rounded=0;whiteSpace=wrap;html=1;fontSize=15;fillColor=#A8DADC;strokeColor=#457B9D;fontColor=#1D3557;labelBackgroundColor=none;" parent="1" vertex="1">
          <mxGeometry x="221.25" y="2133" width="70.5" height="90" as="geometry" />
        </mxCell>
        <mxCell id="jI2HZNCU--r-3EHntsAd-264" style="edgeStyle=orthogonalEdgeStyle;rounded=0;orthogonalLoop=1;jettySize=auto;html=1;exitX=1;exitY=0.5;exitDx=0;exitDy=0;fontSize=15;labelBackgroundColor=none;strokeColor=#457B9D;fontColor=#1D3557;" parent="1" source="jI2HZNCU--r-3EHntsAd-260" edge="1">
          <mxGeometry relative="1" as="geometry">
            <mxPoint x="304.0000000000001" y="2175.483870967742" as="targetPoint" />
          </mxGeometry>
        </mxCell>
        <mxCell id="jI2HZNCU--r-3EHntsAd-260" value="&lt;font color=&quot;#333333&quot;&gt;start&lt;/font&gt;" style="rounded=0;whiteSpace=wrap;html=1;fontSize=15;fillColor=#A8DADC;strokeColor=#457B9D;fontColor=#1D3557;labelBackgroundColor=none;" parent="1" vertex="1">
          <mxGeometry x="236" y="2163" width="41" height="25" as="geometry" />
        </mxCell>
        <mxCell id="jI2HZNCU--r-3EHntsAd-266" style="edgeStyle=orthogonalEdgeStyle;rounded=0;orthogonalLoop=1;jettySize=auto;html=1;exitX=1;exitY=0.5;exitDx=0;exitDy=0;fontSize=15;labelBackgroundColor=none;strokeColor=#457B9D;fontColor=#1D3557;" parent="1" source="jI2HZNCU--r-3EHntsAd-261" edge="1">
          <mxGeometry relative="1" as="geometry">
            <mxPoint x="304" y="2205" as="targetPoint" />
          </mxGeometry>
        </mxCell>
        <mxCell id="jI2HZNCU--r-3EHntsAd-261" value="&lt;font color=&quot;#333333&quot;&gt;end&lt;/font&gt;" style="rounded=0;whiteSpace=wrap;html=1;fontSize=15;fillColor=#A8DADC;strokeColor=#457B9D;fontColor=#1D3557;labelBackgroundColor=none;" parent="1" vertex="1">
          <mxGeometry x="236" y="2193" width="41" height="25" as="geometry" />
        </mxCell>
        <mxCell id="jI2HZNCU--r-3EHntsAd-262" value="count：n" style="text;html=1;align=center;verticalAlign=middle;resizable=0;points=[];autosize=1;strokeColor=none;fillColor=none;fontSize=15;fontColor=#1D3557;labelBackgroundColor=none;" parent="1" vertex="1">
          <mxGeometry x="215.5" y="2133" width="80" height="30" as="geometry" />
        </mxCell>
        <mxCell id="jI2HZNCU--r-3EHntsAd-267" value="……" style="text;html=1;align=center;verticalAlign=middle;resizable=0;points=[];autosize=1;strokeColor=none;fillColor=none;fontSize=15;fontColor=#1D3557;labelBackgroundColor=none;" parent="1" vertex="1">
          <mxGeometry x="310.25" y="2173" width="50" height="30" as="geometry" />
        </mxCell>
        <mxCell id="jI2HZNCU--r-3EHntsAd-268" value="&lt;font color=&quot;#666666&quot;&gt;free链表&lt;/font&gt;" style="text;html=1;align=center;verticalAlign=middle;resizable=0;points=[];autosize=1;strokeColor=none;fillColor=none;fontSize=15;fontColor=#1D3557;labelBackgroundColor=none;" parent="1" vertex="1">
          <mxGeometry x="254.5" y="2233" width="80" height="30" as="geometry" />
        </mxCell>
        <mxCell id="jI2HZNCU--r-3EHntsAd-269" value="" style="rounded=0;whiteSpace=wrap;html=1;fontSize=15;fillColor=#A8DADC;strokeColor=#457B9D;fontColor=#1D3557;labelBackgroundColor=none;" parent="1" vertex="1">
          <mxGeometry x="384.5" y="2133" width="70.5" height="90" as="geometry" />
        </mxCell>
        <mxCell id="jI2HZNCU--r-3EHntsAd-270" style="edgeStyle=orthogonalEdgeStyle;rounded=0;orthogonalLoop=1;jettySize=auto;html=1;exitX=1;exitY=0.5;exitDx=0;exitDy=0;fontSize=15;labelBackgroundColor=none;strokeColor=#457B9D;fontColor=#1D3557;" parent="1" source="jI2HZNCU--r-3EHntsAd-271" edge="1">
          <mxGeometry relative="1" as="geometry">
            <mxPoint x="467.25" y="2175.483870967742" as="targetPoint" />
          </mxGeometry>
        </mxCell>
        <mxCell id="jI2HZNCU--r-3EHntsAd-271" value="&lt;font color=&quot;#333333&quot;&gt;start&lt;/font&gt;" style="rounded=0;whiteSpace=wrap;html=1;fontSize=15;fillColor=#A8DADC;strokeColor=#457B9D;fontColor=#1D3557;labelBackgroundColor=none;" parent="1" vertex="1">
          <mxGeometry x="399.25" y="2163" width="41" height="25" as="geometry" />
        </mxCell>
        <mxCell id="jI2HZNCU--r-3EHntsAd-272" style="edgeStyle=orthogonalEdgeStyle;rounded=0;orthogonalLoop=1;jettySize=auto;html=1;exitX=1;exitY=0.5;exitDx=0;exitDy=0;fontSize=15;labelBackgroundColor=none;strokeColor=#457B9D;fontColor=#1D3557;" parent="1" source="jI2HZNCU--r-3EHntsAd-273" edge="1">
          <mxGeometry relative="1" as="geometry">
            <mxPoint x="467.25" y="2205" as="targetPoint" />
          </mxGeometry>
        </mxCell>
        <mxCell id="jI2HZNCU--r-3EHntsAd-273" value="&lt;font color=&quot;#333333&quot;&gt;end&lt;/font&gt;" style="rounded=0;whiteSpace=wrap;html=1;fontSize=15;fillColor=#A8DADC;strokeColor=#457B9D;fontColor=#1D3557;labelBackgroundColor=none;" parent="1" vertex="1">
          <mxGeometry x="399.25" y="2193" width="41" height="25" as="geometry" />
        </mxCell>
        <mxCell id="jI2HZNCU--r-3EHntsAd-274" value="count：n" style="text;html=1;align=center;verticalAlign=middle;resizable=0;points=[];autosize=1;strokeColor=none;fillColor=none;fontSize=15;fontColor=#1D3557;labelBackgroundColor=none;" parent="1" vertex="1">
          <mxGeometry x="378.75" y="2133" width="80" height="30" as="geometry" />
        </mxCell>
        <mxCell id="jI2HZNCU--r-3EHntsAd-275" value="……" style="text;html=1;align=center;verticalAlign=middle;resizable=0;points=[];autosize=1;strokeColor=none;fillColor=none;fontSize=15;fontColor=#1D3557;labelBackgroundColor=none;" parent="1" vertex="1">
          <mxGeometry x="473.5" y="2173" width="50" height="30" as="geometry" />
        </mxCell>
        <mxCell id="jI2HZNCU--r-3EHntsAd-276" value="&lt;font color=&quot;#666666&quot;&gt;flush链表&lt;/font&gt;" style="text;html=1;align=center;verticalAlign=middle;resizable=0;points=[];autosize=1;strokeColor=none;fillColor=none;fontSize=15;fontColor=#1D3557;labelBackgroundColor=none;" parent="1" vertex="1">
          <mxGeometry x="412.75" y="2233" width="90" height="30" as="geometry" />
        </mxCell>
        <mxCell id="jI2HZNCU--r-3EHntsAd-277" value="" style="rounded=0;whiteSpace=wrap;html=1;fontSize=15;fillColor=#A8DADC;strokeColor=#457B9D;fontColor=#1D3557;labelBackgroundColor=none;" parent="1" vertex="1">
          <mxGeometry x="553.5" y="2133" width="70.5" height="90" as="geometry" />
        </mxCell>
        <mxCell id="jI2HZNCU--r-3EHntsAd-278" style="edgeStyle=orthogonalEdgeStyle;rounded=0;orthogonalLoop=1;jettySize=auto;html=1;exitX=1;exitY=0.5;exitDx=0;exitDy=0;fontSize=15;labelBackgroundColor=none;strokeColor=#457B9D;fontColor=#1D3557;" parent="1" source="jI2HZNCU--r-3EHntsAd-279" edge="1">
          <mxGeometry relative="1" as="geometry">
            <mxPoint x="636.25" y="2175.483870967742" as="targetPoint" />
          </mxGeometry>
        </mxCell>
        <mxCell id="jI2HZNCU--r-3EHntsAd-279" value="&lt;font color=&quot;#333333&quot;&gt;start&lt;/font&gt;" style="rounded=0;whiteSpace=wrap;html=1;fontSize=15;fillColor=#A8DADC;strokeColor=#457B9D;fontColor=#1D3557;labelBackgroundColor=none;" parent="1" vertex="1">
          <mxGeometry x="568.25" y="2163" width="41" height="25" as="geometry" />
        </mxCell>
        <mxCell id="jI2HZNCU--r-3EHntsAd-280" style="edgeStyle=orthogonalEdgeStyle;rounded=0;orthogonalLoop=1;jettySize=auto;html=1;exitX=1;exitY=0.5;exitDx=0;exitDy=0;fontSize=15;labelBackgroundColor=none;strokeColor=#457B9D;fontColor=#1D3557;" parent="1" source="jI2HZNCU--r-3EHntsAd-281" edge="1">
          <mxGeometry relative="1" as="geometry">
            <mxPoint x="636.25" y="2205" as="targetPoint" />
          </mxGeometry>
        </mxCell>
        <mxCell id="jI2HZNCU--r-3EHntsAd-281" value="&lt;font color=&quot;#333333&quot;&gt;end&lt;/font&gt;" style="rounded=0;whiteSpace=wrap;html=1;fontSize=15;fillColor=#A8DADC;strokeColor=#457B9D;fontColor=#1D3557;labelBackgroundColor=none;" parent="1" vertex="1">
          <mxGeometry x="568.25" y="2193" width="41" height="25" as="geometry" />
        </mxCell>
        <mxCell id="jI2HZNCU--r-3EHntsAd-282" value="count：n" style="text;html=1;align=center;verticalAlign=middle;resizable=0;points=[];autosize=1;strokeColor=none;fillColor=none;fontSize=15;fontColor=#1D3557;labelBackgroundColor=none;" parent="1" vertex="1">
          <mxGeometry x="547.75" y="2133" width="80" height="30" as="geometry" />
        </mxCell>
        <mxCell id="jI2HZNCU--r-3EHntsAd-283" value="……" style="text;html=1;align=center;verticalAlign=middle;resizable=0;points=[];autosize=1;strokeColor=none;fillColor=none;fontSize=15;fontColor=#1D3557;labelBackgroundColor=none;" parent="1" vertex="1">
          <mxGeometry x="642.5" y="2173" width="50" height="30" as="geometry" />
        </mxCell>
        <mxCell id="jI2HZNCU--r-3EHntsAd-284" value="&lt;font color=&quot;#666666&quot;&gt;LRU链表&lt;/font&gt;" style="text;html=1;align=center;verticalAlign=middle;resizable=0;points=[];autosize=1;strokeColor=none;fillColor=none;fontSize=15;fontColor=#1D3557;labelBackgroundColor=none;" parent="1" vertex="1">
          <mxGeometry x="586.75" y="2233" width="80" height="30" as="geometry" />
        </mxCell>
        <mxCell id="jI2HZNCU--r-3EHntsAd-285" value="&lt;font color=&quot;#666666&quot;&gt;其他各种链表&lt;/font&gt;" style="text;html=1;align=center;verticalAlign=middle;resizable=0;points=[];autosize=1;strokeColor=none;fillColor=none;fontSize=15;fontColor=#1D3557;labelBackgroundColor=none;" parent="1" vertex="1">
          <mxGeometry x="718" y="2173" width="110" height="30" as="geometry" />
        </mxCell>
        <mxCell id="jI2HZNCU--r-3EHntsAd-289" value="" style="shape=table;startSize=0;container=1;collapsible=0;childLayout=tableLayout;fontSize=15;fillColor=#A8DADC;strokeColor=#457B9D;fontColor=#1D3557;labelBackgroundColor=none;" parent="1" vertex="1">
          <mxGeometry x="236.25" y="2279" width="530" height="44" as="geometry" />
        </mxCell>
        <mxCell id="jI2HZNCU--r-3EHntsAd-290" value="" style="shape=tableRow;horizontal=0;startSize=0;swimlaneHead=0;swimlaneBody=0;top=0;left=0;bottom=0;right=0;collapsible=0;dropTarget=0;fillColor=none;points=[[0,0.5],[1,0.5]];portConstraint=eastwest;fontSize=15;strokeColor=#457B9D;fontColor=#1D3557;labelBackgroundColor=none;" parent="jI2HZNCU--r-3EHntsAd-289" vertex="1">
          <mxGeometry width="530" height="44" as="geometry" />
        </mxCell>
        <mxCell id="jI2HZNCU--r-3EHntsAd-291" value="控制&lt;br style=&quot;font-size: 15px;&quot;&gt;块" style="shape=partialRectangle;html=1;whiteSpace=wrap;connectable=0;overflow=hidden;fillColor=none;top=0;left=0;bottom=0;right=0;pointerEvents=1;fontSize=15;strokeColor=#457B9D;fontColor=#1D3557;labelBackgroundColor=none;" parent="jI2HZNCU--r-3EHntsAd-290" vertex="1">
          <mxGeometry width="45" height="44" as="geometry">
            <mxRectangle width="45" height="44" as="alternateBounds" />
          </mxGeometry>
        </mxCell>
        <mxCell id="jI2HZNCU--r-3EHntsAd-292" value="控制&lt;br style=&quot;font-size: 15px;&quot;&gt;块" style="shape=partialRectangle;html=1;whiteSpace=wrap;connectable=0;overflow=hidden;fillColor=none;top=0;left=0;bottom=0;right=0;pointerEvents=1;fontSize=15;strokeColor=#457B9D;fontColor=#1D3557;labelBackgroundColor=none;" parent="jI2HZNCU--r-3EHntsAd-290" vertex="1">
          <mxGeometry x="45" width="45" height="44" as="geometry">
            <mxRectangle width="45" height="44" as="alternateBounds" />
          </mxGeometry>
        </mxCell>
        <mxCell id="jI2HZNCU--r-3EHntsAd-293" value="……" style="shape=partialRectangle;html=1;whiteSpace=wrap;connectable=0;overflow=hidden;fillColor=none;top=0;left=0;bottom=0;right=0;pointerEvents=1;fontSize=15;strokeColor=#457B9D;fontColor=#1D3557;labelBackgroundColor=none;" parent="jI2HZNCU--r-3EHntsAd-290" vertex="1">
          <mxGeometry x="90" width="45" height="44" as="geometry">
            <mxRectangle width="45" height="44" as="alternateBounds" />
          </mxGeometry>
        </mxCell>
        <mxCell id="jI2HZNCU--r-3EHntsAd-294" value="&lt;meta charset=&quot;utf-8&quot; style=&quot;font-size: 15px;&quot;&gt;&lt;span style=&quot;color: rgb(0, 0, 0); font-family: Helvetica; font-size: 15px; font-style: normal; font-variant-ligatures: normal; font-variant-caps: normal; font-weight: 400; letter-spacing: normal; orphans: 2; text-align: center; text-indent: 0px; text-transform: none; widows: 2; word-spacing: 0px; -webkit-text-stroke-width: 0px; text-decoration-thickness: initial; text-decoration-style: initial; text-decoration-color: initial; float: none; display: inline !important;&quot;&gt;控制&lt;/span&gt;&lt;br style=&quot;color: rgb(0, 0, 0); font-family: Helvetica; font-size: 15px; font-style: normal; font-variant-ligatures: normal; font-variant-caps: normal; font-weight: 400; letter-spacing: normal; orphans: 2; text-align: center; text-indent: 0px; text-transform: none; widows: 2; word-spacing: 0px; -webkit-text-stroke-width: 0px; text-decoration-thickness: initial; text-decoration-style: initial; text-decoration-color: initial;&quot;&gt;&lt;span style=&quot;color: rgb(0, 0, 0); font-family: Helvetica; font-size: 15px; font-style: normal; font-variant-ligatures: normal; font-variant-caps: normal; font-weight: 400; letter-spacing: normal; orphans: 2; text-align: center; text-indent: 0px; text-transform: none; widows: 2; word-spacing: 0px; -webkit-text-stroke-width: 0px; text-decoration-thickness: initial; text-decoration-style: initial; text-decoration-color: initial; float: none; display: inline !important;&quot;&gt;块&lt;/span&gt;" style="shape=partialRectangle;html=1;whiteSpace=wrap;connectable=0;overflow=hidden;fillColor=none;top=0;left=0;bottom=0;right=0;pointerEvents=1;fontSize=15;strokeColor=#457B9D;fontColor=#1D3557;labelBackgroundColor=none;" parent="jI2HZNCU--r-3EHntsAd-290" vertex="1">
          <mxGeometry x="135" width="45" height="44" as="geometry">
            <mxRectangle width="45" height="44" as="alternateBounds" />
          </mxGeometry>
        </mxCell>
        <mxCell id="jI2HZNCU--r-3EHntsAd-295" value="碎片" style="shape=partialRectangle;html=1;whiteSpace=wrap;connectable=0;overflow=hidden;fillColor=none;top=0;left=0;bottom=0;right=0;pointerEvents=1;fontSize=15;strokeColor=#457B9D;fontColor=#1D3557;labelBackgroundColor=none;" parent="jI2HZNCU--r-3EHntsAd-290" vertex="1">
          <mxGeometry x="180" width="50" height="44" as="geometry">
            <mxRectangle width="50" height="44" as="alternateBounds" />
          </mxGeometry>
        </mxCell>
        <mxCell id="jI2HZNCU--r-3EHntsAd-296" value="缓冲页" style="shape=partialRectangle;html=1;whiteSpace=wrap;connectable=0;overflow=hidden;fillColor=none;top=0;left=0;bottom=0;right=0;pointerEvents=1;fontSize=15;strokeColor=#457B9D;fontColor=#1D3557;labelBackgroundColor=none;" parent="jI2HZNCU--r-3EHntsAd-290" vertex="1">
          <mxGeometry x="230" width="75" height="44" as="geometry">
            <mxRectangle width="75" height="44" as="alternateBounds" />
          </mxGeometry>
        </mxCell>
        <mxCell id="jI2HZNCU--r-3EHntsAd-297" value="&lt;meta charset=&quot;utf-8&quot;&gt;&lt;span style=&quot;color: rgb(0, 0, 0); font-family: Helvetica; font-size: 15px; font-style: normal; font-variant-ligatures: normal; font-variant-caps: normal; font-weight: 400; letter-spacing: normal; orphans: 2; text-align: center; text-indent: 0px; text-transform: none; widows: 2; word-spacing: 0px; -webkit-text-stroke-width: 0px; text-decoration-thickness: initial; text-decoration-style: initial; text-decoration-color: initial; float: none; display: inline !important;&quot;&gt;缓冲页&lt;/span&gt;" style="shape=partialRectangle;html=1;whiteSpace=wrap;connectable=0;overflow=hidden;fillColor=none;top=0;left=0;bottom=0;right=0;pointerEvents=1;fontSize=15;strokeColor=#457B9D;fontColor=#1D3557;labelBackgroundColor=none;" parent="jI2HZNCU--r-3EHntsAd-290" vertex="1">
          <mxGeometry x="305" width="75" height="44" as="geometry">
            <mxRectangle width="75" height="44" as="alternateBounds" />
          </mxGeometry>
        </mxCell>
        <mxCell id="jI2HZNCU--r-3EHntsAd-298" value="……" style="shape=partialRectangle;html=1;whiteSpace=wrap;connectable=0;overflow=hidden;fillColor=none;top=0;left=0;bottom=0;right=0;pointerEvents=1;fontSize=15;strokeColor=#457B9D;fontColor=#1D3557;labelBackgroundColor=none;" parent="jI2HZNCU--r-3EHntsAd-290" vertex="1">
          <mxGeometry x="380" width="75" height="44" as="geometry">
            <mxRectangle width="75" height="44" as="alternateBounds" />
          </mxGeometry>
        </mxCell>
        <mxCell id="jI2HZNCU--r-3EHntsAd-299" value="&lt;meta charset=&quot;utf-8&quot;&gt;&lt;span style=&quot;color: rgb(0, 0, 0); font-family: Helvetica; font-size: 15px; font-style: normal; font-variant-ligatures: normal; font-variant-caps: normal; font-weight: 400; letter-spacing: normal; orphans: 2; text-align: center; text-indent: 0px; text-transform: none; widows: 2; word-spacing: 0px; -webkit-text-stroke-width: 0px; text-decoration-thickness: initial; text-decoration-style: initial; text-decoration-color: initial; float: none; display: inline !important;&quot;&gt;缓冲页&lt;/span&gt;" style="shape=partialRectangle;html=1;whiteSpace=wrap;connectable=0;overflow=hidden;fillColor=none;top=0;left=0;bottom=0;right=0;pointerEvents=1;fontSize=15;strokeColor=#457B9D;fontColor=#1D3557;labelBackgroundColor=none;" parent="jI2HZNCU--r-3EHntsAd-290" vertex="1">
          <mxGeometry x="455" width="75" height="44" as="geometry">
            <mxRectangle width="75" height="44" as="alternateBounds" />
          </mxGeometry>
        </mxCell>
        <mxCell id="jI2HZNCU--r-3EHntsAd-300" value="" style="rounded=0;whiteSpace=wrap;html=1;fontSize=15;fillColor=#A8DADC;strokeColor=#457B9D;fontColor=#1D3557;labelBackgroundColor=none;" parent="1" vertex="1">
          <mxGeometry x="221.25" y="2359" width="70.5" height="90" as="geometry" />
        </mxCell>
        <mxCell id="jI2HZNCU--r-3EHntsAd-301" style="edgeStyle=orthogonalEdgeStyle;rounded=0;orthogonalLoop=1;jettySize=auto;html=1;exitX=1;exitY=0.5;exitDx=0;exitDy=0;fontSize=15;labelBackgroundColor=none;strokeColor=#457B9D;fontColor=#1D3557;" parent="1" source="jI2HZNCU--r-3EHntsAd-302" edge="1">
          <mxGeometry relative="1" as="geometry">
            <mxPoint x="304" y="2401.483870967742" as="targetPoint" />
          </mxGeometry>
        </mxCell>
        <mxCell id="jI2HZNCU--r-3EHntsAd-302" value="&lt;font color=&quot;#333333&quot;&gt;start&lt;/font&gt;" style="rounded=0;whiteSpace=wrap;html=1;fontSize=15;fillColor=#A8DADC;strokeColor=#457B9D;fontColor=#1D3557;labelBackgroundColor=none;" parent="1" vertex="1">
          <mxGeometry x="236" y="2389" width="41" height="25" as="geometry" />
        </mxCell>
        <mxCell id="jI2HZNCU--r-3EHntsAd-303" style="edgeStyle=orthogonalEdgeStyle;rounded=0;orthogonalLoop=1;jettySize=auto;html=1;exitX=1;exitY=0.5;exitDx=0;exitDy=0;fontSize=15;labelBackgroundColor=none;strokeColor=#457B9D;fontColor=#1D3557;" parent="1" source="jI2HZNCU--r-3EHntsAd-304" edge="1">
          <mxGeometry relative="1" as="geometry">
            <mxPoint x="304" y="2431" as="targetPoint" />
          </mxGeometry>
        </mxCell>
        <mxCell id="jI2HZNCU--r-3EHntsAd-304" value="&lt;font color=&quot;#333333&quot;&gt;end&lt;/font&gt;" style="rounded=0;whiteSpace=wrap;html=1;fontSize=15;fillColor=#A8DADC;strokeColor=#457B9D;fontColor=#1D3557;labelBackgroundColor=none;" parent="1" vertex="1">
          <mxGeometry x="236" y="2419" width="41" height="25" as="geometry" />
        </mxCell>
        <mxCell id="jI2HZNCU--r-3EHntsAd-305" value="count：n" style="text;html=1;align=center;verticalAlign=middle;resizable=0;points=[];autosize=1;strokeColor=none;fillColor=none;fontSize=15;fontColor=#1D3557;labelBackgroundColor=none;" parent="1" vertex="1">
          <mxGeometry x="215.5" y="2359" width="80" height="30" as="geometry" />
        </mxCell>
        <mxCell id="jI2HZNCU--r-3EHntsAd-306" value="……" style="text;html=1;align=center;verticalAlign=middle;resizable=0;points=[];autosize=1;strokeColor=none;fillColor=none;fontSize=15;fontColor=#1D3557;labelBackgroundColor=none;" parent="1" vertex="1">
          <mxGeometry x="310.25" y="2399" width="50" height="30" as="geometry" />
        </mxCell>
        <mxCell id="jI2HZNCU--r-3EHntsAd-307" value="&lt;font color=&quot;#666666&quot;&gt;free链表&lt;/font&gt;" style="text;html=1;align=center;verticalAlign=middle;resizable=0;points=[];autosize=1;strokeColor=none;fillColor=none;fontSize=15;fontColor=#1D3557;labelBackgroundColor=none;" parent="1" vertex="1">
          <mxGeometry x="254.5" y="2459" width="80" height="30" as="geometry" />
        </mxCell>
        <mxCell id="jI2HZNCU--r-3EHntsAd-308" value="" style="rounded=0;whiteSpace=wrap;html=1;fontSize=15;fillColor=#A8DADC;strokeColor=#457B9D;fontColor=#1D3557;labelBackgroundColor=none;" parent="1" vertex="1">
          <mxGeometry x="384.5" y="2359" width="70.5" height="90" as="geometry" />
        </mxCell>
        <mxCell id="jI2HZNCU--r-3EHntsAd-309" style="edgeStyle=orthogonalEdgeStyle;rounded=0;orthogonalLoop=1;jettySize=auto;html=1;exitX=1;exitY=0.5;exitDx=0;exitDy=0;fontSize=15;labelBackgroundColor=none;strokeColor=#457B9D;fontColor=#1D3557;" parent="1" source="jI2HZNCU--r-3EHntsAd-310" edge="1">
          <mxGeometry relative="1" as="geometry">
            <mxPoint x="467.25" y="2401.483870967742" as="targetPoint" />
          </mxGeometry>
        </mxCell>
        <mxCell id="jI2HZNCU--r-3EHntsAd-310" value="&lt;font color=&quot;#333333&quot;&gt;start&lt;/font&gt;" style="rounded=0;whiteSpace=wrap;html=1;fontSize=15;fillColor=#A8DADC;strokeColor=#457B9D;fontColor=#1D3557;labelBackgroundColor=none;" parent="1" vertex="1">
          <mxGeometry x="399.25" y="2389" width="41" height="25" as="geometry" />
        </mxCell>
        <mxCell id="jI2HZNCU--r-3EHntsAd-311" style="edgeStyle=orthogonalEdgeStyle;rounded=0;orthogonalLoop=1;jettySize=auto;html=1;exitX=1;exitY=0.5;exitDx=0;exitDy=0;fontSize=15;labelBackgroundColor=none;strokeColor=#457B9D;fontColor=#1D3557;" parent="1" source="jI2HZNCU--r-3EHntsAd-312" edge="1">
          <mxGeometry relative="1" as="geometry">
            <mxPoint x="467.25" y="2431" as="targetPoint" />
          </mxGeometry>
        </mxCell>
        <mxCell id="jI2HZNCU--r-3EHntsAd-312" value="&lt;font color=&quot;#333333&quot;&gt;end&lt;/font&gt;" style="rounded=0;whiteSpace=wrap;html=1;fontSize=15;fillColor=#A8DADC;strokeColor=#457B9D;fontColor=#1D3557;labelBackgroundColor=none;" parent="1" vertex="1">
          <mxGeometry x="399.25" y="2419" width="41" height="25" as="geometry" />
        </mxCell>
        <mxCell id="jI2HZNCU--r-3EHntsAd-313" value="count：n" style="text;html=1;align=center;verticalAlign=middle;resizable=0;points=[];autosize=1;strokeColor=none;fillColor=none;fontSize=15;fontColor=#1D3557;labelBackgroundColor=none;" parent="1" vertex="1">
          <mxGeometry x="378.75" y="2359" width="80" height="30" as="geometry" />
        </mxCell>
        <mxCell id="jI2HZNCU--r-3EHntsAd-314" value="……" style="text;html=1;align=center;verticalAlign=middle;resizable=0;points=[];autosize=1;strokeColor=none;fillColor=none;fontSize=15;fontColor=#1D3557;labelBackgroundColor=none;" parent="1" vertex="1">
          <mxGeometry x="473.5" y="2399" width="50" height="30" as="geometry" />
        </mxCell>
        <mxCell id="jI2HZNCU--r-3EHntsAd-315" value="&lt;font color=&quot;#666666&quot;&gt;flush链表&lt;/font&gt;" style="text;html=1;align=center;verticalAlign=middle;resizable=0;points=[];autosize=1;strokeColor=none;fillColor=none;fontSize=15;fontColor=#1D3557;labelBackgroundColor=none;" parent="1" vertex="1">
          <mxGeometry x="412.75" y="2459" width="90" height="30" as="geometry" />
        </mxCell>
        <mxCell id="jI2HZNCU--r-3EHntsAd-316" value="" style="rounded=0;whiteSpace=wrap;html=1;fontSize=15;fillColor=#A8DADC;strokeColor=#457B9D;fontColor=#1D3557;labelBackgroundColor=none;" parent="1" vertex="1">
          <mxGeometry x="553.5" y="2359" width="70.5" height="90" as="geometry" />
        </mxCell>
        <mxCell id="jI2HZNCU--r-3EHntsAd-317" style="edgeStyle=orthogonalEdgeStyle;rounded=0;orthogonalLoop=1;jettySize=auto;html=1;exitX=1;exitY=0.5;exitDx=0;exitDy=0;fontSize=15;labelBackgroundColor=none;strokeColor=#457B9D;fontColor=#1D3557;" parent="1" source="jI2HZNCU--r-3EHntsAd-318" edge="1">
          <mxGeometry relative="1" as="geometry">
            <mxPoint x="636.25" y="2401.483870967742" as="targetPoint" />
          </mxGeometry>
        </mxCell>
        <mxCell id="jI2HZNCU--r-3EHntsAd-318" value="&lt;font color=&quot;#333333&quot;&gt;start&lt;/font&gt;" style="rounded=0;whiteSpace=wrap;html=1;fontSize=15;fillColor=#A8DADC;strokeColor=#457B9D;fontColor=#1D3557;labelBackgroundColor=none;" parent="1" vertex="1">
          <mxGeometry x="568.25" y="2389" width="41" height="25" as="geometry" />
        </mxCell>
        <mxCell id="jI2HZNCU--r-3EHntsAd-319" style="edgeStyle=orthogonalEdgeStyle;rounded=0;orthogonalLoop=1;jettySize=auto;html=1;exitX=1;exitY=0.5;exitDx=0;exitDy=0;fontSize=15;labelBackgroundColor=none;strokeColor=#457B9D;fontColor=#1D3557;" parent="1" source="jI2HZNCU--r-3EHntsAd-320" edge="1">
          <mxGeometry relative="1" as="geometry">
            <mxPoint x="636.25" y="2431" as="targetPoint" />
          </mxGeometry>
        </mxCell>
        <mxCell id="jI2HZNCU--r-3EHntsAd-320" value="&lt;font color=&quot;#333333&quot;&gt;end&lt;/font&gt;" style="rounded=0;whiteSpace=wrap;html=1;fontSize=15;fillColor=#A8DADC;strokeColor=#457B9D;fontColor=#1D3557;labelBackgroundColor=none;" parent="1" vertex="1">
          <mxGeometry x="568.25" y="2419" width="41" height="25" as="geometry" />
        </mxCell>
        <mxCell id="jI2HZNCU--r-3EHntsAd-321" value="count：n" style="text;html=1;align=center;verticalAlign=middle;resizable=0;points=[];autosize=1;strokeColor=none;fillColor=none;fontSize=15;fontColor=#1D3557;labelBackgroundColor=none;" parent="1" vertex="1">
          <mxGeometry x="547.75" y="2359" width="80" height="30" as="geometry" />
        </mxCell>
        <mxCell id="jI2HZNCU--r-3EHntsAd-322" value="……" style="text;html=1;align=center;verticalAlign=middle;resizable=0;points=[];autosize=1;strokeColor=none;fillColor=none;fontSize=15;fontColor=#1D3557;labelBackgroundColor=none;" parent="1" vertex="1">
          <mxGeometry x="642.5" y="2399" width="50" height="30" as="geometry" />
        </mxCell>
        <mxCell id="jI2HZNCU--r-3EHntsAd-323" value="&lt;font color=&quot;#666666&quot;&gt;LRU链表&lt;/font&gt;" style="text;html=1;align=center;verticalAlign=middle;resizable=0;points=[];autosize=1;strokeColor=none;fillColor=none;fontSize=15;fontColor=#1D3557;labelBackgroundColor=none;" parent="1" vertex="1">
          <mxGeometry x="586.75" y="2459" width="80" height="30" as="geometry" />
        </mxCell>
        <mxCell id="jI2HZNCU--r-3EHntsAd-324" value="&lt;font color=&quot;#666666&quot;&gt;其他各种链表&lt;/font&gt;" style="text;html=1;align=center;verticalAlign=middle;resizable=0;points=[];autosize=1;strokeColor=none;fillColor=none;fontSize=15;fontColor=#1D3557;labelBackgroundColor=none;" parent="1" vertex="1">
          <mxGeometry x="718" y="2399" width="110" height="30" as="geometry" />
        </mxCell>
        <mxCell id="jI2HZNCU--r-3EHntsAd-330" value="&lt;font color=&quot;#666666&quot;&gt;Buffer Pool 实例&lt;/font&gt;&lt;span style=&quot;color: rgb(102, 102, 102);&quot;&gt;示意图&lt;/span&gt;" style="text;html=1;align=center;verticalAlign=middle;resizable=0;points=[];autosize=1;strokeColor=none;fillColor=none;fontSize=15;fontColor=#1D3557;labelBackgroundColor=none;" parent="1" vertex="1">
          <mxGeometry x="434" y="2514" width="180" height="30" as="geometry" />
        </mxCell>
        <mxCell id="jI2HZNCU--r-3EHntsAd-331" value="" style="shape=curlyBracket;whiteSpace=wrap;html=1;rounded=1;flipH=1;labelPosition=right;verticalLabelPosition=middle;align=left;verticalAlign=middle;fontSize=15;fillColor=#A8DADC;strokeColor=#457B9D;fontColor=#1D3557;labelBackgroundColor=none;" parent="1" vertex="1">
          <mxGeometry x="859.5" y="2044" width="20" height="224" as="geometry" />
        </mxCell>
        <mxCell id="jI2HZNCU--r-3EHntsAd-332" value="" style="shape=curlyBracket;whiteSpace=wrap;html=1;rounded=1;flipH=1;labelPosition=right;verticalLabelPosition=middle;align=left;verticalAlign=middle;fontSize=15;fillColor=#A8DADC;strokeColor=#457B9D;fontColor=#1D3557;labelBackgroundColor=none;" parent="1" vertex="1">
          <mxGeometry x="859.5" y="2269" width="20" height="225" as="geometry" />
        </mxCell>
        <mxCell id="jI2HZNCU--r-3EHntsAd-333" value="&lt;font color=&quot;#666666&quot;&gt;Buffer Pool 实例0&lt;/font&gt;" style="text;html=1;align=center;verticalAlign=middle;resizable=0;points=[];autosize=1;strokeColor=none;fillColor=none;fontSize=15;fontColor=#1D3557;labelBackgroundColor=none;" parent="1" vertex="1">
          <mxGeometry x="889.5" y="2141" width="140" height="30" as="geometry" />
        </mxCell>
        <mxCell id="jI2HZNCU--r-3EHntsAd-334" value="&lt;font color=&quot;#666666&quot;&gt;Buffer Pool 实例1&lt;/font&gt;" style="text;html=1;align=center;verticalAlign=middle;resizable=0;points=[];autosize=1;strokeColor=none;fillColor=none;fontSize=15;fontColor=#1D3557;labelBackgroundColor=none;" parent="1" vertex="1">
          <mxGeometry x="889.5" y="2366.5" width="140" height="30" as="geometry" />
        </mxCell>
        <mxCell id="jI2HZNCU--r-3EHntsAd-335" value="" style="shape=table;startSize=0;container=1;collapsible=0;childLayout=tableLayout;fontSize=15;fillColor=#A8DADC;strokeColor=#457B9D;fontColor=#1D3557;labelBackgroundColor=none;" parent="1" vertex="1">
          <mxGeometry x="1390" y="1900" width="630" height="620" as="geometry" />
        </mxCell>
        <mxCell id="jI2HZNCU--r-3EHntsAd-336" value="" style="shape=tableRow;horizontal=0;startSize=0;swimlaneHead=0;swimlaneBody=0;top=0;left=0;bottom=0;right=0;collapsible=0;dropTarget=0;fillColor=none;points=[[0,0.5],[1,0.5]];portConstraint=eastwest;fontSize=15;strokeColor=#457B9D;fontColor=#1D3557;labelBackgroundColor=none;" parent="jI2HZNCU--r-3EHntsAd-335" vertex="1">
          <mxGeometry width="630" height="310" as="geometry" />
        </mxCell>
        <mxCell id="jI2HZNCU--r-3EHntsAd-337" value="" style="shape=partialRectangle;html=1;whiteSpace=wrap;connectable=0;overflow=hidden;fillColor=none;top=0;left=0;bottom=0;right=0;pointerEvents=1;fontSize=15;strokeColor=#457B9D;fontColor=#1D3557;labelBackgroundColor=none;" parent="jI2HZNCU--r-3EHntsAd-336" vertex="1">
          <mxGeometry width="630" height="310" as="geometry">
            <mxRectangle width="630" height="310" as="alternateBounds" />
          </mxGeometry>
        </mxCell>
        <mxCell id="jI2HZNCU--r-3EHntsAd-338" value="" style="shape=tableRow;horizontal=0;startSize=0;swimlaneHead=0;swimlaneBody=0;top=0;left=0;bottom=0;right=0;collapsible=0;dropTarget=0;fillColor=none;points=[[0,0.5],[1,0.5]];portConstraint=eastwest;fontSize=15;strokeColor=#457B9D;fontColor=#1D3557;labelBackgroundColor=none;" parent="jI2HZNCU--r-3EHntsAd-335" vertex="1">
          <mxGeometry y="310" width="630" height="310" as="geometry" />
        </mxCell>
        <mxCell id="jI2HZNCU--r-3EHntsAd-339" value="" style="shape=partialRectangle;html=1;whiteSpace=wrap;connectable=0;overflow=hidden;fillColor=none;top=0;left=0;bottom=0;right=0;pointerEvents=1;fontSize=15;strokeColor=#457B9D;fontColor=#1D3557;labelBackgroundColor=none;" parent="jI2HZNCU--r-3EHntsAd-338" vertex="1">
          <mxGeometry width="630" height="310" as="geometry">
            <mxRectangle width="630" height="310" as="alternateBounds" />
          </mxGeometry>
        </mxCell>
        <mxCell id="jI2HZNCU--r-3EHntsAd-340" value="" style="shape=table;startSize=0;container=1;collapsible=0;childLayout=tableLayout;fontSize=15;fillColor=#A8DADC;strokeColor=#457B9D;fontColor=#1D3557;labelBackgroundColor=none;" parent="1" vertex="1">
          <mxGeometry x="1480" y="1920" width="530" height="44" as="geometry" />
        </mxCell>
        <mxCell id="jI2HZNCU--r-3EHntsAd-341" value="" style="shape=tableRow;horizontal=0;startSize=0;swimlaneHead=0;swimlaneBody=0;top=0;left=0;bottom=0;right=0;collapsible=0;dropTarget=0;fillColor=none;points=[[0,0.5],[1,0.5]];portConstraint=eastwest;fontSize=15;strokeColor=#457B9D;fontColor=#1D3557;labelBackgroundColor=none;" parent="jI2HZNCU--r-3EHntsAd-340" vertex="1">
          <mxGeometry width="530" height="44" as="geometry" />
        </mxCell>
        <mxCell id="jI2HZNCU--r-3EHntsAd-342" value="控制&lt;br style=&quot;font-size: 15px;&quot;&gt;块" style="shape=partialRectangle;html=1;whiteSpace=wrap;connectable=0;overflow=hidden;fillColor=none;top=0;left=0;bottom=0;right=0;pointerEvents=1;fontSize=15;strokeColor=#457B9D;fontColor=#1D3557;labelBackgroundColor=none;" parent="jI2HZNCU--r-3EHntsAd-341" vertex="1">
          <mxGeometry width="45" height="44" as="geometry">
            <mxRectangle width="45" height="44" as="alternateBounds" />
          </mxGeometry>
        </mxCell>
        <mxCell id="jI2HZNCU--r-3EHntsAd-343" value="控制&lt;br style=&quot;font-size: 15px;&quot;&gt;块" style="shape=partialRectangle;html=1;whiteSpace=wrap;connectable=0;overflow=hidden;fillColor=none;top=0;left=0;bottom=0;right=0;pointerEvents=1;fontSize=15;strokeColor=#457B9D;fontColor=#1D3557;labelBackgroundColor=none;" parent="jI2HZNCU--r-3EHntsAd-341" vertex="1">
          <mxGeometry x="45" width="45" height="44" as="geometry">
            <mxRectangle width="45" height="44" as="alternateBounds" />
          </mxGeometry>
        </mxCell>
        <mxCell id="jI2HZNCU--r-3EHntsAd-344" value="……" style="shape=partialRectangle;html=1;whiteSpace=wrap;connectable=0;overflow=hidden;fillColor=none;top=0;left=0;bottom=0;right=0;pointerEvents=1;fontSize=15;strokeColor=#457B9D;fontColor=#1D3557;labelBackgroundColor=none;" parent="jI2HZNCU--r-3EHntsAd-341" vertex="1">
          <mxGeometry x="90" width="45" height="44" as="geometry">
            <mxRectangle width="45" height="44" as="alternateBounds" />
          </mxGeometry>
        </mxCell>
        <mxCell id="jI2HZNCU--r-3EHntsAd-345" value="&lt;meta charset=&quot;utf-8&quot; style=&quot;font-size: 15px;&quot;&gt;&lt;span style=&quot;color: rgb(0, 0, 0); font-family: Helvetica; font-size: 15px; font-style: normal; font-variant-ligatures: normal; font-variant-caps: normal; font-weight: 400; letter-spacing: normal; orphans: 2; text-align: center; text-indent: 0px; text-transform: none; widows: 2; word-spacing: 0px; -webkit-text-stroke-width: 0px; text-decoration-thickness: initial; text-decoration-style: initial; text-decoration-color: initial; float: none; display: inline !important;&quot;&gt;控制&lt;/span&gt;&lt;br style=&quot;color: rgb(0, 0, 0); font-family: Helvetica; font-size: 15px; font-style: normal; font-variant-ligatures: normal; font-variant-caps: normal; font-weight: 400; letter-spacing: normal; orphans: 2; text-align: center; text-indent: 0px; text-transform: none; widows: 2; word-spacing: 0px; -webkit-text-stroke-width: 0px; text-decoration-thickness: initial; text-decoration-style: initial; text-decoration-color: initial;&quot;&gt;&lt;span style=&quot;color: rgb(0, 0, 0); font-family: Helvetica; font-size: 15px; font-style: normal; font-variant-ligatures: normal; font-variant-caps: normal; font-weight: 400; letter-spacing: normal; orphans: 2; text-align: center; text-indent: 0px; text-transform: none; widows: 2; word-spacing: 0px; -webkit-text-stroke-width: 0px; text-decoration-thickness: initial; text-decoration-style: initial; text-decoration-color: initial; float: none; display: inline !important;&quot;&gt;块&lt;/span&gt;" style="shape=partialRectangle;html=1;whiteSpace=wrap;connectable=0;overflow=hidden;fillColor=none;top=0;left=0;bottom=0;right=0;pointerEvents=1;fontSize=15;strokeColor=#457B9D;fontColor=#1D3557;labelBackgroundColor=none;" parent="jI2HZNCU--r-3EHntsAd-341" vertex="1">
          <mxGeometry x="135" width="45" height="44" as="geometry">
            <mxRectangle width="45" height="44" as="alternateBounds" />
          </mxGeometry>
        </mxCell>
        <mxCell id="jI2HZNCU--r-3EHntsAd-346" value="碎片" style="shape=partialRectangle;html=1;whiteSpace=wrap;connectable=0;overflow=hidden;fillColor=none;top=0;left=0;bottom=0;right=0;pointerEvents=1;fontSize=15;strokeColor=#457B9D;fontColor=#1D3557;labelBackgroundColor=none;" parent="jI2HZNCU--r-3EHntsAd-341" vertex="1">
          <mxGeometry x="180" width="50" height="44" as="geometry">
            <mxRectangle width="50" height="44" as="alternateBounds" />
          </mxGeometry>
        </mxCell>
        <mxCell id="jI2HZNCU--r-3EHntsAd-347" value="缓冲页" style="shape=partialRectangle;html=1;whiteSpace=wrap;connectable=0;overflow=hidden;fillColor=none;top=0;left=0;bottom=0;right=0;pointerEvents=1;fontSize=15;strokeColor=#457B9D;fontColor=#1D3557;labelBackgroundColor=none;" parent="jI2HZNCU--r-3EHntsAd-341" vertex="1">
          <mxGeometry x="230" width="75" height="44" as="geometry">
            <mxRectangle width="75" height="44" as="alternateBounds" />
          </mxGeometry>
        </mxCell>
        <mxCell id="jI2HZNCU--r-3EHntsAd-348" value="&lt;meta charset=&quot;utf-8&quot;&gt;&lt;span style=&quot;color: rgb(0, 0, 0); font-family: Helvetica; font-size: 15px; font-style: normal; font-variant-ligatures: normal; font-variant-caps: normal; font-weight: 400; letter-spacing: normal; orphans: 2; text-align: center; text-indent: 0px; text-transform: none; widows: 2; word-spacing: 0px; -webkit-text-stroke-width: 0px; text-decoration-thickness: initial; text-decoration-style: initial; text-decoration-color: initial; float: none; display: inline !important;&quot;&gt;缓冲页&lt;/span&gt;" style="shape=partialRectangle;html=1;whiteSpace=wrap;connectable=0;overflow=hidden;fillColor=none;top=0;left=0;bottom=0;right=0;pointerEvents=1;fontSize=15;strokeColor=#457B9D;fontColor=#1D3557;labelBackgroundColor=none;" parent="jI2HZNCU--r-3EHntsAd-341" vertex="1">
          <mxGeometry x="305" width="75" height="44" as="geometry">
            <mxRectangle width="75" height="44" as="alternateBounds" />
          </mxGeometry>
        </mxCell>
        <mxCell id="jI2HZNCU--r-3EHntsAd-349" value="……" style="shape=partialRectangle;html=1;whiteSpace=wrap;connectable=0;overflow=hidden;fillColor=none;top=0;left=0;bottom=0;right=0;pointerEvents=1;fontSize=15;strokeColor=#457B9D;fontColor=#1D3557;labelBackgroundColor=none;" parent="jI2HZNCU--r-3EHntsAd-341" vertex="1">
          <mxGeometry x="380" width="75" height="44" as="geometry">
            <mxRectangle width="75" height="44" as="alternateBounds" />
          </mxGeometry>
        </mxCell>
        <mxCell id="jI2HZNCU--r-3EHntsAd-350" value="&lt;meta charset=&quot;utf-8&quot;&gt;&lt;span style=&quot;color: rgb(0, 0, 0); font-family: Helvetica; font-size: 15px; font-style: normal; font-variant-ligatures: normal; font-variant-caps: normal; font-weight: 400; letter-spacing: normal; orphans: 2; text-align: center; text-indent: 0px; text-transform: none; widows: 2; word-spacing: 0px; -webkit-text-stroke-width: 0px; text-decoration-thickness: initial; text-decoration-style: initial; text-decoration-color: initial; float: none; display: inline !important;&quot;&gt;缓冲页&lt;/span&gt;" style="shape=partialRectangle;html=1;whiteSpace=wrap;connectable=0;overflow=hidden;fillColor=none;top=0;left=0;bottom=0;right=0;pointerEvents=1;fontSize=15;strokeColor=#457B9D;fontColor=#1D3557;labelBackgroundColor=none;" parent="jI2HZNCU--r-3EHntsAd-341" vertex="1">
          <mxGeometry x="455" width="75" height="44" as="geometry">
            <mxRectangle width="75" height="44" as="alternateBounds" />
          </mxGeometry>
        </mxCell>
        <mxCell id="jI2HZNCU--r-3EHntsAd-351" value="" style="rounded=0;whiteSpace=wrap;html=1;fontSize=15;fillColor=#A8DADC;strokeColor=#457B9D;fontColor=#1D3557;labelBackgroundColor=none;" parent="1" vertex="1">
          <mxGeometry x="1404.5" y="2070" width="70.5" height="90" as="geometry" />
        </mxCell>
        <mxCell id="jI2HZNCU--r-3EHntsAd-352" style="edgeStyle=orthogonalEdgeStyle;rounded=0;orthogonalLoop=1;jettySize=auto;html=1;exitX=1;exitY=0.5;exitDx=0;exitDy=0;fontSize=15;labelBackgroundColor=none;strokeColor=#457B9D;fontColor=#1D3557;" parent="1" source="jI2HZNCU--r-3EHntsAd-353" edge="1">
          <mxGeometry relative="1" as="geometry">
            <mxPoint x="1487.25" y="2112.483870967742" as="targetPoint" />
          </mxGeometry>
        </mxCell>
        <mxCell id="jI2HZNCU--r-3EHntsAd-353" value="&lt;font color=&quot;#333333&quot;&gt;start&lt;/font&gt;" style="rounded=0;whiteSpace=wrap;html=1;fontSize=15;fillColor=#A8DADC;strokeColor=#457B9D;fontColor=#1D3557;labelBackgroundColor=none;" parent="1" vertex="1">
          <mxGeometry x="1419.25" y="2100" width="41" height="25" as="geometry" />
        </mxCell>
        <mxCell id="jI2HZNCU--r-3EHntsAd-354" style="edgeStyle=orthogonalEdgeStyle;rounded=0;orthogonalLoop=1;jettySize=auto;html=1;exitX=1;exitY=0.5;exitDx=0;exitDy=0;fontSize=15;labelBackgroundColor=none;strokeColor=#457B9D;fontColor=#1D3557;" parent="1" source="jI2HZNCU--r-3EHntsAd-355" edge="1">
          <mxGeometry relative="1" as="geometry">
            <mxPoint x="1487.25" y="2142" as="targetPoint" />
          </mxGeometry>
        </mxCell>
        <mxCell id="jI2HZNCU--r-3EHntsAd-355" value="&lt;font color=&quot;#333333&quot;&gt;end&lt;/font&gt;" style="rounded=0;whiteSpace=wrap;html=1;fontSize=15;fillColor=#A8DADC;strokeColor=#457B9D;fontColor=#1D3557;labelBackgroundColor=none;" parent="1" vertex="1">
          <mxGeometry x="1419.25" y="2130" width="41" height="25" as="geometry" />
        </mxCell>
        <mxCell id="jI2HZNCU--r-3EHntsAd-356" value="count：n" style="text;html=1;align=center;verticalAlign=middle;resizable=0;points=[];autosize=1;strokeColor=none;fillColor=none;fontSize=15;fontColor=#1D3557;labelBackgroundColor=none;" parent="1" vertex="1">
          <mxGeometry x="1398.75" y="2070" width="80" height="30" as="geometry" />
        </mxCell>
        <mxCell id="jI2HZNCU--r-3EHntsAd-357" value="……" style="text;html=1;align=center;verticalAlign=middle;resizable=0;points=[];autosize=1;strokeColor=none;fillColor=none;fontSize=15;fontColor=#1D3557;labelBackgroundColor=none;" parent="1" vertex="1">
          <mxGeometry x="1493.5" y="2110" width="50" height="30" as="geometry" />
        </mxCell>
        <mxCell id="jI2HZNCU--r-3EHntsAd-358" value="&lt;font color=&quot;#666666&quot;&gt;free链表&lt;/font&gt;" style="text;html=1;align=center;verticalAlign=middle;resizable=0;points=[];autosize=1;strokeColor=none;fillColor=none;fontSize=15;fontColor=#1D3557;labelBackgroundColor=none;" parent="1" vertex="1">
          <mxGeometry x="1437.75" y="2170" width="80" height="30" as="geometry" />
        </mxCell>
        <mxCell id="jI2HZNCU--r-3EHntsAd-359" value="" style="rounded=0;whiteSpace=wrap;html=1;fontSize=15;fillColor=#A8DADC;strokeColor=#457B9D;fontColor=#1D3557;labelBackgroundColor=none;" parent="1" vertex="1">
          <mxGeometry x="1567.75" y="2070" width="70.5" height="90" as="geometry" />
        </mxCell>
        <mxCell id="jI2HZNCU--r-3EHntsAd-360" style="edgeStyle=orthogonalEdgeStyle;rounded=0;orthogonalLoop=1;jettySize=auto;html=1;exitX=1;exitY=0.5;exitDx=0;exitDy=0;fontSize=15;labelBackgroundColor=none;strokeColor=#457B9D;fontColor=#1D3557;" parent="1" source="jI2HZNCU--r-3EHntsAd-361" edge="1">
          <mxGeometry relative="1" as="geometry">
            <mxPoint x="1650.5" y="2112.483870967742" as="targetPoint" />
          </mxGeometry>
        </mxCell>
        <mxCell id="jI2HZNCU--r-3EHntsAd-361" value="&lt;font color=&quot;#333333&quot;&gt;start&lt;/font&gt;" style="rounded=0;whiteSpace=wrap;html=1;fontSize=15;fillColor=#A8DADC;strokeColor=#457B9D;fontColor=#1D3557;labelBackgroundColor=none;" parent="1" vertex="1">
          <mxGeometry x="1582.5" y="2100" width="41" height="25" as="geometry" />
        </mxCell>
        <mxCell id="jI2HZNCU--r-3EHntsAd-362" style="edgeStyle=orthogonalEdgeStyle;rounded=0;orthogonalLoop=1;jettySize=auto;html=1;exitX=1;exitY=0.5;exitDx=0;exitDy=0;fontSize=15;labelBackgroundColor=none;strokeColor=#457B9D;fontColor=#1D3557;" parent="1" source="jI2HZNCU--r-3EHntsAd-363" edge="1">
          <mxGeometry relative="1" as="geometry">
            <mxPoint x="1650.5" y="2142" as="targetPoint" />
          </mxGeometry>
        </mxCell>
        <mxCell id="jI2HZNCU--r-3EHntsAd-363" value="&lt;font color=&quot;#333333&quot;&gt;end&lt;/font&gt;" style="rounded=0;whiteSpace=wrap;html=1;fontSize=15;fillColor=#A8DADC;strokeColor=#457B9D;fontColor=#1D3557;labelBackgroundColor=none;" parent="1" vertex="1">
          <mxGeometry x="1582.5" y="2130" width="41" height="25" as="geometry" />
        </mxCell>
        <mxCell id="jI2HZNCU--r-3EHntsAd-364" value="count：n" style="text;html=1;align=center;verticalAlign=middle;resizable=0;points=[];autosize=1;strokeColor=none;fillColor=none;fontSize=15;fontColor=#1D3557;labelBackgroundColor=none;" parent="1" vertex="1">
          <mxGeometry x="1562" y="2070" width="80" height="30" as="geometry" />
        </mxCell>
        <mxCell id="jI2HZNCU--r-3EHntsAd-365" value="……" style="text;html=1;align=center;verticalAlign=middle;resizable=0;points=[];autosize=1;strokeColor=none;fillColor=none;fontSize=15;fontColor=#1D3557;labelBackgroundColor=none;" parent="1" vertex="1">
          <mxGeometry x="1656.75" y="2110" width="50" height="30" as="geometry" />
        </mxCell>
        <mxCell id="jI2HZNCU--r-3EHntsAd-366" value="&lt;font color=&quot;#666666&quot;&gt;flush链表&lt;/font&gt;" style="text;html=1;align=center;verticalAlign=middle;resizable=0;points=[];autosize=1;strokeColor=none;fillColor=none;fontSize=15;fontColor=#1D3557;labelBackgroundColor=none;" parent="1" vertex="1">
          <mxGeometry x="1596" y="2170" width="90" height="30" as="geometry" />
        </mxCell>
        <mxCell id="jI2HZNCU--r-3EHntsAd-367" value="" style="rounded=0;whiteSpace=wrap;html=1;fontSize=15;fillColor=#A8DADC;strokeColor=#457B9D;fontColor=#1D3557;labelBackgroundColor=none;" parent="1" vertex="1">
          <mxGeometry x="1736.75" y="2070" width="70.5" height="90" as="geometry" />
        </mxCell>
        <mxCell id="jI2HZNCU--r-3EHntsAd-368" style="edgeStyle=orthogonalEdgeStyle;rounded=0;orthogonalLoop=1;jettySize=auto;html=1;exitX=1;exitY=0.5;exitDx=0;exitDy=0;fontSize=15;labelBackgroundColor=none;strokeColor=#457B9D;fontColor=#1D3557;" parent="1" source="jI2HZNCU--r-3EHntsAd-369" edge="1">
          <mxGeometry relative="1" as="geometry">
            <mxPoint x="1819.5" y="2112.483870967742" as="targetPoint" />
          </mxGeometry>
        </mxCell>
        <mxCell id="jI2HZNCU--r-3EHntsAd-369" value="&lt;font color=&quot;#333333&quot;&gt;start&lt;/font&gt;" style="rounded=0;whiteSpace=wrap;html=1;fontSize=15;fillColor=#A8DADC;strokeColor=#457B9D;fontColor=#1D3557;labelBackgroundColor=none;" parent="1" vertex="1">
          <mxGeometry x="1751.5" y="2100" width="41" height="25" as="geometry" />
        </mxCell>
        <mxCell id="jI2HZNCU--r-3EHntsAd-370" style="edgeStyle=orthogonalEdgeStyle;rounded=0;orthogonalLoop=1;jettySize=auto;html=1;exitX=1;exitY=0.5;exitDx=0;exitDy=0;fontSize=15;labelBackgroundColor=none;strokeColor=#457B9D;fontColor=#1D3557;" parent="1" source="jI2HZNCU--r-3EHntsAd-371" edge="1">
          <mxGeometry relative="1" as="geometry">
            <mxPoint x="1819.5" y="2142" as="targetPoint" />
          </mxGeometry>
        </mxCell>
        <mxCell id="jI2HZNCU--r-3EHntsAd-371" value="&lt;font color=&quot;#333333&quot;&gt;end&lt;/font&gt;" style="rounded=0;whiteSpace=wrap;html=1;fontSize=15;fillColor=#A8DADC;strokeColor=#457B9D;fontColor=#1D3557;labelBackgroundColor=none;" parent="1" vertex="1">
          <mxGeometry x="1751.5" y="2130" width="41" height="25" as="geometry" />
        </mxCell>
        <mxCell id="jI2HZNCU--r-3EHntsAd-372" value="count：n" style="text;html=1;align=center;verticalAlign=middle;resizable=0;points=[];autosize=1;strokeColor=none;fillColor=none;fontSize=15;fontColor=#1D3557;labelBackgroundColor=none;" parent="1" vertex="1">
          <mxGeometry x="1731" y="2070" width="80" height="30" as="geometry" />
        </mxCell>
        <mxCell id="jI2HZNCU--r-3EHntsAd-373" value="……" style="text;html=1;align=center;verticalAlign=middle;resizable=0;points=[];autosize=1;strokeColor=none;fillColor=none;fontSize=15;fontColor=#1D3557;labelBackgroundColor=none;" parent="1" vertex="1">
          <mxGeometry x="1825.75" y="2110" width="50" height="30" as="geometry" />
        </mxCell>
        <mxCell id="jI2HZNCU--r-3EHntsAd-374" value="&lt;font color=&quot;#666666&quot;&gt;LRU链表&lt;/font&gt;" style="text;html=1;align=center;verticalAlign=middle;resizable=0;points=[];autosize=1;strokeColor=none;fillColor=none;fontSize=15;fontColor=#1D3557;labelBackgroundColor=none;" parent="1" vertex="1">
          <mxGeometry x="1770" y="2170" width="80" height="30" as="geometry" />
        </mxCell>
        <mxCell id="jI2HZNCU--r-3EHntsAd-375" value="&lt;font color=&quot;#666666&quot;&gt;其他各种链表&lt;/font&gt;" style="text;html=1;align=center;verticalAlign=middle;resizable=0;points=[];autosize=1;strokeColor=none;fillColor=none;fontSize=15;fontColor=#1D3557;labelBackgroundColor=none;" parent="1" vertex="1">
          <mxGeometry x="1901.25" y="2110" width="110" height="30" as="geometry" />
        </mxCell>
        <mxCell id="jI2HZNCU--r-3EHntsAd-412" value="&lt;font color=&quot;#666666&quot;&gt;chunk&amp;nbsp;&lt;/font&gt;&lt;span style=&quot;color: rgb(102, 102, 102);&quot;&gt;示意图&lt;/span&gt;" style="text;html=1;align=center;verticalAlign=middle;resizable=0;points=[];autosize=1;strokeColor=none;fillColor=none;fontSize=15;fontColor=#1D3557;labelBackgroundColor=none;" parent="1" vertex="1">
          <mxGeometry x="1651.5" y="2545" width="107" height="30" as="geometry" />
        </mxCell>
        <mxCell id="jI2HZNCU--r-3EHntsAd-413" value="" style="shape=curlyBracket;whiteSpace=wrap;html=1;rounded=1;flipH=1;labelPosition=right;verticalLabelPosition=middle;align=left;verticalAlign=middle;fontSize=15;fillColor=#A8DADC;strokeColor=#457B9D;fontColor=#1D3557;labelBackgroundColor=none;" parent="1" vertex="1">
          <mxGeometry x="2030" y="1901" width="20" height="309" as="geometry" />
        </mxCell>
        <mxCell id="jI2HZNCU--r-3EHntsAd-415" value="&lt;font color=&quot;#666666&quot;&gt;Buffer Pool Instance 0&lt;/font&gt;" style="text;html=1;align=center;verticalAlign=middle;resizable=0;points=[];autosize=1;strokeColor=none;fillColor=none;fontSize=15;fontColor=#1D3557;labelBackgroundColor=none;" parent="1" vertex="1">
          <mxGeometry x="2055.5" y="2040.5" width="170" height="30" as="geometry" />
        </mxCell>
        <mxCell id="jI2HZNCU--r-3EHntsAd-417" value="" style="shape=table;startSize=0;container=1;collapsible=0;childLayout=tableLayout;fontSize=15;fillColor=#A8DADC;strokeColor=#457B9D;fontColor=#1D3557;labelBackgroundColor=none;" parent="1" vertex="1">
          <mxGeometry x="1480" y="1990" width="530" height="44" as="geometry" />
        </mxCell>
        <mxCell id="jI2HZNCU--r-3EHntsAd-418" value="" style="shape=tableRow;horizontal=0;startSize=0;swimlaneHead=0;swimlaneBody=0;top=0;left=0;bottom=0;right=0;collapsible=0;dropTarget=0;fillColor=none;points=[[0,0.5],[1,0.5]];portConstraint=eastwest;fontSize=15;strokeColor=#457B9D;fontColor=#1D3557;labelBackgroundColor=none;" parent="jI2HZNCU--r-3EHntsAd-417" vertex="1">
          <mxGeometry width="530" height="44" as="geometry" />
        </mxCell>
        <mxCell id="jI2HZNCU--r-3EHntsAd-419" value="控制&lt;br style=&quot;font-size: 15px;&quot;&gt;块" style="shape=partialRectangle;html=1;whiteSpace=wrap;connectable=0;overflow=hidden;fillColor=none;top=0;left=0;bottom=0;right=0;pointerEvents=1;fontSize=15;strokeColor=#457B9D;fontColor=#1D3557;labelBackgroundColor=none;" parent="jI2HZNCU--r-3EHntsAd-418" vertex="1">
          <mxGeometry width="45" height="44" as="geometry">
            <mxRectangle width="45" height="44" as="alternateBounds" />
          </mxGeometry>
        </mxCell>
        <mxCell id="jI2HZNCU--r-3EHntsAd-420" value="控制&lt;br style=&quot;font-size: 15px;&quot;&gt;块" style="shape=partialRectangle;html=1;whiteSpace=wrap;connectable=0;overflow=hidden;fillColor=none;top=0;left=0;bottom=0;right=0;pointerEvents=1;fontSize=15;strokeColor=#457B9D;fontColor=#1D3557;labelBackgroundColor=none;" parent="jI2HZNCU--r-3EHntsAd-418" vertex="1">
          <mxGeometry x="45" width="45" height="44" as="geometry">
            <mxRectangle width="45" height="44" as="alternateBounds" />
          </mxGeometry>
        </mxCell>
        <mxCell id="jI2HZNCU--r-3EHntsAd-421" value="……" style="shape=partialRectangle;html=1;whiteSpace=wrap;connectable=0;overflow=hidden;fillColor=none;top=0;left=0;bottom=0;right=0;pointerEvents=1;fontSize=15;strokeColor=#457B9D;fontColor=#1D3557;labelBackgroundColor=none;" parent="jI2HZNCU--r-3EHntsAd-418" vertex="1">
          <mxGeometry x="90" width="45" height="44" as="geometry">
            <mxRectangle width="45" height="44" as="alternateBounds" />
          </mxGeometry>
        </mxCell>
        <mxCell id="jI2HZNCU--r-3EHntsAd-422" value="&lt;meta charset=&quot;utf-8&quot; style=&quot;font-size: 15px;&quot;&gt;&lt;span style=&quot;color: rgb(0, 0, 0); font-family: Helvetica; font-size: 15px; font-style: normal; font-variant-ligatures: normal; font-variant-caps: normal; font-weight: 400; letter-spacing: normal; orphans: 2; text-align: center; text-indent: 0px; text-transform: none; widows: 2; word-spacing: 0px; -webkit-text-stroke-width: 0px; text-decoration-thickness: initial; text-decoration-style: initial; text-decoration-color: initial; float: none; display: inline !important;&quot;&gt;控制&lt;/span&gt;&lt;br style=&quot;color: rgb(0, 0, 0); font-family: Helvetica; font-size: 15px; font-style: normal; font-variant-ligatures: normal; font-variant-caps: normal; font-weight: 400; letter-spacing: normal; orphans: 2; text-align: center; text-indent: 0px; text-transform: none; widows: 2; word-spacing: 0px; -webkit-text-stroke-width: 0px; text-decoration-thickness: initial; text-decoration-style: initial; text-decoration-color: initial;&quot;&gt;&lt;span style=&quot;color: rgb(0, 0, 0); font-family: Helvetica; font-size: 15px; font-style: normal; font-variant-ligatures: normal; font-variant-caps: normal; font-weight: 400; letter-spacing: normal; orphans: 2; text-align: center; text-indent: 0px; text-transform: none; widows: 2; word-spacing: 0px; -webkit-text-stroke-width: 0px; text-decoration-thickness: initial; text-decoration-style: initial; text-decoration-color: initial; float: none; display: inline !important;&quot;&gt;块&lt;/span&gt;" style="shape=partialRectangle;html=1;whiteSpace=wrap;connectable=0;overflow=hidden;fillColor=none;top=0;left=0;bottom=0;right=0;pointerEvents=1;fontSize=15;strokeColor=#457B9D;fontColor=#1D3557;labelBackgroundColor=none;" parent="jI2HZNCU--r-3EHntsAd-418" vertex="1">
          <mxGeometry x="135" width="45" height="44" as="geometry">
            <mxRectangle width="45" height="44" as="alternateBounds" />
          </mxGeometry>
        </mxCell>
        <mxCell id="jI2HZNCU--r-3EHntsAd-423" value="碎片" style="shape=partialRectangle;html=1;whiteSpace=wrap;connectable=0;overflow=hidden;fillColor=none;top=0;left=0;bottom=0;right=0;pointerEvents=1;fontSize=15;strokeColor=#457B9D;fontColor=#1D3557;labelBackgroundColor=none;" parent="jI2HZNCU--r-3EHntsAd-418" vertex="1">
          <mxGeometry x="180" width="50" height="44" as="geometry">
            <mxRectangle width="50" height="44" as="alternateBounds" />
          </mxGeometry>
        </mxCell>
        <mxCell id="jI2HZNCU--r-3EHntsAd-424" value="缓冲页" style="shape=partialRectangle;html=1;whiteSpace=wrap;connectable=0;overflow=hidden;fillColor=none;top=0;left=0;bottom=0;right=0;pointerEvents=1;fontSize=15;strokeColor=#457B9D;fontColor=#1D3557;labelBackgroundColor=none;" parent="jI2HZNCU--r-3EHntsAd-418" vertex="1">
          <mxGeometry x="230" width="75" height="44" as="geometry">
            <mxRectangle width="75" height="44" as="alternateBounds" />
          </mxGeometry>
        </mxCell>
        <mxCell id="jI2HZNCU--r-3EHntsAd-425" value="&lt;meta charset=&quot;utf-8&quot;&gt;&lt;span style=&quot;color: rgb(0, 0, 0); font-family: Helvetica; font-size: 15px; font-style: normal; font-variant-ligatures: normal; font-variant-caps: normal; font-weight: 400; letter-spacing: normal; orphans: 2; text-align: center; text-indent: 0px; text-transform: none; widows: 2; word-spacing: 0px; -webkit-text-stroke-width: 0px; text-decoration-thickness: initial; text-decoration-style: initial; text-decoration-color: initial; float: none; display: inline !important;&quot;&gt;缓冲页&lt;/span&gt;" style="shape=partialRectangle;html=1;whiteSpace=wrap;connectable=0;overflow=hidden;fillColor=none;top=0;left=0;bottom=0;right=0;pointerEvents=1;fontSize=15;strokeColor=#457B9D;fontColor=#1D3557;labelBackgroundColor=none;" parent="jI2HZNCU--r-3EHntsAd-418" vertex="1">
          <mxGeometry x="305" width="75" height="44" as="geometry">
            <mxRectangle width="75" height="44" as="alternateBounds" />
          </mxGeometry>
        </mxCell>
        <mxCell id="jI2HZNCU--r-3EHntsAd-426" value="……" style="shape=partialRectangle;html=1;whiteSpace=wrap;connectable=0;overflow=hidden;fillColor=none;top=0;left=0;bottom=0;right=0;pointerEvents=1;fontSize=15;strokeColor=#457B9D;fontColor=#1D3557;labelBackgroundColor=none;" parent="jI2HZNCU--r-3EHntsAd-418" vertex="1">
          <mxGeometry x="380" width="75" height="44" as="geometry">
            <mxRectangle width="75" height="44" as="alternateBounds" />
          </mxGeometry>
        </mxCell>
        <mxCell id="jI2HZNCU--r-3EHntsAd-427" value="&lt;meta charset=&quot;utf-8&quot;&gt;&lt;span style=&quot;color: rgb(0, 0, 0); font-family: Helvetica; font-size: 15px; font-style: normal; font-variant-ligatures: normal; font-variant-caps: normal; font-weight: 400; letter-spacing: normal; orphans: 2; text-align: center; text-indent: 0px; text-transform: none; widows: 2; word-spacing: 0px; -webkit-text-stroke-width: 0px; text-decoration-thickness: initial; text-decoration-style: initial; text-decoration-color: initial; float: none; display: inline !important;&quot;&gt;缓冲页&lt;/span&gt;" style="shape=partialRectangle;html=1;whiteSpace=wrap;connectable=0;overflow=hidden;fillColor=none;top=0;left=0;bottom=0;right=0;pointerEvents=1;fontSize=15;strokeColor=#457B9D;fontColor=#1D3557;labelBackgroundColor=none;" parent="jI2HZNCU--r-3EHntsAd-418" vertex="1">
          <mxGeometry x="455" width="75" height="44" as="geometry">
            <mxRectangle width="75" height="44" as="alternateBounds" />
          </mxGeometry>
        </mxCell>
        <mxCell id="jI2HZNCU--r-3EHntsAd-428" value="chunk 0：" style="text;html=1;align=center;verticalAlign=middle;resizable=0;points=[];autosize=1;strokeColor=none;fillColor=none;fontSize=15;fontColor=#1D3557;labelBackgroundColor=none;" parent="1" vertex="1">
          <mxGeometry x="1392.5" y="1927" width="90" height="30" as="geometry" />
        </mxCell>
        <mxCell id="jI2HZNCU--r-3EHntsAd-429" value="chunk 1：" style="text;html=1;align=center;verticalAlign=middle;resizable=0;points=[];autosize=1;strokeColor=none;fillColor=none;fontSize=15;fontColor=#1D3557;labelBackgroundColor=none;" parent="1" vertex="1">
          <mxGeometry x="1394.75" y="1997" width="90" height="30" as="geometry" />
        </mxCell>
        <mxCell id="jI2HZNCU--r-3EHntsAd-430" value="" style="shape=table;startSize=0;container=1;collapsible=0;childLayout=tableLayout;fontSize=15;fillColor=#A8DADC;strokeColor=#457B9D;fontColor=#1D3557;labelBackgroundColor=none;" parent="1" vertex="1">
          <mxGeometry x="1479.5" y="2230" width="530" height="44" as="geometry" />
        </mxCell>
        <mxCell id="jI2HZNCU--r-3EHntsAd-431" value="" style="shape=tableRow;horizontal=0;startSize=0;swimlaneHead=0;swimlaneBody=0;top=0;left=0;bottom=0;right=0;collapsible=0;dropTarget=0;fillColor=none;points=[[0,0.5],[1,0.5]];portConstraint=eastwest;fontSize=15;strokeColor=#457B9D;fontColor=#1D3557;labelBackgroundColor=none;" parent="jI2HZNCU--r-3EHntsAd-430" vertex="1">
          <mxGeometry width="530" height="44" as="geometry" />
        </mxCell>
        <mxCell id="jI2HZNCU--r-3EHntsAd-432" value="控制&lt;br style=&quot;font-size: 15px;&quot;&gt;块" style="shape=partialRectangle;html=1;whiteSpace=wrap;connectable=0;overflow=hidden;fillColor=none;top=0;left=0;bottom=0;right=0;pointerEvents=1;fontSize=15;strokeColor=#457B9D;fontColor=#1D3557;labelBackgroundColor=none;" parent="jI2HZNCU--r-3EHntsAd-431" vertex="1">
          <mxGeometry width="45" height="44" as="geometry">
            <mxRectangle width="45" height="44" as="alternateBounds" />
          </mxGeometry>
        </mxCell>
        <mxCell id="jI2HZNCU--r-3EHntsAd-433" value="控制&lt;br style=&quot;font-size: 15px;&quot;&gt;块" style="shape=partialRectangle;html=1;whiteSpace=wrap;connectable=0;overflow=hidden;fillColor=none;top=0;left=0;bottom=0;right=0;pointerEvents=1;fontSize=15;strokeColor=#457B9D;fontColor=#1D3557;labelBackgroundColor=none;" parent="jI2HZNCU--r-3EHntsAd-431" vertex="1">
          <mxGeometry x="45" width="45" height="44" as="geometry">
            <mxRectangle width="45" height="44" as="alternateBounds" />
          </mxGeometry>
        </mxCell>
        <mxCell id="jI2HZNCU--r-3EHntsAd-434" value="……" style="shape=partialRectangle;html=1;whiteSpace=wrap;connectable=0;overflow=hidden;fillColor=none;top=0;left=0;bottom=0;right=0;pointerEvents=1;fontSize=15;strokeColor=#457B9D;fontColor=#1D3557;labelBackgroundColor=none;" parent="jI2HZNCU--r-3EHntsAd-431" vertex="1">
          <mxGeometry x="90" width="45" height="44" as="geometry">
            <mxRectangle width="45" height="44" as="alternateBounds" />
          </mxGeometry>
        </mxCell>
        <mxCell id="jI2HZNCU--r-3EHntsAd-435" value="&lt;meta charset=&quot;utf-8&quot; style=&quot;font-size: 15px;&quot;&gt;&lt;span style=&quot;color: rgb(0, 0, 0); font-family: Helvetica; font-size: 15px; font-style: normal; font-variant-ligatures: normal; font-variant-caps: normal; font-weight: 400; letter-spacing: normal; orphans: 2; text-align: center; text-indent: 0px; text-transform: none; widows: 2; word-spacing: 0px; -webkit-text-stroke-width: 0px; text-decoration-thickness: initial; text-decoration-style: initial; text-decoration-color: initial; float: none; display: inline !important;&quot;&gt;控制&lt;/span&gt;&lt;br style=&quot;color: rgb(0, 0, 0); font-family: Helvetica; font-size: 15px; font-style: normal; font-variant-ligatures: normal; font-variant-caps: normal; font-weight: 400; letter-spacing: normal; orphans: 2; text-align: center; text-indent: 0px; text-transform: none; widows: 2; word-spacing: 0px; -webkit-text-stroke-width: 0px; text-decoration-thickness: initial; text-decoration-style: initial; text-decoration-color: initial;&quot;&gt;&lt;span style=&quot;color: rgb(0, 0, 0); font-family: Helvetica; font-size: 15px; font-style: normal; font-variant-ligatures: normal; font-variant-caps: normal; font-weight: 400; letter-spacing: normal; orphans: 2; text-align: center; text-indent: 0px; text-transform: none; widows: 2; word-spacing: 0px; -webkit-text-stroke-width: 0px; text-decoration-thickness: initial; text-decoration-style: initial; text-decoration-color: initial; float: none; display: inline !important;&quot;&gt;块&lt;/span&gt;" style="shape=partialRectangle;html=1;whiteSpace=wrap;connectable=0;overflow=hidden;fillColor=none;top=0;left=0;bottom=0;right=0;pointerEvents=1;fontSize=15;strokeColor=#457B9D;fontColor=#1D3557;labelBackgroundColor=none;" parent="jI2HZNCU--r-3EHntsAd-431" vertex="1">
          <mxGeometry x="135" width="45" height="44" as="geometry">
            <mxRectangle width="45" height="44" as="alternateBounds" />
          </mxGeometry>
        </mxCell>
        <mxCell id="jI2HZNCU--r-3EHntsAd-436" value="碎片" style="shape=partialRectangle;html=1;whiteSpace=wrap;connectable=0;overflow=hidden;fillColor=none;top=0;left=0;bottom=0;right=0;pointerEvents=1;fontSize=15;strokeColor=#457B9D;fontColor=#1D3557;labelBackgroundColor=none;" parent="jI2HZNCU--r-3EHntsAd-431" vertex="1">
          <mxGeometry x="180" width="50" height="44" as="geometry">
            <mxRectangle width="50" height="44" as="alternateBounds" />
          </mxGeometry>
        </mxCell>
        <mxCell id="jI2HZNCU--r-3EHntsAd-437" value="缓冲页" style="shape=partialRectangle;html=1;whiteSpace=wrap;connectable=0;overflow=hidden;fillColor=none;top=0;left=0;bottom=0;right=0;pointerEvents=1;fontSize=15;strokeColor=#457B9D;fontColor=#1D3557;labelBackgroundColor=none;" parent="jI2HZNCU--r-3EHntsAd-431" vertex="1">
          <mxGeometry x="230" width="75" height="44" as="geometry">
            <mxRectangle width="75" height="44" as="alternateBounds" />
          </mxGeometry>
        </mxCell>
        <mxCell id="jI2HZNCU--r-3EHntsAd-438" value="&lt;meta charset=&quot;utf-8&quot;&gt;&lt;span style=&quot;color: rgb(0, 0, 0); font-family: Helvetica; font-size: 15px; font-style: normal; font-variant-ligatures: normal; font-variant-caps: normal; font-weight: 400; letter-spacing: normal; orphans: 2; text-align: center; text-indent: 0px; text-transform: none; widows: 2; word-spacing: 0px; -webkit-text-stroke-width: 0px; text-decoration-thickness: initial; text-decoration-style: initial; text-decoration-color: initial; float: none; display: inline !important;&quot;&gt;缓冲页&lt;/span&gt;" style="shape=partialRectangle;html=1;whiteSpace=wrap;connectable=0;overflow=hidden;fillColor=none;top=0;left=0;bottom=0;right=0;pointerEvents=1;fontSize=15;strokeColor=#457B9D;fontColor=#1D3557;labelBackgroundColor=none;" parent="jI2HZNCU--r-3EHntsAd-431" vertex="1">
          <mxGeometry x="305" width="75" height="44" as="geometry">
            <mxRectangle width="75" height="44" as="alternateBounds" />
          </mxGeometry>
        </mxCell>
        <mxCell id="jI2HZNCU--r-3EHntsAd-439" value="……" style="shape=partialRectangle;html=1;whiteSpace=wrap;connectable=0;overflow=hidden;fillColor=none;top=0;left=0;bottom=0;right=0;pointerEvents=1;fontSize=15;strokeColor=#457B9D;fontColor=#1D3557;labelBackgroundColor=none;" parent="jI2HZNCU--r-3EHntsAd-431" vertex="1">
          <mxGeometry x="380" width="75" height="44" as="geometry">
            <mxRectangle width="75" height="44" as="alternateBounds" />
          </mxGeometry>
        </mxCell>
        <mxCell id="jI2HZNCU--r-3EHntsAd-440" value="&lt;meta charset=&quot;utf-8&quot;&gt;&lt;span style=&quot;color: rgb(0, 0, 0); font-family: Helvetica; font-size: 15px; font-style: normal; font-variant-ligatures: normal; font-variant-caps: normal; font-weight: 400; letter-spacing: normal; orphans: 2; text-align: center; text-indent: 0px; text-transform: none; widows: 2; word-spacing: 0px; -webkit-text-stroke-width: 0px; text-decoration-thickness: initial; text-decoration-style: initial; text-decoration-color: initial; float: none; display: inline !important;&quot;&gt;缓冲页&lt;/span&gt;" style="shape=partialRectangle;html=1;whiteSpace=wrap;connectable=0;overflow=hidden;fillColor=none;top=0;left=0;bottom=0;right=0;pointerEvents=1;fontSize=15;strokeColor=#457B9D;fontColor=#1D3557;labelBackgroundColor=none;" parent="jI2HZNCU--r-3EHntsAd-431" vertex="1">
          <mxGeometry x="455" width="75" height="44" as="geometry">
            <mxRectangle width="75" height="44" as="alternateBounds" />
          </mxGeometry>
        </mxCell>
        <mxCell id="jI2HZNCU--r-3EHntsAd-441" value="" style="rounded=0;whiteSpace=wrap;html=1;fontSize=15;fillColor=#A8DADC;strokeColor=#457B9D;fontColor=#1D3557;labelBackgroundColor=none;" parent="1" vertex="1">
          <mxGeometry x="1404" y="2380" width="70.5" height="90" as="geometry" />
        </mxCell>
        <mxCell id="jI2HZNCU--r-3EHntsAd-442" style="edgeStyle=orthogonalEdgeStyle;rounded=0;orthogonalLoop=1;jettySize=auto;html=1;exitX=1;exitY=0.5;exitDx=0;exitDy=0;fontSize=15;labelBackgroundColor=none;strokeColor=#457B9D;fontColor=#1D3557;" parent="1" source="jI2HZNCU--r-3EHntsAd-443" edge="1">
          <mxGeometry relative="1" as="geometry">
            <mxPoint x="1486.75" y="2422.483870967742" as="targetPoint" />
          </mxGeometry>
        </mxCell>
        <mxCell id="jI2HZNCU--r-3EHntsAd-443" value="&lt;font color=&quot;#333333&quot;&gt;start&lt;/font&gt;" style="rounded=0;whiteSpace=wrap;html=1;fontSize=15;fillColor=#A8DADC;strokeColor=#457B9D;fontColor=#1D3557;labelBackgroundColor=none;" parent="1" vertex="1">
          <mxGeometry x="1418.75" y="2410" width="41" height="25" as="geometry" />
        </mxCell>
        <mxCell id="jI2HZNCU--r-3EHntsAd-444" style="edgeStyle=orthogonalEdgeStyle;rounded=0;orthogonalLoop=1;jettySize=auto;html=1;exitX=1;exitY=0.5;exitDx=0;exitDy=0;fontSize=15;labelBackgroundColor=none;strokeColor=#457B9D;fontColor=#1D3557;" parent="1" source="jI2HZNCU--r-3EHntsAd-445" edge="1">
          <mxGeometry relative="1" as="geometry">
            <mxPoint x="1486.75" y="2452" as="targetPoint" />
          </mxGeometry>
        </mxCell>
        <mxCell id="jI2HZNCU--r-3EHntsAd-445" value="&lt;font color=&quot;#333333&quot;&gt;end&lt;/font&gt;" style="rounded=0;whiteSpace=wrap;html=1;fontSize=15;fillColor=#A8DADC;strokeColor=#457B9D;fontColor=#1D3557;labelBackgroundColor=none;" parent="1" vertex="1">
          <mxGeometry x="1418.75" y="2440" width="41" height="25" as="geometry" />
        </mxCell>
        <mxCell id="jI2HZNCU--r-3EHntsAd-446" value="count：n" style="text;html=1;align=center;verticalAlign=middle;resizable=0;points=[];autosize=1;strokeColor=none;fillColor=none;fontSize=15;fontColor=#1D3557;labelBackgroundColor=none;" parent="1" vertex="1">
          <mxGeometry x="1398.25" y="2380" width="80" height="30" as="geometry" />
        </mxCell>
        <mxCell id="jI2HZNCU--r-3EHntsAd-447" value="……" style="text;html=1;align=center;verticalAlign=middle;resizable=0;points=[];autosize=1;strokeColor=none;fillColor=none;fontSize=15;fontColor=#1D3557;labelBackgroundColor=none;" parent="1" vertex="1">
          <mxGeometry x="1493" y="2420" width="50" height="30" as="geometry" />
        </mxCell>
        <mxCell id="jI2HZNCU--r-3EHntsAd-448" value="&lt;font color=&quot;#666666&quot;&gt;free链表&lt;/font&gt;" style="text;html=1;align=center;verticalAlign=middle;resizable=0;points=[];autosize=1;strokeColor=none;fillColor=none;fontSize=15;fontColor=#1D3557;labelBackgroundColor=none;" parent="1" vertex="1">
          <mxGeometry x="1437.25" y="2480" width="80" height="30" as="geometry" />
        </mxCell>
        <mxCell id="jI2HZNCU--r-3EHntsAd-449" value="" style="rounded=0;whiteSpace=wrap;html=1;fontSize=15;fillColor=#A8DADC;strokeColor=#457B9D;fontColor=#1D3557;labelBackgroundColor=none;" parent="1" vertex="1">
          <mxGeometry x="1567.25" y="2380" width="70.5" height="90" as="geometry" />
        </mxCell>
        <mxCell id="jI2HZNCU--r-3EHntsAd-450" style="edgeStyle=orthogonalEdgeStyle;rounded=0;orthogonalLoop=1;jettySize=auto;html=1;exitX=1;exitY=0.5;exitDx=0;exitDy=0;fontSize=15;labelBackgroundColor=none;strokeColor=#457B9D;fontColor=#1D3557;" parent="1" source="jI2HZNCU--r-3EHntsAd-451" edge="1">
          <mxGeometry relative="1" as="geometry">
            <mxPoint x="1650" y="2422.483870967742" as="targetPoint" />
          </mxGeometry>
        </mxCell>
        <mxCell id="jI2HZNCU--r-3EHntsAd-451" value="&lt;font color=&quot;#333333&quot;&gt;start&lt;/font&gt;" style="rounded=0;whiteSpace=wrap;html=1;fontSize=15;fillColor=#A8DADC;strokeColor=#457B9D;fontColor=#1D3557;labelBackgroundColor=none;" parent="1" vertex="1">
          <mxGeometry x="1582" y="2410" width="41" height="25" as="geometry" />
        </mxCell>
        <mxCell id="jI2HZNCU--r-3EHntsAd-452" style="edgeStyle=orthogonalEdgeStyle;rounded=0;orthogonalLoop=1;jettySize=auto;html=1;exitX=1;exitY=0.5;exitDx=0;exitDy=0;fontSize=15;labelBackgroundColor=none;strokeColor=#457B9D;fontColor=#1D3557;" parent="1" source="jI2HZNCU--r-3EHntsAd-453" edge="1">
          <mxGeometry relative="1" as="geometry">
            <mxPoint x="1650" y="2452" as="targetPoint" />
          </mxGeometry>
        </mxCell>
        <mxCell id="jI2HZNCU--r-3EHntsAd-453" value="&lt;font color=&quot;#333333&quot;&gt;end&lt;/font&gt;" style="rounded=0;whiteSpace=wrap;html=1;fontSize=15;fillColor=#A8DADC;strokeColor=#457B9D;fontColor=#1D3557;labelBackgroundColor=none;" parent="1" vertex="1">
          <mxGeometry x="1582" y="2440" width="41" height="25" as="geometry" />
        </mxCell>
        <mxCell id="jI2HZNCU--r-3EHntsAd-454" value="count：n" style="text;html=1;align=center;verticalAlign=middle;resizable=0;points=[];autosize=1;strokeColor=none;fillColor=none;fontSize=15;fontColor=#1D3557;labelBackgroundColor=none;" parent="1" vertex="1">
          <mxGeometry x="1561.5" y="2380" width="80" height="30" as="geometry" />
        </mxCell>
        <mxCell id="jI2HZNCU--r-3EHntsAd-455" value="……" style="text;html=1;align=center;verticalAlign=middle;resizable=0;points=[];autosize=1;strokeColor=none;fillColor=none;fontSize=15;fontColor=#1D3557;labelBackgroundColor=none;" parent="1" vertex="1">
          <mxGeometry x="1656.25" y="2420" width="50" height="30" as="geometry" />
        </mxCell>
        <mxCell id="jI2HZNCU--r-3EHntsAd-456" value="&lt;font color=&quot;#666666&quot;&gt;flush链表&lt;/font&gt;" style="text;html=1;align=center;verticalAlign=middle;resizable=0;points=[];autosize=1;strokeColor=none;fillColor=none;fontSize=15;fontColor=#1D3557;labelBackgroundColor=none;" parent="1" vertex="1">
          <mxGeometry x="1595.5" y="2480" width="90" height="30" as="geometry" />
        </mxCell>
        <mxCell id="jI2HZNCU--r-3EHntsAd-457" value="" style="rounded=0;whiteSpace=wrap;html=1;fontSize=15;fillColor=#A8DADC;strokeColor=#457B9D;fontColor=#1D3557;labelBackgroundColor=none;" parent="1" vertex="1">
          <mxGeometry x="1736.25" y="2380" width="70.5" height="90" as="geometry" />
        </mxCell>
        <mxCell id="jI2HZNCU--r-3EHntsAd-458" style="edgeStyle=orthogonalEdgeStyle;rounded=0;orthogonalLoop=1;jettySize=auto;html=1;exitX=1;exitY=0.5;exitDx=0;exitDy=0;fontSize=15;labelBackgroundColor=none;strokeColor=#457B9D;fontColor=#1D3557;" parent="1" source="jI2HZNCU--r-3EHntsAd-459" edge="1">
          <mxGeometry relative="1" as="geometry">
            <mxPoint x="1819" y="2422.483870967742" as="targetPoint" />
          </mxGeometry>
        </mxCell>
        <mxCell id="jI2HZNCU--r-3EHntsAd-459" value="&lt;font color=&quot;#333333&quot;&gt;start&lt;/font&gt;" style="rounded=0;whiteSpace=wrap;html=1;fontSize=15;fillColor=#A8DADC;strokeColor=#457B9D;fontColor=#1D3557;labelBackgroundColor=none;" parent="1" vertex="1">
          <mxGeometry x="1751" y="2410" width="41" height="25" as="geometry" />
        </mxCell>
        <mxCell id="jI2HZNCU--r-3EHntsAd-460" style="edgeStyle=orthogonalEdgeStyle;rounded=0;orthogonalLoop=1;jettySize=auto;html=1;exitX=1;exitY=0.5;exitDx=0;exitDy=0;fontSize=15;labelBackgroundColor=none;strokeColor=#457B9D;fontColor=#1D3557;" parent="1" source="jI2HZNCU--r-3EHntsAd-461" edge="1">
          <mxGeometry relative="1" as="geometry">
            <mxPoint x="1819" y="2452" as="targetPoint" />
          </mxGeometry>
        </mxCell>
        <mxCell id="jI2HZNCU--r-3EHntsAd-461" value="&lt;font color=&quot;#333333&quot;&gt;end&lt;/font&gt;" style="rounded=0;whiteSpace=wrap;html=1;fontSize=15;fillColor=#A8DADC;strokeColor=#457B9D;fontColor=#1D3557;labelBackgroundColor=none;" parent="1" vertex="1">
          <mxGeometry x="1751" y="2440" width="41" height="25" as="geometry" />
        </mxCell>
        <mxCell id="jI2HZNCU--r-3EHntsAd-462" value="count：n" style="text;html=1;align=center;verticalAlign=middle;resizable=0;points=[];autosize=1;strokeColor=none;fillColor=none;fontSize=15;fontColor=#1D3557;labelBackgroundColor=none;" parent="1" vertex="1">
          <mxGeometry x="1730.5" y="2380" width="80" height="30" as="geometry" />
        </mxCell>
        <mxCell id="jI2HZNCU--r-3EHntsAd-463" value="……" style="text;html=1;align=center;verticalAlign=middle;resizable=0;points=[];autosize=1;strokeColor=none;fillColor=none;fontSize=15;fontColor=#1D3557;labelBackgroundColor=none;" parent="1" vertex="1">
          <mxGeometry x="1825.25" y="2420" width="50" height="30" as="geometry" />
        </mxCell>
        <mxCell id="jI2HZNCU--r-3EHntsAd-464" value="&lt;font color=&quot;#666666&quot;&gt;LRU链表&lt;/font&gt;" style="text;html=1;align=center;verticalAlign=middle;resizable=0;points=[];autosize=1;strokeColor=none;fillColor=none;fontSize=15;fontColor=#1D3557;labelBackgroundColor=none;" parent="1" vertex="1">
          <mxGeometry x="1769.5" y="2480" width="80" height="30" as="geometry" />
        </mxCell>
        <mxCell id="jI2HZNCU--r-3EHntsAd-465" value="&lt;font color=&quot;#666666&quot;&gt;其他各种链表&lt;/font&gt;" style="text;html=1;align=center;verticalAlign=middle;resizable=0;points=[];autosize=1;strokeColor=none;fillColor=none;fontSize=15;fontColor=#1D3557;labelBackgroundColor=none;" parent="1" vertex="1">
          <mxGeometry x="1900.75" y="2420" width="110" height="30" as="geometry" />
        </mxCell>
        <mxCell id="jI2HZNCU--r-3EHntsAd-466" value="" style="shape=table;startSize=0;container=1;collapsible=0;childLayout=tableLayout;fontSize=15;fillColor=#A8DADC;strokeColor=#457B9D;fontColor=#1D3557;labelBackgroundColor=none;" parent="1" vertex="1">
          <mxGeometry x="1479.5" y="2300" width="530" height="44" as="geometry" />
        </mxCell>
        <mxCell id="jI2HZNCU--r-3EHntsAd-467" value="" style="shape=tableRow;horizontal=0;startSize=0;swimlaneHead=0;swimlaneBody=0;top=0;left=0;bottom=0;right=0;collapsible=0;dropTarget=0;fillColor=none;points=[[0,0.5],[1,0.5]];portConstraint=eastwest;fontSize=15;strokeColor=#457B9D;fontColor=#1D3557;labelBackgroundColor=none;" parent="jI2HZNCU--r-3EHntsAd-466" vertex="1">
          <mxGeometry width="530" height="44" as="geometry" />
        </mxCell>
        <mxCell id="jI2HZNCU--r-3EHntsAd-468" value="控制&lt;br style=&quot;font-size: 15px;&quot;&gt;块" style="shape=partialRectangle;html=1;whiteSpace=wrap;connectable=0;overflow=hidden;fillColor=none;top=0;left=0;bottom=0;right=0;pointerEvents=1;fontSize=15;strokeColor=#457B9D;fontColor=#1D3557;labelBackgroundColor=none;" parent="jI2HZNCU--r-3EHntsAd-467" vertex="1">
          <mxGeometry width="45" height="44" as="geometry">
            <mxRectangle width="45" height="44" as="alternateBounds" />
          </mxGeometry>
        </mxCell>
        <mxCell id="jI2HZNCU--r-3EHntsAd-469" value="控制&lt;br style=&quot;font-size: 15px;&quot;&gt;块" style="shape=partialRectangle;html=1;whiteSpace=wrap;connectable=0;overflow=hidden;fillColor=none;top=0;left=0;bottom=0;right=0;pointerEvents=1;fontSize=15;strokeColor=#457B9D;fontColor=#1D3557;labelBackgroundColor=none;" parent="jI2HZNCU--r-3EHntsAd-467" vertex="1">
          <mxGeometry x="45" width="45" height="44" as="geometry">
            <mxRectangle width="45" height="44" as="alternateBounds" />
          </mxGeometry>
        </mxCell>
        <mxCell id="jI2HZNCU--r-3EHntsAd-470" value="……" style="shape=partialRectangle;html=1;whiteSpace=wrap;connectable=0;overflow=hidden;fillColor=none;top=0;left=0;bottom=0;right=0;pointerEvents=1;fontSize=15;strokeColor=#457B9D;fontColor=#1D3557;labelBackgroundColor=none;" parent="jI2HZNCU--r-3EHntsAd-467" vertex="1">
          <mxGeometry x="90" width="45" height="44" as="geometry">
            <mxRectangle width="45" height="44" as="alternateBounds" />
          </mxGeometry>
        </mxCell>
        <mxCell id="jI2HZNCU--r-3EHntsAd-471" value="&lt;meta charset=&quot;utf-8&quot; style=&quot;font-size: 15px;&quot;&gt;&lt;span style=&quot;color: rgb(0, 0, 0); font-family: Helvetica; font-size: 15px; font-style: normal; font-variant-ligatures: normal; font-variant-caps: normal; font-weight: 400; letter-spacing: normal; orphans: 2; text-align: center; text-indent: 0px; text-transform: none; widows: 2; word-spacing: 0px; -webkit-text-stroke-width: 0px; text-decoration-thickness: initial; text-decoration-style: initial; text-decoration-color: initial; float: none; display: inline !important;&quot;&gt;控制&lt;/span&gt;&lt;br style=&quot;color: rgb(0, 0, 0); font-family: Helvetica; font-size: 15px; font-style: normal; font-variant-ligatures: normal; font-variant-caps: normal; font-weight: 400; letter-spacing: normal; orphans: 2; text-align: center; text-indent: 0px; text-transform: none; widows: 2; word-spacing: 0px; -webkit-text-stroke-width: 0px; text-decoration-thickness: initial; text-decoration-style: initial; text-decoration-color: initial;&quot;&gt;&lt;span style=&quot;color: rgb(0, 0, 0); font-family: Helvetica; font-size: 15px; font-style: normal; font-variant-ligatures: normal; font-variant-caps: normal; font-weight: 400; letter-spacing: normal; orphans: 2; text-align: center; text-indent: 0px; text-transform: none; widows: 2; word-spacing: 0px; -webkit-text-stroke-width: 0px; text-decoration-thickness: initial; text-decoration-style: initial; text-decoration-color: initial; float: none; display: inline !important;&quot;&gt;块&lt;/span&gt;" style="shape=partialRectangle;html=1;whiteSpace=wrap;connectable=0;overflow=hidden;fillColor=none;top=0;left=0;bottom=0;right=0;pointerEvents=1;fontSize=15;strokeColor=#457B9D;fontColor=#1D3557;labelBackgroundColor=none;" parent="jI2HZNCU--r-3EHntsAd-467" vertex="1">
          <mxGeometry x="135" width="45" height="44" as="geometry">
            <mxRectangle width="45" height="44" as="alternateBounds" />
          </mxGeometry>
        </mxCell>
        <mxCell id="jI2HZNCU--r-3EHntsAd-472" value="碎片" style="shape=partialRectangle;html=1;whiteSpace=wrap;connectable=0;overflow=hidden;fillColor=none;top=0;left=0;bottom=0;right=0;pointerEvents=1;fontSize=15;strokeColor=#457B9D;fontColor=#1D3557;labelBackgroundColor=none;" parent="jI2HZNCU--r-3EHntsAd-467" vertex="1">
          <mxGeometry x="180" width="50" height="44" as="geometry">
            <mxRectangle width="50" height="44" as="alternateBounds" />
          </mxGeometry>
        </mxCell>
        <mxCell id="jI2HZNCU--r-3EHntsAd-473" value="缓冲页" style="shape=partialRectangle;html=1;whiteSpace=wrap;connectable=0;overflow=hidden;fillColor=none;top=0;left=0;bottom=0;right=0;pointerEvents=1;fontSize=15;strokeColor=#457B9D;fontColor=#1D3557;labelBackgroundColor=none;" parent="jI2HZNCU--r-3EHntsAd-467" vertex="1">
          <mxGeometry x="230" width="75" height="44" as="geometry">
            <mxRectangle width="75" height="44" as="alternateBounds" />
          </mxGeometry>
        </mxCell>
        <mxCell id="jI2HZNCU--r-3EHntsAd-474" value="&lt;meta charset=&quot;utf-8&quot;&gt;&lt;span style=&quot;color: rgb(0, 0, 0); font-family: Helvetica; font-size: 15px; font-style: normal; font-variant-ligatures: normal; font-variant-caps: normal; font-weight: 400; letter-spacing: normal; orphans: 2; text-align: center; text-indent: 0px; text-transform: none; widows: 2; word-spacing: 0px; -webkit-text-stroke-width: 0px; text-decoration-thickness: initial; text-decoration-style: initial; text-decoration-color: initial; float: none; display: inline !important;&quot;&gt;缓冲页&lt;/span&gt;" style="shape=partialRectangle;html=1;whiteSpace=wrap;connectable=0;overflow=hidden;fillColor=none;top=0;left=0;bottom=0;right=0;pointerEvents=1;fontSize=15;strokeColor=#457B9D;fontColor=#1D3557;labelBackgroundColor=none;" parent="jI2HZNCU--r-3EHntsAd-467" vertex="1">
          <mxGeometry x="305" width="75" height="44" as="geometry">
            <mxRectangle width="75" height="44" as="alternateBounds" />
          </mxGeometry>
        </mxCell>
        <mxCell id="jI2HZNCU--r-3EHntsAd-475" value="……" style="shape=partialRectangle;html=1;whiteSpace=wrap;connectable=0;overflow=hidden;fillColor=none;top=0;left=0;bottom=0;right=0;pointerEvents=1;fontSize=15;strokeColor=#457B9D;fontColor=#1D3557;labelBackgroundColor=none;" parent="jI2HZNCU--r-3EHntsAd-467" vertex="1">
          <mxGeometry x="380" width="75" height="44" as="geometry">
            <mxRectangle width="75" height="44" as="alternateBounds" />
          </mxGeometry>
        </mxCell>
        <mxCell id="jI2HZNCU--r-3EHntsAd-476" value="&lt;meta charset=&quot;utf-8&quot;&gt;&lt;span style=&quot;color: rgb(0, 0, 0); font-family: Helvetica; font-size: 15px; font-style: normal; font-variant-ligatures: normal; font-variant-caps: normal; font-weight: 400; letter-spacing: normal; orphans: 2; text-align: center; text-indent: 0px; text-transform: none; widows: 2; word-spacing: 0px; -webkit-text-stroke-width: 0px; text-decoration-thickness: initial; text-decoration-style: initial; text-decoration-color: initial; float: none; display: inline !important;&quot;&gt;缓冲页&lt;/span&gt;" style="shape=partialRectangle;html=1;whiteSpace=wrap;connectable=0;overflow=hidden;fillColor=none;top=0;left=0;bottom=0;right=0;pointerEvents=1;fontSize=15;strokeColor=#457B9D;fontColor=#1D3557;labelBackgroundColor=none;" parent="jI2HZNCU--r-3EHntsAd-467" vertex="1">
          <mxGeometry x="455" width="75" height="44" as="geometry">
            <mxRectangle width="75" height="44" as="alternateBounds" />
          </mxGeometry>
        </mxCell>
        <mxCell id="jI2HZNCU--r-3EHntsAd-477" value="chunk 0：" style="text;html=1;align=center;verticalAlign=middle;resizable=0;points=[];autosize=1;strokeColor=none;fillColor=none;fontSize=15;fontColor=#1D3557;labelBackgroundColor=none;" parent="1" vertex="1">
          <mxGeometry x="1392" y="2237" width="90" height="30" as="geometry" />
        </mxCell>
        <mxCell id="jI2HZNCU--r-3EHntsAd-478" value="chunk 1：" style="text;html=1;align=center;verticalAlign=middle;resizable=0;points=[];autosize=1;strokeColor=none;fillColor=none;fontSize=15;fontColor=#1D3557;labelBackgroundColor=none;" parent="1" vertex="1">
          <mxGeometry x="1394.25" y="2307" width="90" height="30" as="geometry" />
        </mxCell>
        <mxCell id="jI2HZNCU--r-3EHntsAd-479" value="" style="shape=curlyBracket;whiteSpace=wrap;html=1;rounded=1;flipH=1;labelPosition=right;verticalLabelPosition=middle;align=left;verticalAlign=middle;fontSize=15;fillColor=#A8DADC;strokeColor=#457B9D;fontColor=#1D3557;labelBackgroundColor=none;" parent="1" vertex="1">
          <mxGeometry x="2030" y="2211" width="20" height="309" as="geometry" />
        </mxCell>
        <mxCell id="jI2HZNCU--r-3EHntsAd-480" value="&lt;font color=&quot;#666666&quot;&gt;Buffer Pool Instance 1&lt;/font&gt;" style="text;html=1;align=center;verticalAlign=middle;resizable=0;points=[];autosize=1;strokeColor=none;fillColor=none;fontSize=15;fontColor=#1D3557;labelBackgroundColor=none;" parent="1" vertex="1">
          <mxGeometry x="2055.5" y="2350.5" width="170" height="30" as="geometry" />
        </mxCell>
      </root>
    </mxGraphModel>
  </diagram>
</mxfile>
